<svg width="348" height="381" viewBox="0 0 348 381" fill="none" xmlns="http://www.w3.org/2000/svg">
<path d="M259.231 291.527C256.631 293.844 254.266 296.109 251.743 298.177C236.263 310.847 218.828 319.469 199.165 323.417C196.045 324.042 196.05 324.032 196.05 327.157C196.05 331.359 196.025 335.563 196.035 339.763C196.05 345.929 194.297 351.697 192.03 357.33C189.645 363.263 186.808 368.977 183.162 374.251C182.305 375.492 181.352 376.685 180.303 377.759C176.53 381.643 171.091 381.663 167.383 377.69C165.852 376.045 164.571 374.13 163.346 372.233C159.407 366.139 156.414 359.578 154.136 352.69C152.831 348.757 152.135 344.713 152.12 340.558C152.1 335.855 152.04 331.146 152.024 326.443C152.014 323.881 152.014 323.987 149.611 323.345C143.695 321.764 137.704 320.385 131.939 318.365C116.373 312.915 102.46 304.629 90.5327 293.145C90.2305 292.851 89.9029 292.584 89.6207 292.278C88.7944 291.396 88.094 291.551 87.2926 292.384C85.4888 294.259 83.6596 296.114 81.7496 297.878C80.8174 298.74 80.6715 299.597 80.8932 300.793C81.3114 303.011 81.7143 305.254 81.8153 307.505C82.0723 313.105 80.0918 317.972 76.0102 321.737C71.5104 325.892 66.7483 329.765 62.0419 333.693C56.3678 338.421 50.6385 343.09 44.9141 347.764C44.0727 348.451 43.1958 349.125 42.2485 349.644C41.0088 350.321 39.9405 350.089 39.0436 349.16C38.2123 348.298 38.0158 347.023 38.6809 345.909C39.0586 345.269 39.5979 344.709 40.122 344.175C47.2724 336.838 54.4379 329.513 61.5935 322.171C62.4149 321.329 63.2462 320.482 63.9316 319.533C65.0401 318.001 64.9142 316.621 63.7049 315.455C62.4349 314.229 61.0946 314.034 59.6535 315.254C57.3505 317.204 55.1988 319.333 53.0119 321.416C46.8744 327.273 40.7619 333.152 34.6144 339.002C34.0147 339.57 33.3192 340.077 32.5936 340.474C31.7018 340.963 30.7846 340.847 30.0691 340.069C29.3788 339.318 29.1621 338.436 29.7366 337.535C30.18 336.833 30.6636 336.131 31.2431 335.548C38.5246 328.221 45.8313 320.921 53.1227 313.604C53.9543 312.772 54.8159 311.957 55.5264 311.028C56.5091 309.743 56.393 308.431 55.3702 307.384C54.3221 306.304 53.0321 306.112 51.732 306.959C50.9661 307.463 50.2556 308.078 49.5954 308.713C42.1327 315.86 34.6899 323.024 27.2321 330.173C26.5065 330.87 25.7456 331.549 24.904 332.085C23.7552 332.809 22.5911 332.693 21.8956 331.964C21.165 331.196 21.0996 330.077 21.7899 328.948C22.0921 328.454 22.4953 328.009 22.9034 327.601C30.321 320.175 37.7536 312.757 45.1761 305.336C45.8866 304.625 46.6325 303.928 47.2322 303.127C48.3104 301.705 48.2802 300.566 47.2825 299.496C46.2394 298.377 44.7379 298.11 43.3923 298.948C42.6163 299.432 41.931 300.072 41.2557 300.702C34.7403 306.769 28.2399 312.853 21.7245 318.918C20.374 320.18 19.0082 321.43 17.5723 322.589C15.8337 323.992 14.6797 323.997 13.5964 322.782C12.4474 321.5 12.4879 319.948 13.7979 318.5C18.6406 313.14 23.5031 307.801 28.3609 302.451C32.4274 297.974 36.4283 293.441 40.5706 289.034C42.9943 286.453 45.7657 284.276 49.152 283.014C54.5337 281.008 59.8651 281.21 65.0604 283.555C66.6427 284.266 67.6806 284.059 68.7993 282.838C70.4421 281.038 72.1552 279.303 73.9039 277.609C74.7453 276.798 74.6849 276.213 74.0299 275.269C70.9711 270.852 67.7915 266.497 65.0604 261.882C58.5247 250.837 53.3595 239.16 50.9812 226.477C50.3413 223.076 48.9705 221.724 45.7306 220.756C33.0271 216.949 20.5654 212.396 8.28529 207.369C6.81383 206.769 5.33742 206.109 4.002 205.267C-1.39477 201.863 -1.23873 194.16 4.42517 191.193C7.67548 189.491 11.1825 188.219 14.6595 187.008C24.642 183.535 34.6647 180.193 44.6774 176.803C45.8666 176.401 47.071 176.023 48.2953 175.731C49.4041 175.462 49.908 174.933 50.1196 173.718C52.0695 162.656 55.5114 152.073 60.384 141.949C64.118 134.199 68.7237 126.994 73.9341 120.162C74.3422 119.627 74.7303 119.078 75.1233 118.533C75.5416 117.959 75.4408 117.505 74.9118 117.006C72.3419 114.591 69.7567 112.186 67.2826 109.675C66.3101 108.686 65.4132 108.55 64.1432 108.928C60.1927 110.103 56.2118 110.133 52.2208 109.039C47.8872 107.854 44.2186 105.606 41.2658 102.223C34.9166 94.9417 28.6026 87.6309 22.2383 80.3654C18.6959 76.3216 15.078 72.3483 11.5102 68.3248C10.9559 67.6996 10.4016 67.0442 9.99847 66.3182C9.33828 65.1282 9.5753 63.9281 10.4922 63.1163C11.4045 62.3098 12.5483 62.3248 13.687 63.2374C14.2111 63.6559 14.6546 64.1653 15.1283 64.6443C20.5101 70.0694 25.8866 75.4946 31.2735 80.9148C31.747 81.3888 32.2662 81.8224 32.8153 82.2107C34.2766 83.2342 35.4155 83.1334 36.6097 81.9182C37.7385 80.7685 37.8494 79.7601 36.887 78.308C36.4283 77.6124 35.8841 76.9568 35.2995 76.3567C30.3814 71.2996 25.4432 66.2577 20.5199 61.2055C19.8195 60.4844 19.1141 59.7535 18.5043 58.9518C17.3405 57.4239 17.416 55.9365 18.6253 54.913C19.6736 54.0257 20.7821 54.1215 22.1778 55.4476C25.035 58.1702 27.8368 60.9533 30.6434 63.7265C33.6922 66.7367 36.7157 69.7668 39.7692 72.7769C40.3035 73.3063 40.893 73.7853 41.4927 74.2492C43.1758 75.5551 45.0099 75.1517 46.0632 73.2912C46.5419 72.4442 46.436 71.6376 45.9017 70.9316C45.0904 69.8626 44.2389 68.8189 43.3066 67.8609C38.6254 63.0408 33.8986 58.2609 29.2124 53.4508C28.2197 52.4323 27.2321 51.3836 26.3905 50.2339C25.5138 49.039 25.7456 47.8441 26.8139 46.8609C27.8318 45.9281 28.7085 45.8626 29.9482 46.9012C31.3641 48.0862 32.6743 49.392 33.9944 50.6877C38.6757 55.271 43.337 59.8745 48.0082 64.4627C48.2501 64.6996 48.5019 64.9165 48.7589 65.1383C50.7242 66.8374 51.7824 66.8777 53.2941 65.3248C54.6043 63.9837 54.5791 62.814 52.8657 60.9434C50.5983 58.4676 48.2047 56.103 45.8415 53.7181C43.0044 50.849 40.1371 48.0205 37.3001 45.1517C36.5342 44.3752 35.7733 43.5785 35.1435 42.6961C34.1759 41.3448 34.2315 40.4474 35.1435 39.5348C35.9446 38.7332 37.2902 38.5366 38.3886 39.2626C39.4317 39.9533 40.379 40.8004 41.3263 41.6324C46.194 45.8928 51.0316 50.1786 55.9044 54.434C61.0291 58.9113 66.1839 63.3434 71.2988 67.8256C72.6843 69.0408 74.06 70.2962 75.2846 71.6727C80.5453 77.5771 82.193 84.4343 80.1574 92.0477C79.6938 93.7922 80.0011 94.9064 81.1753 96.0511C83.8156 98.6124 86.426 101.204 89.006 103.745C92.5182 100.916 95.8791 97.9871 99.4571 95.3552C113.849 84.767 129.832 77.6173 147.197 73.5131C148.255 73.2611 149.334 72.9938 150.412 72.9382C151.914 72.8626 152.151 72.061 152.115 70.7752C152.015 67.3315 151.868 63.8829 151.994 60.4442C152.785 38.9046 161.654 21.1062 177.249 6.51457C178.952 4.92119 180.928 3.57509 182.925 2.35498C185.206 0.958239 187.742 0.423904 190.413 1.20528C193.828 2.20874 195.951 4.97158 196.072 8.69268C196.136 10.7095 196.05 12.7263 196.05 14.7431C196.057 33.0659 196.067 51.3886 196.077 69.7115C196.077 70.0492 196.106 70.3871 196.072 70.7199C195.936 71.9652 196.489 72.5299 197.719 72.7416C203.846 73.8157 209.786 75.5753 215.662 77.6124C225.958 81.1821 235.547 86.1082 244.593 92.1737C249.279 95.3199 253.637 98.8594 257.824 102.626C258.128 102.898 258.453 103.15 258.923 103.539C261.347 100.992 263.695 98.4864 266.095 96.0358C266.991 95.1131 267.055 94.231 266.507 93.0963C258.969 77.5872 264.571 55.7903 281.175 44.0526C291.006 37.1045 301.936 34.4879 313.833 35.8644C316.233 36.1415 318.655 36.6104 320.944 37.3617C330.464 40.4978 335.89 47.335 337.693 56.9955C339.377 66.0156 338.312 74.9199 335.365 83.562C332.182 92.8896 326.835 100.73 318.364 106.004C307.101 113.022 295.24 114.621 282.844 109.1C281.673 108.581 280.98 108.641 280.061 109.604C277.864 111.913 275.496 114.061 273.23 116.31C272.005 117.52 272.069 117.535 273.067 118.977C276.513 123.938 280.229 128.744 283.313 133.917C290.468 145.917 295.245 158.875 297.869 172.609C298.198 174.318 298.798 175.267 300.637 175.882C313.769 180.252 326.854 184.77 339.915 189.348C341.695 189.973 343.472 190.963 344.885 192.199C349.163 195.959 348.744 201.882 344.053 205.121C342.687 206.062 341.12 206.759 339.579 207.399C326.622 212.774 313.396 217.389 299.975 221.453C298.509 221.895 297.763 222.485 297.447 224.054C293.653 242.624 286.12 259.503 274.454 274.489C274.198 274.822 273.924 275.138 273.647 275.457C273.119 276.072 273.134 276.663 273.714 277.231C275.864 279.355 278.027 281.467 280.158 283.609C280.918 284.37 281.629 284.039 282.456 283.74C284.184 283.12 285.922 282.446 287.712 282.087C295.331 280.553 301.815 282.898 307.264 288.244C309.96 290.889 312.483 293.708 315.004 296.522C320.993 303.224 326.941 309.96 332.886 316.695C333.607 317.507 334.333 318.35 334.861 319.286C335.649 320.674 335.345 321.868 334.167 322.883C332.997 323.891 331.844 323.965 330.523 323.009C329.777 322.468 329.096 321.833 328.427 321.198C321.346 314.508 314.278 307.801 307.197 301.112C306.407 300.363 305.57 299.664 304.733 298.962C302.985 297.495 301.025 297.389 299.084 298.397C296.963 299.496 295.541 301.22 295.401 303.733C295.309 305.39 296.292 306.591 297.351 307.685C300.096 310.524 302.889 313.313 305.661 316.122C310.444 320.961 315.223 325.795 319.991 330.652C320.697 331.369 321.351 332.144 321.936 332.967C322.818 334.202 322.763 335.104 321.887 336.168C321.07 337.157 319.65 337.468 318.475 336.779C317.764 336.359 317.139 335.763 316.539 335.18C309.012 327.858 301.499 320.529 293.981 313.197C293.44 312.668 292.907 312.127 292.322 311.653C289.722 309.55 287.016 309.773 284.476 312.273C282.133 314.578 281.817 317.769 283.957 320.185C286.35 322.883 288.952 325.398 291.47 327.984C296.682 333.345 301.906 338.688 307.106 344.059C307.626 344.597 308.093 345.212 308.473 345.86C309.239 347.154 309.137 348.113 308.236 349.066C307.254 350.104 306.007 350.442 304.829 349.788C303.812 349.217 302.854 348.505 301.958 347.759C293.114 340.398 284.286 333.021 275.467 325.625C274.049 324.439 272.689 323.184 271.381 321.885C266.164 316.709 264.46 310.338 266.114 303.375C266.914 300.002 266.351 297.799 263.744 295.786C262.557 294.869 261.569 293.693 260.48 292.646C260.132 292.283 259.74 291.969 259.231 291.527ZM85.5391 203.431C85.665 203.896 85.7357 204.051 85.7458 204.212C86.6931 219.375 91.2583 233.365 99.6585 246.005C102.435 250.185 105.786 253.987 108.905 257.94C109.399 258.572 109.938 259.434 110.956 258.757C111.556 258.36 112.145 258.308 112.453 258.923C112.664 259.343 112.684 260.094 112.438 260.457C111.979 261.126 112.165 261.48 112.674 261.919C114.579 263.567 116.393 265.326 118.374 266.88C132.095 277.68 147.625 284.145 164.996 286.055C166.319 286.201 166.865 286.579 166.986 287.982C167.45 293.33 168.094 298.671 168.588 304.019C169.232 311.042 169.842 318.073 170.388 325.106C170.951 332.391 171.415 339.686 171.943 346.974C171.985 347.547 172.064 348.199 172.363 348.656C172.736 349.232 173.4 350.084 173.849 350.035C174.533 349.953 175.229 349.281 175.748 348.708C176.037 348.389 176.014 347.759 176.051 347.265C176.53 340.558 177.039 333.859 177.451 327.152C178.269 313.987 179.451 300.857 181.019 287.759C181.16 286.588 181.552 286.215 182.693 286.126C188.144 285.707 193.482 284.622 198.711 283.056C212.287 278.982 224.274 272.124 234.651 262.458C235.406 261.751 236.433 261.198 235.426 259.802C234.912 259.086 235.789 258.056 236.48 258.481C238.194 259.528 238.873 258.258 239.734 257.325C252.296 243.656 259.695 227.624 261.749 209.143C261.962 207.248 262.142 205.353 262.354 203.305C267.04 202.972 271.551 202.624 276.072 202.332C289.137 201.49 302.205 200.679 315.265 199.832C316.092 199.775 316.942 199.634 317.719 199.363C318.097 199.232 318.606 198.676 318.571 198.365C318.519 197.88 318.137 197.349 317.744 197.013C317.473 196.776 316.954 196.776 316.539 196.747C309.34 196.225 302.143 195.687 294.941 195.208C285.811 194.602 276.681 194.064 267.549 193.473C265.887 193.367 264.223 193.165 262.567 193.004C262.315 191.285 262.006 189.57 261.821 187.846C259.831 169.393 252.563 153.268 240.475 139.261C239.714 138.379 238.969 137.476 238.199 136.564C237.688 136.962 237.532 137.154 237.33 137.234C236.821 137.436 236.293 137.587 235.774 137.759C235.754 137.234 235.527 136.589 235.745 136.206C236.327 135.187 235.774 134.648 235.125 134.063C232.811 131.991 230.639 129.737 228.165 127.876C214.635 117.707 199.508 111.545 182.582 110.068C181.448 109.967 180.732 109.826 180.592 108.434C179.431 97.0746 178.177 85.725 177.014 74.3703C176.419 68.6072 175.96 62.8241 175.41 57.0558C175.34 56.3098 175.17 55.5534 174.891 54.8626C174.77 54.56 174.291 54.2979 173.941 54.2374C173.743 54.2021 173.318 54.5701 173.249 54.8273C172.968 55.876 172.674 56.94 172.573 58.0138C171.677 67.6289 170.891 77.2594 169.919 86.8644C169.183 94.1299 168.19 101.375 167.373 108.636C167.252 109.72 166.798 110.002 165.791 110.083C157.618 110.744 149.747 112.75 142.118 115.695C131.183 119.92 121.442 126.071 112.886 134.093C112.251 134.688 111.51 135.182 112.458 136.11C112.957 136.599 112.921 137.124 112.443 137.658C111.893 138.268 111.344 138.066 110.936 137.592C110.175 136.71 109.636 137.214 109.082 137.779C108.552 138.318 108.038 138.878 107.54 139.443C99.2099 148.907 93.1935 159.687 89.3486 171.676C87.2876 178.105 86.2749 184.736 85.8969 191.462C85.8364 192.52 85.6952 193.14 84.4002 193.221C77.0281 193.666 69.6609 194.209 62.2939 194.699C52.1604 195.373 42.0268 196.025 31.8932 196.695C31.3944 196.729 30.8147 196.68 30.4168 196.912C29.9733 197.169 29.4443 197.688 29.409 198.127C29.3788 198.525 29.8827 199.13 30.301 199.358C30.8703 199.659 31.5858 199.76 32.246 199.805C40.2832 200.341 48.3257 200.874 56.3679 201.349C63.2361 201.756 70.1144 202.045 76.9827 202.478C79.8298 202.666 82.6466 203.103 85.5391 203.431ZM105.831 126.702C106.713 125.925 107.474 125.285 108.205 124.604C116.67 116.733 126.386 110.854 137.048 106.503C144.295 103.548 151.808 101.532 159.568 100.422C162.057 100.064 162.163 99.9333 162.299 97.4528C162.516 93.4241 162.697 89.3955 162.889 85.372C162.929 84.5351 162.974 83.6929 162.949 82.851C162.905 81.419 162.768 81.3182 161.286 81.3836C160.954 81.399 160.616 81.4493 160.284 81.4946C145.998 83.3955 132.508 87.7366 119.759 94.4829C101.871 103.952 87.2372 117.021 76.2721 134.048C65.8111 150.293 59.8349 168.132 58.2274 187.414C58.0862 189.128 58.2474 189.279 60.0263 189.101C64.5313 188.644 69.036 188.179 73.541 187.72C76.0252 187.468 76.0756 187.418 76.2672 184.81C76.3126 184.227 76.3326 183.636 76.4133 183.051C78.429 169.044 83.211 156.046 91.0216 144.248C93.7477 140.134 96.9827 136.352 100.082 132.495C101.876 130.266 101.966 130.332 99.8904 128.27C98.8169 127.206 97.6632 126.218 96.6603 125.093C95.5165 123.817 95.5518 122.663 96.5746 121.513C97.5118 120.459 98.9077 120.258 100.193 121.181C101.14 121.861 101.951 122.728 102.788 123.55C103.786 124.539 104.738 125.572 105.831 126.702ZM242.623 126.364C243.408 125.486 244.082 124.645 244.855 123.898C245.877 122.905 246.909 121.907 248.045 121.06C249.368 120.076 250.689 120.344 251.817 121.624C252.881 122.834 252.866 123.404 251.592 124.871C250.931 125.628 250.18 126.303 249.469 127.014C245.674 130.801 245.655 129.455 249.158 133.483C255.834 141.162 261.115 149.678 265.021 159.051C268.522 167.461 271.032 176.139 271.874 185.259C272.069 187.399 272.242 187.493 274.286 187.7C277.708 188.043 281.13 188.37 284.547 188.723C285.797 188.849 287.041 189.081 288.295 189.153C289.929 189.249 289.944 189.202 289.939 187.483C289.934 186.727 289.934 185.961 289.813 185.22C289.083 180.746 288.517 176.235 287.53 171.818C283.115 152.063 274.161 134.572 260.636 119.537C243.786 100.801 222.909 88.8157 198.333 83.3248C194.494 82.4679 190.569 81.9736 186.673 81.4039C185.115 81.1771 184.915 81.3535 184.984 82.7502C185.248 88.0341 185.599 93.3132 185.888 98.5973C185.942 99.6611 186.446 99.9938 187.46 100.064C188.875 100.165 190.287 100.407 191.692 100.649C208.851 103.639 224.118 110.713 237.483 121.881C239.144 123.278 240.751 124.73 242.623 126.364ZM290.045 208.333C289.058 208.333 288.562 208.286 288.075 208.337C283.071 208.871 278.071 209.442 273.067 209.946C271.929 210.062 271.823 210.726 271.721 211.655C270.437 223.681 266.588 234.899 260.848 245.487C257.184 252.238 252.563 258.318 247.45 264.027C246.608 264.965 246.492 265.61 247.435 266.537C248.926 268.009 250.383 269.533 251.708 271.151C252.75 272.426 252.489 273.592 251.207 274.605C250.109 275.477 248.911 275.578 247.509 274.518C246.114 273.466 244.924 272.144 243.64 270.944C242.198 269.597 242.129 269.587 240.798 270.852C236.772 274.681 232.407 278.063 227.777 281.139C215.904 289.024 202.888 293.901 188.87 296.206C186.396 296.613 186.386 296.579 186.189 299.209C185.863 303.567 185.53 307.922 185.221 312.278C185.167 313.085 185.211 313.898 185.211 314.699C185.695 314.78 185.937 314.859 186.174 314.849C187.016 314.825 187.858 314.82 188.69 314.718C197.296 313.671 205.725 311.865 213.833 308.735C228.567 303.036 241.761 294.889 253.148 283.861C261.522 275.749 268.806 266.764 274.674 256.69C281.629 244.755 286.29 231.944 288.668 218.325C289.233 215.124 289.562 211.882 290.045 208.333ZM105.64 269.748C104.602 270.753 103.801 271.611 102.914 272.367C101.835 273.283 100.747 274.227 99.5427 274.958C98.4996 275.593 97.2397 275.175 96.4235 274.187C95.6826 273.288 95.6979 272.315 96.3327 271.403C96.8065 270.721 97.396 270.116 97.9755 269.513C98.963 268.483 99.9708 267.475 100.994 266.477C101.664 265.82 101.714 265.205 101.014 264.545C100.707 264.259 100.424 263.945 100.147 263.634C86.9701 248.698 78.4845 231.606 76.2721 211.635C76.1664 210.657 75.8843 210.062 74.8362 209.956C69.7466 209.437 64.6572 208.881 59.5678 208.372C59.1244 208.328 58.6558 208.533 58.2173 208.619C58.3635 210.279 58.4439 211.786 58.6355 213.278C60.127 225.022 63.3976 236.275 68.4667 246.949C78.2275 267.5 92.3417 284.375 111.48 296.816C126.481 306.566 142.868 312.631 160.712 314.558C162.929 314.8 162.993 314.785 162.843 312.51C162.531 307.735 162.103 302.972 161.815 298.192C161.73 296.793 161.115 296.285 159.81 296.191C158.726 296.109 157.658 295.852 156.585 295.65C137.562 292.055 120.838 283.886 106.698 270.571C106.406 270.284 106.053 270.067 105.64 269.748ZM298.934 104.128C299.388 104.073 299.975 104.043 300.551 103.932C307.478 102.611 313.512 99.5501 318.596 94.6243C323.344 90.0257 326.598 84.5501 328.336 78.1771C328.844 76.3115 328.442 75.3132 327.158 74.8342C325.911 74.3703 324.951 74.955 324.148 76.7601C323.711 77.7534 323.408 78.8122 322.99 79.8157C318.551 90.4241 310.952 97.1452 299.398 99.0007C298.904 99.0813 298.41 99.1922 297.936 99.3587C296.65 99.8073 295.951 100.856 296.126 102.006C296.329 103.286 297.371 104.113 298.934 104.128ZM306.743 43.982C306.049 44.0173 305.711 44.0173 305.377 44.0526C304.296 44.1734 303.212 44.2843 302.138 44.4459C291.939 45.9785 284.15 51.3584 278.148 59.5516C277.733 60.1163 277.447 60.9484 277.496 61.624C277.563 62.5264 278.007 63.4239 279.059 63.6912C280.022 63.9333 280.878 63.7821 281.548 62.9602C282.92 61.266 284.169 59.4508 285.7 57.9182C291.198 52.4172 297.931 49.5684 305.656 48.9686C306.728 48.8829 307.859 48.792 308.846 48.4039C310.3 47.834 310.532 46.3266 309.56 45.0911C308.725 44.0324 307.594 43.9113 306.743 43.982ZM69.9532 95.935C69.2629 96.6057 68.5121 97.1198 68.0586 97.8258C67.469 98.7485 67.9932 99.6107 68.6835 100.286C72.2713 103.791 75.844 107.315 79.4923 110.754C80.8275 112.014 81.0544 111.898 82.5357 110.345C83.6191 109.206 83.7149 108.727 82.6113 107.607C79.1496 104.093 75.6374 100.624 72.0999 97.1803C71.601 96.6863 70.8554 96.4444 69.9532 95.935ZM279.387 98.8241C279.247 98.3955 279.18 98.0627 279.029 97.7754C278.197 96.162 276.681 95.7888 275.331 97.0442C273.188 99.041 271.173 101.169 269.102 103.241C267.741 104.602 266.376 105.958 265.021 107.325C264.174 108.177 264.174 109.034 264.949 109.967C266.351 111.646 266.909 111.802 268.578 110.219C271.86 107.113 275.027 103.886 278.202 100.669C278.716 100.16 279.01 99.4343 279.387 98.8241ZM266.855 281.831C266.235 282.601 265.616 283.352 265.021 284.128C264.475 284.834 264.91 285.41 265.369 285.914C266.391 287.028 267.44 288.118 268.497 289.197C270.084 290.815 271.682 292.428 273.294 294.017C273.951 294.662 274.62 295.321 275.37 295.842C276.449 296.584 277.634 296.351 278.531 295.378C279.427 294.405 279.553 293.634 278.479 292.51C275.642 289.533 272.684 286.67 269.756 283.782C269.285 283.313 268.744 282.898 268.201 282.505C267.872 282.268 267.475 282.132 266.855 281.831ZM83.1102 284.78C82.3493 283.876 81.6891 282.915 80.8225 282.199C80.6159 282.026 79.6182 282.552 79.1797 282.964C76.2371 285.711 73.3344 288.515 70.4371 291.314C70.0186 291.717 69.6661 292.196 69.2982 292.656C68.6178 293.503 68.7388 294.355 69.2982 295.208C70.2053 296.579 71.7874 296.754 73.1682 295.393C76.1563 292.453 79.0486 289.407 81.9615 286.388C82.3594 285.968 82.6365 285.45 83.1102 284.78Z" fill="#F0E4D4"/>
<path d="M173.946 303.567C173.82 302.663 173.652 301.771 173.578 300.865C172.761 290.991 171.948 281.114 171.149 271.238C170.457 262.7 169.783 254.16 169.092 245.618C168.931 243.636 168.894 243.681 166.956 243.244C163.767 242.522 160.47 242.063 157.437 240.919C143.322 235.6 134.01 225.662 129.697 211.151C129.102 209.143 128.558 207.082 128.361 205.015C128.21 203.436 127.464 203.068 126.154 202.967C124.395 202.831 122.647 202.609 120.893 202.458C114.207 201.892 107.51 201.398 100.828 200.768C94.3225 200.153 87.8271 199.407 81.3317 198.696C80.591 198.617 79.8654 198.384 79.1045 197.88C81.9013 197.547 84.6928 197.194 87.4946 196.892C91.9944 196.403 96.4942 195.904 100.999 195.484C105.67 195.052 110.352 194.713 115.028 194.316C118.958 193.982 122.879 193.589 126.809 193.286C127.913 193.202 128.14 192.631 128.245 191.663C128.674 187.821 129.253 183.999 130.654 180.363C136.993 163.972 148.845 154.191 166.08 150.938C169.289 150.333 169.267 150.419 169.541 147.132C170.297 138.011 171.102 128.895 171.865 119.774C172.469 112.493 173.037 105.207 173.627 97.9266C173.667 97.4427 173.743 96.9585 174.17 96.4189C174.232 96.661 174.324 96.9031 174.343 97.1502C174.943 104.007 175.558 110.865 176.126 117.722C176.6 123.414 177.015 129.106 177.457 134.799C177.815 139.322 178.173 143.839 178.55 148.357C178.701 150.182 178.716 150.248 180.577 150.54C187.636 151.655 194.233 153.999 200.168 158.002C211.041 165.333 217.492 175.553 219.801 188.436C220.062 189.909 219.88 191.798 220.736 192.732C221.462 193.528 223.388 193.256 224.788 193.402C229.459 193.881 234.13 194.34 238.801 194.8C245.228 195.43 251.657 196.035 258.081 196.675C261.658 197.033 265.238 197.451 268.845 198.323C267.974 198.461 267.107 198.631 266.231 198.728C258.555 199.543 250.887 200.375 243.206 201.131C238.616 201.586 234.009 201.905 229.415 202.292C226.825 202.512 224.235 202.806 221.64 202.967C220.391 203.043 219.991 203.542 219.825 204.792C218.858 211.966 216.554 218.664 212.283 224.592C205.274 234.323 195.699 240.052 184.128 242.663C182.903 242.94 181.654 243.132 180.404 243.239C179.372 243.33 178.968 243.752 178.898 244.8C178.652 248.572 178.338 252.339 178.027 256.104C176.948 268.992 175.844 281.88 174.775 294.768C174.533 297.698 174.407 300.637 174.227 303.572C174.141 303.577 174.04 303.572 173.946 303.567ZM156.772 197.769C156.746 207.5 164.552 215.405 174.252 215.482C183.545 215.553 191.581 207.505 191.571 198.142C191.556 188.577 183.646 180.595 174.161 180.585C164.596 180.58 156.797 188.29 156.772 197.769ZM137.885 178.992C138.379 179.664 138.752 180.556 139.422 180.998C140.324 181.593 141.387 181.388 142.113 180.469C142.576 179.879 142.954 179.224 143.347 178.58C144.048 177.441 144.633 176.203 145.444 175.151C151.032 167.89 158.263 163.226 167.319 161.507C167.969 161.386 168.643 161.204 169.203 160.871C170.119 160.327 170.66 159.465 170.514 158.35C170.383 157.372 169.334 156.485 168.166 156.409C167.423 156.364 166.648 156.424 165.922 156.596C154.05 159.404 144.884 165.873 138.948 176.667C138.596 177.32 138.328 178.019 137.885 178.992Z" fill="#F0E4D4"/>
<path d="M126.159 239.209C129.253 239.175 131.586 241.428 131.657 244.523C131.727 247.544 129.424 249.859 126.265 249.938C123.196 250.02 121.049 247.777 121.019 244.474C120.994 241.341 123.045 239.244 126.159 239.209Z" fill="#F0E4D4"/>
<path d="M221.916 239.214C224.778 239.209 227.197 241.593 227.257 244.484C227.318 247.362 224.536 250.101 221.563 250.074C218.731 250.049 216.534 247.661 216.514 244.58C216.49 241.457 218.751 239.219 221.916 239.214Z" fill="#F0E4D4"/>
<path d="M221.81 156.031C218.818 156.041 216.697 153.863 216.67 150.762C216.645 147.626 218.909 145.347 222.013 145.387C224.859 145.423 227.343 148.029 227.343 150.974C227.338 153.576 224.662 156.021 221.81 156.031Z" fill="#F0E4D4"/>
<path d="M125.781 156.082C122.975 156.067 121.004 153.858 121.04 150.762C121.07 147.671 123.196 145.438 126.139 145.408C129.102 145.382 131.561 147.797 131.606 150.782C131.647 153.687 128.991 156.102 125.781 156.082Z" fill="#F0E4D4"/>
</svg>
