<?xml version="1.0" encoding="UTF-8"?>
<!DOCTYPE svg PUBLIC "-//W3C//DTD SVG 1.1//EN" "http://www.w3.org/Graphics/SVG/1.1/DTD/svg11.dtd">
<svg xmlns="http://www.w3.org/2000/svg" version="1.1" width="195px" height="158px" style="shape-rendering:geometricPrecision; text-rendering:geometricPrecision; image-rendering:optimizeQuality; fill-rule:evenodd; clip-rule:evenodd" xmlns:xlink="http://www.w3.org/1999/xlink">
<g><path style="opacity:1" fill="#fefefe" d="M -0.5,-0.5 C 64.5,-0.5 129.5,-0.5 194.5,-0.5C 194.5,52.1667 194.5,104.833 194.5,157.5C 129.5,157.5 64.5,157.5 -0.5,157.5C -0.5,104.833 -0.5,52.1667 -0.5,-0.5 Z"/></g>
<g><path style="opacity:1" fill="#254310" d="M 83.5,3.5 C 122.039,1.33746 149.206,17.6708 165,52.5C 174.627,83.0415 168.46,109.875 146.5,133C 121.695,154.19 94.0283,158.857 63.5,147C 28.1858,127.779 14.3525,98.2786 22,58.5C 32.2901,28.708 52.7901,10.3747 83.5,3.5 Z"/></g>
<g><path style="opacity:1" fill="#deecd5" d="M 83.5,9.5 C 120.485,6.71519 146.152,22.2152 160.5,56C 170.133,92.7763 158.799,121.11 126.5,141C 90.8989,156.015 61.0656,148.515 37,118.5C 17.3963,85.2834 20.8963,54.7834 47.5,27C 58.1436,18.1771 70.1436,12.3438 83.5,9.5 Z"/></g>
<g><path style="opacity:1" fill="#1e4205" d="M 121.5,31.5 C 121.833,31.5 122.167,31.5 122.5,31.5C 123.451,33.472 124.451,35.472 125.5,37.5C 126.183,37.1373 126.85,36.8039 127.5,36.5C 128.938,40.2736 131.605,42.6069 135.5,43.5C 135.967,46.2974 137.633,47.6308 140.5,47.5C 139.167,49.1667 139.167,50.8333 140.5,52.5C 139.876,52.9169 139.543,53.5836 139.5,54.5C 139.819,57.6445 140.819,60.4779 142.5,63C 142.167,64 141.833,65 141.5,66C 143.216,69.358 144.883,72.5247 146.5,75.5C 146.5,76.5 146.5,77.5 146.5,78.5C 145.042,78.5793 143.708,79.0793 142.5,80C 143.167,80.3333 143.833,80.6667 144.5,81C 144.274,83.2686 143.941,85.7686 143.5,88.5C 142.5,88.5 141.5,88.5 140.5,88.5C 140.15,94.9515 139.15,101.285 137.5,107.5C 135.003,113.322 131.003,117.822 125.5,121C 123.098,121.814 120.765,121.647 118.5,120.5C 122.429,116.068 126.596,111.735 131,107.5C 131.818,104.773 131.652,102.106 130.5,99.5C 123.179,105.162 115.512,110.329 107.5,115C 103.877,118.449 100.877,122.283 98.5,126.5C 97.0673,129.038 95.734,131.705 94.5,134.5C 94.4977,127.477 92.1643,121.477 87.5,116.5C 88.6888,115.571 90.0222,115.238 91.5,115.5C 92.4916,115.672 93.1583,115.338 93.5,114.5C 94.5,115.833 95.5,115.833 96.5,114.5C 103.252,112.344 106.586,107.677 106.5,100.5C 104.034,99.3659 101.367,99.1993 98.5,100C 99.6341,101.016 99.3008,101.683 97.5,102C 96.1667,102.667 94.8333,102.667 93.5,102C 92.7433,100.488 91.7433,99.1545 90.5,98C 91.4022,94.8469 90.0689,92.8469 86.5,92C 86.799,90.6796 86.9657,89.1796 87,87.5C 90.1756,87.2236 93.1756,88.2236 96,90.5C 97.2247,90.1377 98.3914,89.6377 99.5,89C 98.6634,87.9887 98.33,86.8221 98.5,85.5C 98.5,85.1667 98.5,84.8333 98.5,84.5C 101.436,86.5518 104.603,88.2185 108,89.5C 111.391,88.6491 114.557,87.3158 117.5,85.5C 119.291,87.4133 121.291,89.08 123.5,90.5C 126.286,89.0439 129.286,88.0439 132.5,87.5C 137.503,82.5051 138.503,76.8384 135.5,70.5C 133.077,69.2711 130.577,68.2711 128,67.5C 123.857,68.4907 120.024,70.1574 116.5,72.5C 115.395,71.3995 114.062,70.7329 112.5,70.5C 111.526,68.9147 110.026,67.9147 108,67.5C 105.419,68.4172 103.086,69.7505 101,71.5C 95.9273,69.3613 90.7607,69.028 85.5,70.5C 84.8333,70.5 84.1667,70.5 83.5,70.5C 83.4802,68.857 84.1468,67.5237 85.5,66.5C 83.8125,65.432 82.1459,65.5986 80.5,67C 79.8875,69.1474 79.2208,71.314 78.5,73.5C 77.8333,73.1667 77.1667,72.8333 76.5,72.5C 76.8096,62.4196 72.1429,58.4196 62.5,60.5C 61.6245,64.4616 60.9578,68.4616 60.5,72.5C 59.2101,73.0577 58.3768,74.0577 58,75.5C 57.5802,79.952 56.7468,84.2853 55.5,88.5C 58.7989,89.3761 62.1322,89.5428 65.5,89C 63.3143,88.3964 63.1476,87.2297 65,85.5C 66.3985,84.9491 67.7318,84.6158 69,84.5C 70.3575,87.2218 72.3575,89.2218 75,90.5C 76.5808,88.153 77.9141,88.153 79,90.5C 80.0665,88.7174 81.5665,88.2174 83.5,89C 83.7451,90.9114 83.7451,92.9114 83.5,95C 84.9733,95.7096 85.6399,96.8762 85.5,98.5C 84.5084,98.3284 83.8417,98.6618 83.5,99.5C 81.7406,104.629 82.4073,109.463 85.5,114C 85.1667,114.5 84.8333,115 84.5,115.5C 82.6001,113.384 80.2668,112.051 77.5,111.5C 77.6107,110.883 77.944,110.383 78.5,110C 75.7547,107.294 72.4214,105.627 68.5,105C 66.2567,102.512 64.2567,99.8456 62.5,97C 57.7205,95.6065 55.3872,97.4398 55.5,102.5C 56.6359,104.739 56.3025,106.406 54.5,107.5C 52.4121,105.401 50.7454,103.067 49.5,100.5C 48.6992,96.1028 47.6992,91.7694 46.5,87.5C 45.325,87.719 44.325,87.3857 43.5,86.5C 42.9742,84.7348 42.6408,83.0681 42.5,81.5C 42.5,79.8333 42.5,78.1667 42.5,76.5C 42.5,76.1667 42.5,75.8333 42.5,75.5C 42.5,74.1667 42.5,72.8333 42.5,71.5C 43.5,70.8333 44.5,70.1667 45.5,69.5C 46.0431,69.44 46.3764,69.1067 46.5,68.5C 44.3087,64.2094 45.642,61.0428 50.5,59C 50.1164,58.0494 49.7831,57.2161 49.5,56.5C 49.5,55.5 49.5,54.5 49.5,53.5C 50.3913,51.7095 51.3913,49.8761 52.5,48C 52.0426,47.586 51.7093,47.086 51.5,46.5C 52.6888,45.5713 54.0222,45.238 55.5,45.5C 55.6822,40.2063 56.1822,40.2063 57,45.5C 57.4652,44.0692 58.2986,42.9025 59.5,42C 62.2442,41.1965 64.9109,40.1965 67.5,39C 66.9491,37.6015 66.6158,36.2682 66.5,35C 68.2297,33.1476 69.3964,33.3143 70,35.5C 73.1398,31.0524 75.6398,30.719 77.5,34.5C 78.891,33.3554 80.2243,33.3554 81.5,34.5C 82.982,36.4829 84.6487,38.3163 86.5,40C 85.3783,44.2878 84.3783,48.9544 83.5,54C 83.899,57.4658 85.5657,60.1324 88.5,62C 92.1667,62.6667 95.8333,62.6667 99.5,62C 100.92,60.5444 102.253,59.0444 103.5,57.5C 104.738,54.8322 104.738,52.1655 103.5,49.5C 106.128,45.348 106.128,41.1814 103.5,37C 104.289,36.4536 105.289,35.7869 106.5,35C 104.661,33.8684 102.661,33.0351 100.5,32.5C 99.6143,31.675 99.281,30.675 99.5,29.5C 102.199,29.4661 104.699,30.1328 107,31.5C 107.388,30.572 108.055,29.9054 109,29.5C 112.456,31.0487 116.123,32.0487 120,32.5C 120.765,32.4301 121.265,32.0967 121.5,31.5 Z"/></g>
<g><path style="opacity:1" fill="#21410c" d="M 141.5,40.5 C 139.224,40.7565 138.057,42.0898 138,44.5C 137.329,43.7476 136.496,43.4142 135.5,43.5C 131.605,42.6069 128.938,40.2736 127.5,36.5C 126.85,36.8039 126.183,37.1373 125.5,37.5C 124.451,35.472 123.451,33.472 122.5,31.5C 124.605,27.0229 123.272,25.1896 118.5,26C 116.987,29.1385 117.987,30.9718 121.5,31.5C 121.265,32.0967 120.765,32.4301 120,32.5C 116.123,32.0487 112.456,31.0487 109,29.5C 108.055,29.9054 107.388,30.572 107,31.5C 104.699,30.1328 102.199,29.4661 99.5,29.5C 99.281,30.675 99.6143,31.675 100.5,32.5C 102.661,33.0351 104.661,33.8684 106.5,35C 105.289,35.7869 104.289,36.4536 103.5,37C 106.128,41.1814 106.128,45.348 103.5,49.5C 104.738,52.1655 104.738,54.8322 103.5,57.5C 102.253,59.0444 100.92,60.5444 99.5,62C 95.8333,62.6667 92.1667,62.6667 88.5,62C 85.5657,60.1324 83.899,57.4658 83.5,54C 84.3783,48.9544 85.3783,44.2878 86.5,40C 84.6487,38.3163 82.982,36.4829 81.5,34.5C 80.2243,33.3554 78.891,33.3554 77.5,34.5C 75.6398,30.719 73.1398,31.0524 70,35.5C 69.3964,33.3143 68.2297,33.1476 66.5,35C 66.6158,36.2682 66.9491,37.6015 67.5,39C 64.9109,40.1965 62.2442,41.1965 59.5,42C 58.2986,42.9025 57.4652,44.0692 57,45.5C 56.1822,40.2063 55.6822,40.2063 55.5,45.5C 54.0222,45.238 52.6888,45.5713 51.5,46.5C 51.7093,47.086 52.0426,47.586 52.5,48C 51.3913,49.8761 50.3913,51.7095 49.5,53.5C 47.6112,52.6201 45.6112,52.6201 43.5,53.5C 43.8693,51.0065 43.2027,50.3398 41.5,51.5C 39.5881,52.9801 38.4215,54.9801 38,57.5C 37.3457,56.3044 36.8457,56.3044 36.5,57.5C 36.8333,58.1667 37.1667,58.8333 37.5,59.5C 37.2161,62.94 36.0494,65.94 34,68.5C 33.5007,73.4889 33.3341,78.4889 33.5,83.5C 35.5273,83.3379 37.5273,83.5045 39.5,84C 37.5563,90.5568 37.5563,97.2235 39.5,104C 39.7549,105.326 40.4216,106.326 41.5,107C 39.2053,107.984 39.5386,108.817 42.5,109.5C 42.7531,112.733 44.2531,115.066 47,116.5C 47.9305,119.362 49.5971,121.695 52,123.5C 52.3988,123.272 52.5654,122.938 52.5,122.5C 53.5,122.833 54.1667,123.5 54.5,124.5C 55.5192,126.54 55.5192,128.54 54.5,130.5C 52.4084,128.395 50.0751,126.728 47.5,125.5C 37.4549,116.419 31.2883,105.086 29,91.5C 26.0331,77.5498 27.5331,64.2165 33.5,51.5C 39.3959,47.0956 43.8959,41.4289 47,34.5C 47.0995,36.6526 47.9328,38.3192 49.5,39.5C 50.8036,40.9869 51.9702,42.6536 53,44.5C 54.487,43.7471 54.6537,42.9138 53.5,42C 54.8584,41.0656 56.1917,40.2323 57.5,39.5C 58.8333,39.5 60.1667,39.5 61.5,39.5C 62.6946,39.1344 63.3613,38.301 63.5,37C 62.576,34.6271 61.076,32.7937 59,31.5C 57.699,31.6387 56.8656,32.3054 56.5,33.5C 55.8999,34.9002 54.8999,35.9002 53.5,36.5C 52.391,36.4431 51.391,36.1098 50.5,35.5C 48.8235,34.8166 48.1568,33.4832 48.5,31.5C 49.5,31.5 50.5,31.5 51.5,31.5C 53.1911,26.2017 56.3578,24.5351 61,26.5C 62.22,24.1428 63.0533,24.4761 63.5,27.5C 61.1368,29.083 61.1368,30.9164 63.5,33C 64.4368,33.6917 65.1034,33.525 65.5,32.5C 67.5273,32.6621 69.5273,32.4955 71.5,32C 74.5521,30.0651 77.8855,28.7318 81.5,28C 80.8333,27.6667 80.1667,27.3333 79.5,27C 79.7284,26.6012 80.0618,26.4346 80.5,26.5C 81.609,26.4431 82.609,26.1098 83.5,25.5C 84.1667,25.5 84.5,25.1667 84.5,24.5C 86.1667,25.8333 87.8333,25.8333 89.5,24.5C 89.7869,26.1207 90.7869,27.1207 92.5,27.5C 95.4021,25.6294 98.4021,25.2961 101.5,26.5C 105.005,29.3986 107.005,28.3986 107.5,23.5C 107.022,19.1737 105.189,18.5071 102,21.5C 101.355,20.354 100.522,19.354 99.5,18.5C 100.127,17.5832 100.461,16.5832 100.5,15.5C 103.073,14.4448 105.739,14.2782 108.5,15C 121.176,18.1977 132.176,24.3644 141.5,33.5C 141.977,34.4776 142.643,35.3109 143.5,36C 142.418,37.3297 141.751,38.8297 141.5,40.5 Z"/></g>
<g><path style="opacity:1" fill="#ecf4e6" d="M 93.5,35.5 C 103.437,36.0564 105.77,40.3897 100.5,48.5C 104.147,56.0571 101.647,60.0571 93,60.5C 84.4408,58.9511 83.2741,54.9511 89.5,48.5C 87.6048,46.1329 87.1048,43.4663 88,40.5C 89.7297,38.5981 91.563,36.9314 93.5,35.5 Z"/></g>
<g><path style="opacity:1" fill="#d4e5cb" d="M 140.5,47.5 C 143.95,46.7564 145.616,48.0897 145.5,51.5C 144.178,51.67 143.011,51.3366 142,50.5C 141.722,51.4158 141.222,52.0825 140.5,52.5C 139.167,50.8333 139.167,49.1667 140.5,47.5 Z"/></g>
<g><path style="opacity:1" fill="#284217" d="M 150.5,114.5 C 150.756,112.208 150.423,110.041 149.5,108C 151.492,107.426 152.992,106.259 154,104.5C 159.579,91.6019 160.912,78.2685 158,64.5C 156.989,63.6634 155.822,63.33 154.5,63.5C 154.737,64.791 154.404,65.791 153.5,66.5C 153.209,65.3509 152.376,64.6842 151,64.5C 149.175,64.9434 147.342,65.2767 145.5,65.5C 145.488,69.4459 147.488,71.1126 151.5,70.5C 151.5,69.5 151.5,68.5 151.5,67.5C 153.024,69.4079 154.357,71.5746 155.5,74C 154.956,75.9588 154.623,77.7921 154.5,79.5C 151.753,79.1866 149.086,79.52 146.5,80.5C 149.309,81.8003 151.976,81.8003 154.5,80.5C 155.043,80.56 155.376,80.8933 155.5,81.5C 152.674,83.4716 152.007,85.9716 153.5,89C 151.589,94.0055 150.089,99.1722 149,104.5C 148.617,103.944 148.117,103.611 147.5,103.5C 148.628,97.8576 149.628,92.1909 150.5,86.5C 148.097,86.393 146.264,87.393 145,89.5C 142.572,95.6409 140.072,101.641 137.5,107.5C 139.15,101.285 140.15,94.9515 140.5,88.5C 141.5,88.5 142.5,88.5 143.5,88.5C 143.941,85.7686 144.274,83.2686 144.5,81C 143.833,80.6667 143.167,80.3333 142.5,80C 143.708,79.0793 145.042,78.5793 146.5,78.5C 148.435,77.8505 150.435,77.5172 152.5,77.5C 152.938,73.0917 150.938,71.4251 146.5,72.5C 146.5,73.5 146.5,74.5 146.5,75.5C 144.883,72.5247 143.216,69.358 141.5,66C 141.833,65 142.167,64 142.5,63C 140.819,60.4779 139.819,57.6445 139.5,54.5C 139.543,53.5836 139.876,52.9169 140.5,52.5C 141.222,52.0825 141.722,51.4158 142,50.5C 143.011,51.3366 144.178,51.67 145.5,51.5C 145.616,48.0897 143.95,46.7564 140.5,47.5C 141.09,46.234 141.59,44.9007 142,43.5C 142.893,44.7112 143.726,44.7112 144.5,43.5C 143.812,42.1451 142.812,41.1451 141.5,40.5C 141.751,38.8297 142.418,37.3297 143.5,36C 142.643,35.3109 141.977,34.4776 141.5,33.5C 132.176,24.3644 121.176,18.1977 108.5,15C 105.739,14.2782 103.073,14.4448 100.5,15.5C 96.7948,17.2396 95.1281,20.2396 95.5,24.5C 97.4672,24.7394 99.3005,24.4061 101,23.5C 102.171,24.8932 103.671,25.7265 105.5,26C 104.207,26.49 102.873,26.6567 101.5,26.5C 98.4021,25.2961 95.4021,25.6294 92.5,27.5C 90.7869,27.1207 89.7869,26.1207 89.5,24.5C 91.2838,21.1919 90.2838,19.5253 86.5,19.5C 87.9187,18.5489 89.5853,18.2155 91.5,18.5C 91.2011,20.604 91.5344,22.604 92.5,24.5C 93.4742,22.2573 93.8076,19.924 93.5,17.5C 94.452,16.548 95.452,15.548 96.5,14.5C 85.4441,13.6786 74.7775,15.6786 64.5,20.5C 63.3861,21.723 63.2195,23.0563 64,24.5C 66.5503,24.0447 69.3837,23.7114 72.5,23.5C 72.5,24.5 72.5,25.5 72.5,26.5C 77.5123,29.2389 79.0123,27.9055 77,22.5C 76.3292,21.7476 75.4959,21.4142 74.5,21.5C 74.9175,20.7784 75.5842,20.2784 76.5,20C 79.4816,19.502 82.4816,19.3354 85.5,19.5C 84.6993,21.0418 84.366,22.7085 84.5,24.5C 84.5,25.1667 84.1667,25.5 83.5,25.5C 80.1955,24.5934 79.8622,23.0934 82.5,21C 78.0616,21.1326 77.3949,22.9659 80.5,26.5C 80.0618,26.4346 79.7284,26.6012 79.5,27C 80.1667,27.3333 80.8333,27.6667 81.5,28C 77.8855,28.7318 74.5521,30.0651 71.5,32C 69.5273,32.4955 67.5273,32.6621 65.5,32.5C 64.9759,30.6943 64.3092,29.0276 63.5,27.5C 63.0533,24.4761 62.22,24.1428 61,26.5C 56.3578,24.5351 53.1911,26.2017 51.5,31.5C 50.5,31.5 49.5,31.5 48.5,31.5C 48.1568,33.4832 48.8235,34.8166 50.5,35.5C 49.7659,36.7079 49.4326,38.0413 49.5,39.5C 47.9328,38.3192 47.0995,36.6526 47,34.5C 43.8959,41.4289 39.3959,47.0956 33.5,51.5C 51.3494,18.4146 78.6828,6.24795 115.5,15C 148.025,28.2073 163.192,52.374 161,87.5C 159.531,97.4277 156.031,106.428 150.5,114.5 Z"/></g>
<g><path style="opacity:1" fill="#beceb2" d="M 46.5,44.5 C 49.9656,45.109 50.9656,46.9423 49.5,50C 46.7629,51.0798 45.0963,50.2464 44.5,47.5C 44.9424,46.2613 45.6091,45.2613 46.5,44.5 Z"/></g>
<g><path style="opacity:1" fill="#c1d0b2" d="M 141.5,40.5 C 142.812,41.1451 143.812,42.1451 144.5,43.5C 143.726,44.7112 142.893,44.7112 142,43.5C 141.59,44.9007 141.09,46.234 140.5,47.5C 137.633,47.6308 135.967,46.2974 135.5,43.5C 136.496,43.4142 137.329,43.7476 138,44.5C 138.057,42.0898 139.224,40.7565 141.5,40.5 Z"/></g>
<g><path style="opacity:1" fill="#2a4515" d="M 93.5,39.5 C 99.0778,39.5247 100.411,41.6914 97.5,46C 91.3389,46.878 90.0055,44.7113 93.5,39.5 Z"/></g>
<g><path style="opacity:1" fill="#d1e2c6" d="M 50.5,35.5 C 51.391,36.1098 52.391,36.4431 53.5,36.5C 54.8333,37.5 56.1667,38.5 57.5,39.5C 56.1917,40.2323 54.8584,41.0656 53.5,42C 54.6537,42.9138 54.487,43.7471 53,44.5C 51.9702,42.6536 50.8036,40.9869 49.5,39.5C 49.4326,38.0413 49.7659,36.7079 50.5,35.5 Z"/></g>
<g><path style="opacity:1" fill="#c5d4bc" d="M 130.5,36.5 C 134.116,34.5564 136.116,35.5564 136.5,39.5C 135.448,39.3505 134.448,39.5172 133.5,40C 134.696,40.6543 134.696,41.1543 133.5,41.5C 131.244,40.5791 130.244,38.9124 130.5,36.5 Z"/></g>
<g><path style="opacity:1" fill="#607557" d="M 56.5,33.5 C 56.3501,37.1612 57.8501,38.1612 61,36.5C 60.8915,37.7688 61.0582,38.7688 61.5,39.5C 60.1667,39.5 58.8333,39.5 57.5,39.5C 56.1667,38.5 54.8333,37.5 53.5,36.5C 54.8999,35.9002 55.8999,34.9002 56.5,33.5 Z"/></g>
<g><path style="opacity:1" fill="#d2e0c5" d="M 130.5,36.5 C 129.5,37.8333 128.5,37.8333 127.5,36.5C 124.653,33.899 124.986,31.899 128.5,30.5C 130.241,31.2494 131.908,31.5827 133.5,31.5C 132.048,32.9397 131.048,34.6064 130.5,36.5 Z"/></g>
<g><path style="opacity:1" fill="#deecd6" d="M 61.5,39.5 C 61.0582,38.7688 60.8915,37.7688 61,36.5C 57.8501,38.1612 56.3501,37.1612 56.5,33.5C 56.8656,32.3054 57.699,31.6387 59,31.5C 61.076,32.7937 62.576,34.6271 63.5,37C 63.3613,38.301 62.6946,39.1344 61.5,39.5 Z"/></g>
<g><path style="opacity:1" fill="#222c17" d="M 127.5,32.5 C 130.001,32.5109 130.168,33.1776 128,34.5C 127.536,33.9056 127.369,33.2389 127.5,32.5 Z"/></g>
<g><path style="opacity:1" fill="#4d554b" d="M 57.5,33.5 C 59.337,33.6395 59.6704,34.3061 58.5,35.5C 57.7025,35.0431 57.3691,34.3764 57.5,33.5 Z"/></g>
<g><path style="opacity:1" fill="#dbedcf" d="M 63.5,27.5 C 64.3092,29.0276 64.9759,30.6943 65.5,32.5C 65.1034,33.525 64.4368,33.6917 63.5,33C 61.1368,30.9164 61.1368,29.083 63.5,27.5 Z"/></g>
<g><path style="opacity:1" fill="#cfe4c5" d="M 122.5,31.5 C 122.167,31.5 121.833,31.5 121.5,31.5C 117.987,30.9718 116.987,29.1385 118.5,26C 123.272,25.1896 124.605,27.0229 122.5,31.5 Z"/></g>
<g><path style="opacity:1" fill="#2b3f24" d="M 119.5,27.5 C 121.337,27.6395 121.67,28.3061 120.5,29.5C 119.702,29.0431 119.369,28.3764 119.5,27.5 Z"/></g>
<g><path style="opacity:1" fill="#d8e6ce" d="M 72.5,26.5 C 72.2993,30.35 70.4659,31.35 67,29.5C 66.8167,24.6756 68.6501,23.6756 72.5,26.5 Z"/></g>
<g><path style="opacity:1" fill="#505e46" d="M 68.5,26.5 C 70.332,27.1405 70.6653,28.1405 69.5,29.5C 68.6143,28.675 68.281,27.675 68.5,26.5 Z"/></g>
<g><path style="opacity:1" fill="#c3d4b8" d="M 74.5,21.5 C 75.4959,21.4142 76.3292,21.7476 77,22.5C 79.0123,27.9055 77.5123,29.2389 72.5,26.5C 72.5,25.5 72.5,24.5 72.5,23.5C 73.5,23.1667 74.1667,22.5 74.5,21.5 Z"/></g>
<g><path style="opacity:1" fill="#e0edd3" d="M 113.5,23.5 C 114.873,23.3433 116.207,23.51 117.5,24C 114.311,24.9808 113.978,26.3141 116.5,28C 112.707,28.4866 111.707,26.9866 113.5,23.5 Z"/></g>
<g><path style="opacity:1" fill="#dcebcd" d="M 109.5,21.5 C 110.649,21.7911 111.316,22.6244 111.5,24C 111.167,24.8333 110.833,25.6667 110.5,26.5C 109.548,24.9547 109.215,23.288 109.5,21.5 Z"/></g>
<g><path style="opacity:1" fill="#c7d9bb" d="M 85.5,19.5 C 85.8333,19.5 86.1667,19.5 86.5,19.5C 90.2838,19.5253 91.2838,21.1919 89.5,24.5C 87.8333,25.8333 86.1667,25.8333 84.5,24.5C 84.366,22.7085 84.6993,21.0418 85.5,19.5 Z"/></g>
<g><path style="opacity:1" fill="#bbc9b0" d="M 100.5,15.5 C 100.461,16.5832 100.127,17.5832 99.5,18.5C 100.522,19.354 101.355,20.354 102,21.5C 105.189,18.5071 107.022,19.1737 107.5,23.5C 107.005,28.3986 105.005,29.3986 101.5,26.5C 102.873,26.6567 104.207,26.49 105.5,26C 103.671,25.7265 102.171,24.8932 101,23.5C 99.3005,24.4061 97.4672,24.7394 95.5,24.5C 95.1281,20.2396 96.7948,17.2396 100.5,15.5 Z"/></g>
<g><path style="opacity:1" fill="#d6e8c7" d="M 83.5,25.5 C 82.609,26.1098 81.609,26.4431 80.5,26.5C 77.3949,22.9659 78.0616,21.1326 82.5,21C 79.8622,23.0934 80.1955,24.5934 83.5,25.5 Z"/></g>
<g><path style="opacity:1" fill="#e2f5d8" d="M 93.5,17.5 C 93.8076,19.924 93.4742,22.2573 92.5,24.5C 91.5344,22.604 91.2011,20.604 91.5,18.5C 91.7107,16.5759 92.3774,16.2426 93.5,17.5 Z"/></g>
<g><path style="opacity:1" fill="#1f4108" d="M 93.5,17.5 C 92.3774,16.2426 91.7107,16.5759 91.5,18.5C 89.5853,18.2155 87.9187,18.5489 86.5,19.5C 86.1667,19.5 85.8333,19.5 85.5,19.5C 82.4816,19.3354 79.4816,19.502 76.5,20C 75.5842,20.2784 74.9175,20.7784 74.5,21.5C 74.1667,22.5 73.5,23.1667 72.5,23.5C 69.3837,23.7114 66.5503,24.0447 64,24.5C 63.2195,23.0563 63.3861,21.723 64.5,20.5C 74.7775,15.6786 85.4441,13.6786 96.5,14.5C 95.452,15.548 94.452,16.548 93.5,17.5 Z"/></g>
<g><path style="opacity:1" fill="#274119" d="M 92.5,50.5 C 98.5548,49.9421 99.8881,52.1088 96.5,57C 90.6776,57.5178 89.3442,55.3511 92.5,50.5 Z"/></g>
<g><path style="opacity:1" fill="#ccdec1" d="M 49.5,53.5 C 49.5,54.5 49.5,55.5 49.5,56.5C 47.2537,55.7904 44.9204,55.2904 42.5,55C 41.6634,53.9887 41.33,52.8221 41.5,51.5C 43.2027,50.3398 43.8693,51.0065 43.5,53.5C 45.6112,52.6201 47.6112,52.6201 49.5,53.5 Z"/></g>
<g><path style="opacity:1" fill="#cedfc1" d="M 144.5,58.5 C 142.656,57.7961 142.156,56.4628 143,54.5C 144.584,53.1387 146.418,52.472 148.5,52.5C 148.895,55.5225 147.895,56.5225 145.5,55.5C 144.614,56.325 144.281,57.325 144.5,58.5 Z"/></g>
<g><path style="opacity:1" fill="#d0e0c4" d="M 150.5,60.5 C 149.618,62.3838 148.118,63.7171 146,64.5C 145.56,62.9238 144.727,61.5904 143.5,60.5C 143.863,59.8165 144.196,59.1499 144.5,58.5C 146.166,57.3336 147.833,57.3336 149.5,58.5C 145.664,61.0027 145.997,61.6694 150.5,60.5 Z"/></g>
<g><path style="opacity:1" fill="#aac997" d="M 150.5,60.5 C 150.948,58.5354 151.948,58.2021 153.5,59.5C 152.675,60.3857 151.675,60.719 150.5,60.5 Z"/></g>
<g><path style="opacity:1" fill="#244012" d="M 83.5,70.5 C 81.8793,70.7869 80.8793,71.7869 80.5,73.5C 81.4386,77.7649 81.7719,82.0983 81.5,86.5C 83.5,86.5 85.5,86.5 87.5,86.5C 87.335,83.1501 87.5017,79.8168 88,76.5C 88.6667,75.8333 89.3333,75.1667 90,74.5C 91.2444,77.6382 91.911,80.9716 92,84.5C 93.8976,86.6838 96.0642,87.0171 98.5,85.5C 98.33,86.8221 98.6634,87.9887 99.5,89C 98.3914,89.6377 97.2247,90.1377 96,90.5C 93.1756,88.2236 90.1756,87.2236 87,87.5C 86.9657,89.1796 86.799,90.6796 86.5,92C 90.0689,92.8469 91.4022,94.8469 90.5,98C 91.7433,99.1545 92.7433,100.488 93.5,102C 94.8333,102.667 96.1667,102.667 97.5,102C 99.3008,101.683 99.6341,101.016 98.5,100C 101.367,99.1993 104.034,99.3659 106.5,100.5C 102.534,101.044 98.8674,102.377 95.5,104.5C 94.8333,104.833 94.1667,105.167 93.5,105.5C 91.4509,102.45 88.7843,100.117 85.5,98.5C 85.6399,96.8762 84.9733,95.7096 83.5,95C 83.7451,92.9114 83.7451,90.9114 83.5,89C 81.5665,88.2174 80.0665,88.7174 79,90.5C 77.9141,88.153 76.5808,88.153 75,90.5C 72.3575,89.2218 70.3575,87.2218 69,84.5C 67.7318,84.6158 66.3985,84.9491 65,85.5C 63.1476,87.2297 63.3143,88.3964 65.5,89C 62.1322,89.5428 58.7989,89.3761 55.5,88.5C 56.7468,84.2853 57.5802,79.952 58,75.5C 58.3768,74.0577 59.2101,73.0577 60.5,72.5C 60.9578,68.4616 61.6245,64.4616 62.5,60.5C 72.1429,58.4196 76.8096,62.4196 76.5,72.5C 77.1667,72.8333 77.8333,73.1667 78.5,73.5C 79.2208,71.314 79.8875,69.1474 80.5,67C 82.1459,65.5986 83.8125,65.432 85.5,66.5C 84.1468,67.5237 83.4802,68.857 83.5,70.5 Z"/></g>
<g><path style="opacity:1" fill="#ccddc3" d="M 153.5,66.5 C 152.508,66.3284 151.842,66.6618 151.5,67.5C 151.5,68.5 151.5,69.5 151.5,70.5C 147.488,71.1126 145.488,69.4459 145.5,65.5C 147.342,65.2767 149.175,64.9434 151,64.5C 152.376,64.6842 153.209,65.3509 153.5,66.5 Z"/></g>
<g><path style="opacity:1" fill="#2a431a" d="M 41.5,51.5 C 41.33,52.8221 41.6634,53.9887 42.5,55C 44.9204,55.2904 47.2537,55.7904 49.5,56.5C 49.7831,57.2161 50.1164,58.0494 50.5,59C 45.642,61.0428 44.3087,64.2094 46.5,68.5C 46.3764,69.1067 46.0431,69.44 45.5,69.5C 44.5,70.1667 43.5,70.8333 42.5,71.5C 40.7949,70.9119 39.1283,70.5786 37.5,70.5C 36.5713,71.6888 36.238,73.0222 36.5,74.5C 37.8221,74.67 38.9887,74.3366 40,73.5C 40.4169,74.756 41.2502,75.4226 42.5,75.5C 42.5,75.8333 42.5,76.1667 42.5,76.5C 41.0689,76.8807 40.2355,77.8807 40,79.5C 39,76.8333 38,76.8333 37,79.5C 36.7508,78.376 36.2508,77.376 35.5,76.5C 34.5481,78.0453 34.2148,79.712 34.5,81.5C 37.1667,81.5 39.8333,81.5 42.5,81.5C 42.6408,83.0681 42.9742,84.7348 43.5,86.5C 44.325,87.3857 45.325,87.719 46.5,87.5C 47.6992,91.7694 48.6992,96.1028 49.5,100.5C 48.0499,96.8511 46.3832,93.1845 44.5,89.5C 43.1667,88.5 41.8333,87.5 40.5,86.5C 39.9107,99.9972 43.9107,111.997 52.5,122.5C 52.5654,122.938 52.3988,123.272 52,123.5C 49.5971,121.695 47.9305,119.362 47,116.5C 44.2531,115.066 42.7531,112.733 42.5,109.5C 39.5386,108.817 39.2053,107.984 41.5,107C 40.4216,106.326 39.7549,105.326 39.5,104C 37.5563,97.2235 37.5563,90.5568 39.5,84C 37.5273,83.5045 35.5273,83.3379 33.5,83.5C 33.3341,78.4889 33.5007,73.4889 34,68.5C 36.0494,65.94 37.2161,62.94 37.5,59.5C 37.1667,58.8333 36.8333,58.1667 36.5,57.5C 36.8457,56.3044 37.3457,56.3044 38,57.5C 38.4215,54.9801 39.5881,52.9801 41.5,51.5 Z"/></g>
<g><path style="opacity:1" fill="#d7e8ce" d="M 45.5,69.5 C 42.8333,69.5 40.1667,69.5 37.5,69.5C 36.4044,64.6241 38.0711,62.9574 42.5,64.5C 43.2745,66.3964 44.2745,68.063 45.5,69.5 Z"/></g>
<g><path style="opacity:1" fill="#425240" d="M 39.5,65.5 C 41.337,65.6395 41.6704,66.3061 40.5,67.5C 39.7025,67.0431 39.3691,66.3764 39.5,65.5 Z"/></g>
<g><path style="opacity:1" fill="#deeed3" d="M 39.5,56.5 C 44.4763,56.2025 46.143,58.2025 44.5,62.5C 40.0917,62.938 38.4251,60.938 39.5,56.5 Z"/></g>
<g><path style="opacity:1" fill="#394a2f" d="M 40.5,58.5 C 42.9828,58.73 43.4828,59.3966 42,60.5C 40.9701,60.1639 40.4701,59.4972 40.5,58.5 Z"/></g>
<g><path style="opacity:1" fill="#c6d4b9" d="M 42.5,71.5 C 42.5,72.8333 42.5,74.1667 42.5,75.5C 41.2502,75.4226 40.4169,74.756 40,73.5C 38.9887,74.3366 37.8221,74.67 36.5,74.5C 36.238,73.0222 36.5713,71.6888 37.5,70.5C 39.1283,70.5786 40.7949,70.9119 42.5,71.5 Z"/></g>
<g><path style="opacity:1" fill="#f0f7ea" d="M 60.5,72.5 C 62.2671,70.2084 63.2671,67.5418 63.5,64.5C 66.5,64.5 69.5,64.5 72.5,64.5C 74.703,71.7761 76.703,79.1094 78.5,86.5C 76.5,86.5 74.5,86.5 72.5,86.5C 72.67,85.1779 72.3366,84.0113 71.5,83C 68.854,82.5026 66.1873,82.3359 63.5,82.5C 63.5,83.8333 63.5,85.1667 63.5,86.5C 61.5,86.5 59.5,86.5 57.5,86.5C 58.5028,81.8273 59.5028,77.1606 60.5,72.5 Z"/></g>
<g><path style="opacity:1" fill="#c1d3b6" d="M 146.5,78.5 C 146.5,77.5 146.5,76.5 146.5,75.5C 146.5,74.5 146.5,73.5 146.5,72.5C 150.938,71.4251 152.938,73.0917 152.5,77.5C 150.435,77.5172 148.435,77.8505 146.5,78.5 Z"/></g>
<g><path style="opacity:1" fill="#38452d" d="M 67.5,70.5 C 68.9422,72.5396 69.9422,74.873 70.5,77.5C 68.9547,78.4519 67.288,78.7852 65.5,78.5C 65.8583,75.7334 66.525,73.0667 67.5,70.5 Z"/></g>
<g><path style="opacity:1" fill="#eaf3e5" d="M 83.5,70.5 C 84.1667,70.5 84.8333,70.5 85.5,70.5C 85.7828,71.2891 86.2828,71.9558 87,72.5C 90.4046,69.9232 93.738,69.9232 97,72.5C 97.3042,76.5483 97.8042,80.5483 98.5,84.5C 98.5,84.8333 98.5,85.1667 98.5,85.5C 96.0642,87.0171 93.8976,86.6838 92,84.5C 91.911,80.9716 91.2444,77.6382 90,74.5C 89.3333,75.1667 88.6667,75.8333 88,76.5C 87.5017,79.8168 87.335,83.1501 87.5,86.5C 85.5,86.5 83.5,86.5 81.5,86.5C 81.7719,82.0983 81.4386,77.7649 80.5,73.5C 80.8793,71.7869 81.8793,70.7869 83.5,70.5 Z"/></g>
<g><path style="opacity:1" fill="#d5eac9" d="M 42.5,76.5 C 42.5,78.1667 42.5,79.8333 42.5,81.5C 39.8333,81.5 37.1667,81.5 34.5,81.5C 34.2148,79.712 34.5481,78.0453 35.5,76.5C 36.2508,77.376 36.7508,78.376 37,79.5C 38,76.8333 39,76.8333 40,79.5C 40.2355,77.8807 41.0689,76.8807 42.5,76.5 Z"/></g>
<g><path style="opacity:1" fill="#d6e6c8" d="M 154.5,79.5 C 154.5,79.8333 154.5,80.1667 154.5,80.5C 151.976,81.8003 149.309,81.8003 146.5,80.5C 149.086,79.52 151.753,79.1866 154.5,79.5 Z"/></g>
<g><path style="opacity:1" fill="#2a4319" d="M 112.5,70.5 C 103.465,69.5886 99.6319,73.5886 101,82.5C 105.212,88.2044 110.212,88.871 116,84.5C 117.757,80.5397 117.923,76.5397 116.5,72.5C 120.024,70.1574 123.857,68.4907 128,67.5C 130.577,68.2711 133.077,69.2711 135.5,70.5C 138.503,76.8384 137.503,82.5051 132.5,87.5C 129.286,88.0439 126.286,89.0439 123.5,90.5C 121.291,89.08 119.291,87.4133 117.5,85.5C 114.557,87.3158 111.391,88.6491 108,89.5C 104.603,88.2185 101.436,86.5518 98.5,84.5C 97.8042,80.5483 97.3042,76.5483 97,72.5C 93.738,69.9232 90.4046,69.9232 87,72.5C 86.2828,71.9558 85.7828,71.2891 85.5,70.5C 90.7607,69.028 95.9273,69.3613 101,71.5C 103.086,69.7505 105.419,68.4172 108,67.5C 110.026,67.9147 111.526,68.9147 112.5,70.5 Z"/></g>
<g><path style="opacity:1" fill="#f1f7eb" d="M 122.5,70.5 C 125.833,70.5 129.167,70.5 132.5,70.5C 132.5,71.8333 132.5,73.1667 132.5,74.5C 130.105,73.6365 127.771,73.6365 125.5,74.5C 128.052,76.369 130.552,78.369 133,80.5C 133.63,82.9034 132.797,84.7367 130.5,86C 127.183,86.4983 123.85,86.665 120.5,86.5C 120.238,85.0222 120.571,83.6888 121.5,82.5C 123.516,83.7059 125.516,83.7059 127.5,82.5C 125.573,80.8981 123.406,79.5647 121,78.5C 120.109,75.5024 120.609,72.8357 122.5,70.5 Z"/></g>
<g><path style="opacity:1" fill="#eef5e8" d="M 112.5,70.5 C 114.062,70.7329 115.395,71.3995 116.5,72.5C 117.923,76.5397 117.757,80.5397 116,84.5C 110.212,88.871 105.212,88.2044 101,82.5C 99.6319,73.5886 103.465,69.5886 112.5,70.5 Z"/></g>
<g><path style="opacity:1" fill="#274019" d="M 107.5,74.5 C 108.833,74.5 110.167,74.5 111.5,74.5C 111.664,77.1873 111.497,79.854 111,82.5C 107.697,83.6953 106.197,82.362 106.5,78.5C 106.623,77.0755 106.957,75.7421 107.5,74.5 Z"/></g>
<g><path style="opacity:1" fill="#f3f7ee" d="M 85.5,98.5 C 88.7843,100.117 91.4509,102.45 93.5,105.5C 94.5552,108.073 94.7218,110.739 94,113.5C 93,112.167 92,110.833 91,109.5C 90.7506,111.668 91.5839,113.335 93.5,114.5C 93.1583,115.338 92.4916,115.672 91.5,115.5C 85.1288,112.091 82.4621,106.758 83.5,99.5C 83.8417,98.6618 84.5084,98.3284 85.5,98.5 Z"/></g>
<g><path style="opacity:1" fill="#eef4e9" d="M 106.5,100.5 C 106.586,107.677 103.252,112.344 96.5,114.5C 96.2865,112.856 96.6198,111.356 97.5,110C 95.8078,108.599 95.1412,106.766 95.5,104.5C 98.8674,102.377 102.534,101.044 106.5,100.5 Z"/></g>
<g><path style="opacity:1" fill="#254113" d="M 77.5,111.5 C 71.1995,108.677 65.5328,104.844 60.5,100C 59.5509,99.3828 58.7175,99.5494 58,100.5C 57.2571,103.783 57.9238,106.783 60,109.5C 64.8287,112.485 68.3287,116.485 70.5,121.5C 66.8691,121.84 63.5358,121.006 60.5,119C 54.8898,113.94 51.2232,107.773 49.5,100.5C 50.7454,103.067 52.4121,105.401 54.5,107.5C 56.3025,106.406 56.6359,104.739 55.5,102.5C 55.3872,97.4398 57.7205,95.6065 62.5,97C 64.2567,99.8456 66.2567,102.512 68.5,105C 72.4214,105.627 75.7547,107.294 78.5,110C 77.944,110.383 77.6107,110.883 77.5,111.5 Z"/></g>
<g><path style="opacity:1" fill="#f6f9f4" d="M 49.5,100.5 C 51.2232,107.773 54.8898,113.94 60.5,119C 63.5358,121.006 66.8691,121.84 70.5,121.5C 68.3287,116.485 64.8287,112.485 60,109.5C 57.9238,106.783 57.2571,103.783 58,100.5C 58.7175,99.5494 59.5509,99.3828 60.5,100C 65.5328,104.844 71.1995,108.677 77.5,111.5C 83.6129,115.343 88.1129,120.676 91,127.5C 91.4983,130.817 91.665,134.15 91.5,137.5C 77.2177,138.518 64.8844,134.185 54.5,124.5C 54.1667,123.5 53.5,122.833 52.5,122.5C 43.9107,111.997 39.9107,99.9972 40.5,86.5C 41.8333,87.5 43.1667,88.5 44.5,89.5C 46.3832,93.1845 48.0499,96.8511 49.5,100.5 Z"/></g>
<g><path style="opacity:1" fill="#f7faf4" d="M 147.5,103.5 C 142.205,119.794 131.538,130.794 115.5,136.5C 109.523,137.165 103.523,137.498 97.5,137.5C 97.423,133.785 97.7564,130.119 98.5,126.5C 100.877,122.283 103.877,118.449 107.5,115C 115.512,110.329 123.179,105.162 130.5,99.5C 131.652,102.106 131.818,104.773 131,107.5C 126.596,111.735 122.429,116.068 118.5,120.5C 120.765,121.647 123.098,121.814 125.5,121C 131.003,117.822 135.003,113.322 137.5,107.5C 140.072,101.641 142.572,95.6409 145,89.5C 146.264,87.393 148.097,86.393 150.5,86.5C 149.628,92.1909 148.628,97.8576 147.5,103.5 Z"/></g>
<g><path style="opacity:1" fill="#a8b3a2" d="M 95.5,104.5 C 95.1412,106.766 95.8078,108.599 97.5,110C 96.6198,111.356 96.2865,112.856 96.5,114.5C 95.5,115.833 94.5,115.833 93.5,114.5C 91.5839,113.335 90.7506,111.668 91,109.5C 92,110.833 93,112.167 94,113.5C 94.7218,110.739 94.5552,108.073 93.5,105.5C 94.1667,105.167 94.8333,104.833 95.5,104.5 Z"/></g>
<g><path style="opacity:1" fill="#254113" d="M 83.5,99.5 C 82.4621,106.758 85.1288,112.091 91.5,115.5C 90.0222,115.238 88.6888,115.571 87.5,116.5C 92.1643,121.477 94.4977,127.477 94.5,134.5C 95.734,131.705 97.0673,129.038 98.5,126.5C 97.7564,130.119 97.423,133.785 97.5,137.5C 103.523,137.498 109.523,137.165 115.5,136.5C 115.938,136.435 116.272,136.601 116.5,137C 113.623,138.127 110.623,138.794 107.5,139C 97.8162,139.168 88.1495,139.668 78.5,140.5C 83.793,143.025 89.4597,144.025 95.5,143.5C 99.5,143.333 103.5,143.167 107.5,143C 110.923,141.096 114.59,140.263 118.5,140.5C 113.882,142.869 108.882,144.369 103.5,145C 81.3327,148.113 62.666,141.613 47.5,125.5C 50.0751,126.728 52.4084,128.395 54.5,130.5C 55.5192,128.54 55.5192,126.54 54.5,124.5C 64.8844,134.185 77.2177,138.518 91.5,137.5C 91.665,134.15 91.4983,130.817 91,127.5C 88.1129,120.676 83.6129,115.343 77.5,111.5C 80.2668,112.051 82.6001,113.384 84.5,115.5C 84.8333,115 85.1667,114.5 85.5,114C 82.4073,109.463 81.7406,104.629 83.5,99.5 Z"/></g>
<g><path style="opacity:1" fill="#204109" d="M 150.5,114.5 C 143.166,127.158 132.5,135.824 118.5,140.5C 114.59,140.263 110.923,141.096 107.5,143C 103.5,143.167 99.5,143.333 95.5,143.5C 89.4597,144.025 83.793,143.025 78.5,140.5C 88.1495,139.668 97.8162,139.168 107.5,139C 110.623,138.794 113.623,138.127 116.5,137C 116.272,136.601 115.938,136.435 115.5,136.5C 131.538,130.794 142.205,119.794 147.5,103.5C 148.117,103.611 148.617,103.944 149,104.5C 150.089,99.1722 151.589,94.0055 153.5,89C 152.007,85.9716 152.674,83.4716 155.5,81.5C 155.376,80.8933 155.043,80.56 154.5,80.5C 154.5,80.1667 154.5,79.8333 154.5,79.5C 154.623,77.7921 154.956,75.9588 155.5,74C 154.357,71.5746 153.024,69.4079 151.5,67.5C 151.842,66.6618 152.508,66.3284 153.5,66.5C 154.404,65.791 154.737,64.791 154.5,63.5C 155.822,63.33 156.989,63.6634 158,64.5C 160.912,78.2685 159.579,91.6019 154,104.5C 152.992,106.259 151.492,107.426 149.5,108C 150.423,110.041 150.756,112.208 150.5,114.5 Z"/></g>
</svg>
