<svg width="116" height="49" viewBox="0 0 116 49" fill="none" xmlns="http://www.w3.org/2000/svg">
<path d="M32.5406 34.7853C32.2941 35.0052 32.0698 35.2202 31.8306 35.4165C30.363 36.619 28.71 37.4371 26.8459 37.8117C26.5501 37.8711 26.5505 37.8703 26.5505 38.1669C26.5505 38.5656 26.5482 38.9647 26.5491 39.3633C26.5505 39.9484 26.3843 40.4959 26.1695 41.0304C25.9433 41.5936 25.6744 42.1359 25.3287 42.6363C25.2475 42.754 25.1571 42.8672 25.0576 42.9693C24.7 43.3379 24.1843 43.3398 23.8328 42.9626C23.6876 42.8067 23.5662 42.6248 23.45 42.4448C23.0766 41.8664 22.7928 41.2435 22.5768 40.5902C22.4531 40.2168 22.3872 39.8329 22.3857 39.4387C22.3838 38.9921 22.3781 38.5456 22.3767 38.099C22.3757 37.8558 22.3757 37.8659 22.1478 37.805C21.587 37.655 21.0189 37.524 20.4724 37.3324C18.9967 36.8152 17.6777 36.0288 16.5469 34.9389C16.5182 34.911 16.4872 34.8857 16.4604 34.8566C16.3821 34.7729 16.3156 34.7877 16.2397 34.8667C16.0687 35.0446 15.8952 35.2207 15.7141 35.3881C15.6258 35.4699 15.6119 35.5513 15.6329 35.6647C15.6726 35.8753 15.7108 36.0882 15.7204 36.3017C15.7448 36.8332 15.557 37.2949 15.17 37.6524C14.7434 38.0466 14.2919 38.4145 13.8457 38.7872C13.3078 39.236 12.7646 39.6789 12.2219 40.1225C12.1422 40.1878 12.059 40.2516 11.9692 40.301C11.8517 40.3652 11.7504 40.3433 11.6653 40.255C11.5865 40.1733 11.5679 40.0523 11.6309 39.9465C11.6668 39.8856 11.7179 39.8325 11.7676 39.7821C12.4455 39.0857 13.1248 38.3904 13.8032 37.6936C13.8811 37.6138 13.9599 37.5333 14.0249 37.4434C14.13 37.2979 14.1181 37.1669 14.0034 37.0562C13.883 36.9399 13.7559 36.9214 13.6193 37.0372C13.401 37.2222 13.197 37.4241 12.9896 37.622C12.4078 38.1777 11.8283 38.7356 11.2454 39.291C11.1886 39.3448 11.1226 39.393 11.0538 39.4305C10.9693 39.4773 10.8824 39.4662 10.8145 39.3923C10.749 39.321 10.7285 39.2371 10.783 39.1517C10.825 39.0853 10.8709 39.0185 10.9258 38.9632C11.6162 38.2679 12.3089 37.5752 13.0002 36.8806C13.079 36.8016 13.1607 36.7242 13.228 36.6361C13.3212 36.5141 13.3102 36.3897 13.2132 36.2903C13.1139 36.1878 12.9916 36.1695 12.8683 36.2499C12.7957 36.2978 12.7283 36.3561 12.6657 36.4164C11.9582 37.0946 11.2526 37.7745 10.5455 38.4531C10.4768 38.5192 10.4046 38.5838 10.3248 38.6346C10.2159 38.7033 10.1055 38.6922 10.0396 38.6231C9.97033 38.55 9.96414 38.4438 10.0296 38.3369C10.0582 38.2898 10.0964 38.2478 10.1351 38.2089C10.8384 37.5043 11.543 36.8002 12.2467 36.0959C12.3141 36.0284 12.3848 35.9623 12.4417 35.8863C12.5439 35.7513 12.541 35.6432 12.4465 35.5417C12.3476 35.4354 12.2052 35.4101 12.0776 35.4896C12.0041 35.5355 11.9391 35.5963 11.8751 35.6561C11.2574 36.2319 10.6411 36.8093 10.0234 37.3848C9.89536 37.5047 9.76587 37.6235 9.62974 37.7333C9.4649 37.8666 9.35549 37.867 9.2528 37.7515C9.14384 37.6298 9.14769 37.4828 9.27188 37.3454C9.73103 36.8365 10.192 36.3299 10.6525 35.822C11.0381 35.3972 11.4174 34.967 11.8101 34.5488C12.0399 34.3038 12.3026 34.0972 12.6237 33.9774C13.1339 33.787 13.6394 33.8063 14.1319 34.0288C14.2819 34.0963 14.3803 34.0766 14.4864 33.9608C14.6421 33.7898 14.8045 33.6252 14.9703 33.4644C15.0501 33.3875 15.0444 33.332 14.9823 33.2424C14.6923 32.8232 14.3908 32.4099 14.1319 31.9719C13.5123 30.9237 13.0226 29.8155 12.7971 28.6118C12.7364 28.289 12.6065 28.1607 12.2993 28.0688C11.0949 27.7075 9.91348 27.2754 8.74925 26.7983C8.60976 26.7413 8.46978 26.6788 8.34318 26.5988C7.83152 26.2757 7.84631 25.5447 8.38332 25.2631C8.69144 25.1016 9.02395 24.9809 9.35357 24.866C10.3 24.5363 11.2502 24.2191 12.1995 23.8975C12.3122 23.8593 12.4264 23.8234 12.5425 23.7957C12.6476 23.7702 12.6954 23.72 12.7154 23.6046C12.9003 22.5549 13.2266 21.5504 13.6886 20.5896C14.0426 19.8541 14.4792 19.1703 14.9732 18.5219C15.0119 18.4712 15.0487 18.419 15.0859 18.3674C15.1256 18.3128 15.1161 18.2697 15.0659 18.2224C14.8222 17.9932 14.5772 17.7649 14.3426 17.5266C14.2504 17.4328 14.1653 17.4199 14.0449 17.4558C13.6704 17.5673 13.293 17.5701 12.9147 17.4663C12.5038 17.3539 12.156 17.1404 11.876 16.8194C11.2741 16.1284 10.6755 15.4345 10.0721 14.745C9.73625 14.3612 9.39326 13.9841 9.055 13.6023C9.00245 13.5429 8.9499 13.4808 8.91169 13.4119C8.84909 13.2989 8.87155 13.185 8.9585 13.108C9.045 13.0314 9.15344 13.0329 9.26139 13.1195C9.31106 13.1592 9.35312 13.2075 9.39804 13.253C9.90825 13.7679 10.418 14.2827 10.9287 14.7971C10.9736 14.8421 11.0228 14.8833 11.0748 14.9201C11.2134 15.0173 11.3214 15.0077 11.4346 14.8924C11.5416 14.7833 11.5521 14.6876 11.4609 14.5497C11.4174 14.4837 11.3658 14.4215 11.3104 14.3645C10.8441 13.8846 10.3759 13.4061 9.90918 12.9266C9.84277 12.8582 9.77591 12.7888 9.71809 12.7128C9.60776 12.5677 9.61492 12.4266 9.72955 12.3294C9.82894 12.2452 9.93405 12.2543 10.0664 12.3802C10.3372 12.6385 10.6029 12.9027 10.8689 13.1659C11.158 13.4516 11.4446 13.7391 11.7342 14.0248C11.7848 14.0751 11.8407 14.1205 11.8976 14.1645C12.0571 14.2885 12.231 14.2502 12.3308 14.0736C12.3762 13.9933 12.3662 13.9167 12.3155 13.8497C12.2386 13.7483 12.1579 13.6492 12.0695 13.5583C11.6257 13.1008 11.1776 12.6472 10.7333 12.1907C10.6392 12.094 10.5455 11.9945 10.4658 11.8854C10.3826 11.772 10.4046 11.6585 10.5059 11.5653C10.6024 11.4767 10.6855 11.4705 10.803 11.5691C10.9373 11.6815 11.0615 11.8055 11.1867 11.9284C11.6305 12.3634 12.0724 12.8003 12.5153 13.2358C12.5382 13.2583 12.5621 13.2788 12.5864 13.2999C12.7727 13.4611 12.8731 13.4649 13.0164 13.3176C13.1406 13.1903 13.1382 13.0793 12.9758 12.9017C12.7608 12.6668 12.5339 12.4424 12.3098 12.216C12.0409 11.9438 11.769 11.6753 11.5 11.403C11.4274 11.3294 11.3553 11.2537 11.2956 11.17C11.2039 11.0417 11.2091 10.9566 11.2956 10.87C11.3716 10.7939 11.4991 10.7752 11.6033 10.8441C11.7021 10.9097 11.7919 10.9901 11.8818 11.069C12.3433 11.4734 12.8019 11.8801 13.2639 12.284C13.7497 12.7089 14.2384 13.1295 14.7234 13.5549C14.8547 13.6702 14.9851 13.7894 15.1012 13.92C15.6 14.4804 15.7562 15.1312 15.5632 15.8537C15.5192 16.0193 15.5484 16.125 15.6597 16.2337C15.91 16.4767 16.1575 16.7227 16.4021 16.9638C16.7351 16.6954 17.0537 16.4174 17.3929 16.1676C18.7573 15.1628 20.2727 14.4842 21.919 14.0947C22.0193 14.0708 22.1215 14.0454 22.2238 14.0401C22.3661 14.0329 22.3886 13.9569 22.3853 13.8349C22.3757 13.508 22.3619 13.1807 22.3738 12.8544C22.4488 10.8101 23.2896 9.12098 24.7681 7.73617C24.9296 7.58494 25.1169 7.45721 25.3062 7.34139C25.5225 7.20883 25.7629 7.15812 26.0162 7.23229C26.3399 7.32751 26.5412 7.58973 26.5526 7.9429C26.5587 8.1343 26.5505 8.3257 26.5505 8.51709C26.5512 10.256 26.5522 11.9949 26.5531 13.7339C26.5531 13.7659 26.5559 13.798 26.5526 13.8296C26.5398 13.9478 26.5922 14.0014 26.7088 14.0215C27.2897 14.1234 27.8529 14.2904 28.41 14.4837C29.386 14.8225 30.2951 15.29 31.1528 15.8657C31.597 16.1642 32.0101 16.5002 32.4071 16.8576C32.4359 16.8835 32.4668 16.9074 32.5113 16.9442C32.7411 16.7026 32.9638 16.4648 33.1913 16.2322C33.2762 16.1446 33.2823 16.0609 33.2303 15.9533C32.5157 14.4813 33.0468 12.4127 34.621 11.2987C35.553 10.6393 36.5892 10.391 37.717 10.5216C37.9446 10.5479 38.1744 10.5924 38.3912 10.6637C39.294 10.9613 39.8084 11.6103 39.9792 12.5271C40.139 13.3831 40.0378 14.2282 39.7583 15.0484C39.4567 15.9336 38.9497 16.6777 38.1466 17.1783C37.0789 17.8443 35.9544 17.996 34.7792 17.472C34.6682 17.4228 34.6025 17.4285 34.5154 17.5199C34.3071 17.7391 34.0826 17.9429 33.8677 18.1563C33.7516 18.2712 33.7577 18.2726 33.8523 18.4095C34.179 18.8803 34.5313 19.3363 34.8236 19.8273C35.502 20.9662 35.9549 22.196 36.2037 23.4994C36.2348 23.6616 36.2917 23.7516 36.4661 23.81C37.7111 24.2247 38.9515 24.6536 40.1897 25.088C40.3587 25.1473 40.527 25.2413 40.6611 25.3586C41.0666 25.7154 41.0269 26.2776 40.5822 26.585C40.4529 26.6743 40.3043 26.7404 40.1579 26.8011C38.9297 27.3113 37.6759 27.7493 36.4034 28.1349C36.2643 28.1769 36.1936 28.2329 36.1637 28.3818C35.8039 30.1441 35.0898 31.7461 33.9838 33.1683C33.9595 33.2 33.9335 33.23 33.9073 33.2602C33.8572 33.3186 33.8586 33.3746 33.9136 33.4285C34.1175 33.6302 34.3225 33.8306 34.5245 34.0339C34.5966 34.1061 34.664 34.0747 34.7424 34.0463C34.9063 33.9875 35.0711 33.9235 35.2408 33.8895C35.9631 33.7439 36.5778 33.9664 37.0944 34.4737C37.3498 34.7248 37.5892 34.9923 37.8282 35.2594C38.396 35.8954 38.9597 36.5348 39.5234 37.1739C39.5919 37.2511 39.6605 37.3309 39.7109 37.4197C39.7854 37.5514 39.7565 37.6647 39.6449 37.7612C39.5341 37.857 39.4248 37.864 39.2995 37.7731C39.2288 37.7218 39.1643 37.6617 39.1009 37.6012C38.4294 36.9664 37.7593 36.3299 37.0881 35.695C37.0131 35.6239 36.9338 35.5576 36.8544 35.491C36.6887 35.3518 36.5029 35.3417 36.3189 35.4373C36.1178 35.5417 35.983 35.7053 35.9696 35.9437C35.961 36.101 36.0541 36.215 36.1546 36.3188C36.4148 36.5882 36.6796 36.8529 36.9424 37.1195C37.3957 37.5789 37.849 38.0377 38.3011 38.4984C38.3678 38.5663 38.4301 38.6402 38.4853 38.7182C38.5691 38.8355 38.5639 38.9209 38.4809 39.0222C38.4034 39.1157 38.2685 39.1454 38.1573 39.0801C38.0899 39.04 38.0306 38.9836 37.9739 38.9283C37.2601 38.2334 36.5478 37.5377 35.8351 36.8419C35.7838 36.7917 35.7332 36.7404 35.6777 36.6954C35.4313 36.4959 35.1748 36.517 34.9339 36.7542C34.7118 36.973 34.6818 37.276 34.8847 37.505C35.1115 37.7612 35.3582 37.9999 35.597 38.2452C36.0911 38.7542 36.5864 39.2613 37.0792 39.7709C37.1289 39.8222 37.173 39.8804 37.2089 39.9417C37.2816 40.0646 37.2719 40.1555 37.1867 40.2461C37.0933 40.3444 36.9752 40.3767 36.8635 40.3148C36.7671 40.2606 36.6763 40.193 36.5913 40.1221C35.7529 39.4235 34.9158 38.7234 34.0798 38.0214C33.9454 37.9089 33.8164 37.7898 33.6924 37.6665C33.1978 37.1754 33.0363 36.5707 33.1931 35.9097C33.269 35.5897 33.2156 35.3806 32.9684 35.1895C32.8558 35.1025 32.7622 34.9909 32.659 34.8915C32.626 34.857 32.5888 34.8273 32.5406 34.7853ZM16.0734 26.4246C16.0853 26.4687 16.0921 26.4835 16.093 26.4987C16.1828 27.9378 16.6156 29.2654 17.412 30.4651C17.6753 30.8618 17.993 31.2226 18.2887 31.5977C18.3355 31.6578 18.3866 31.7396 18.4831 31.6753C18.5399 31.6376 18.5958 31.6327 18.625 31.691C18.6451 31.7309 18.647 31.8022 18.6236 31.8366C18.5801 31.9002 18.5978 31.9337 18.646 31.9754C18.8266 32.1318 18.9986 32.2988 19.1863 32.4462C20.4872 33.4712 21.9596 34.0848 23.6064 34.266C23.7319 34.2798 23.7836 34.3157 23.7951 34.4489C23.8391 34.9565 23.9002 35.4633 23.947 35.9709C24.0081 36.6375 24.0659 37.3046 24.1176 37.972C24.171 38.6636 24.215 39.3559 24.2651 40.0475C24.2691 40.1021 24.2766 40.1637 24.3049 40.2071C24.3402 40.2617 24.4032 40.3426 24.4458 40.3381C24.5106 40.3303 24.5766 40.2665 24.6258 40.2123C24.6532 40.1819 24.6511 40.1221 24.6546 40.0753C24.7 39.4387 24.7482 38.8028 24.7873 38.1662C24.8648 36.9169 24.9769 35.6709 25.1255 34.4278C25.1389 34.3167 25.1761 34.2813 25.2842 34.2728C25.801 34.233 26.3071 34.13 26.8029 33.9814C28.09 33.5948 29.2264 32.944 30.2102 32.0266C30.2818 31.9595 30.3792 31.907 30.2837 31.7745C30.235 31.7065 30.3181 31.6088 30.3836 31.6491C30.5461 31.7485 30.6104 31.628 30.6921 31.5394C31.8831 30.2421 32.5845 28.7206 32.7793 26.9667C32.7994 26.7868 32.8165 26.607 32.8366 26.4126C33.2809 26.381 33.7086 26.3479 34.1371 26.3203C35.3758 26.2403 36.6147 26.1634 37.8531 26.083C37.9313 26.0776 38.012 26.0643 38.0854 26.0385C38.1214 26.0261 38.1696 25.9733 38.1662 25.9438C38.1614 25.8978 38.1251 25.8474 38.088 25.8155C38.0621 25.793 38.0132 25.793 37.9739 25.7902C37.2912 25.7407 36.6089 25.6896 35.9261 25.6441C35.0605 25.5867 34.1949 25.5356 33.3291 25.4796C33.1716 25.4695 33.0138 25.4502 32.8568 25.435C32.8329 25.2718 32.8036 25.1091 32.7861 24.9455C32.5974 23.1942 31.9083 21.6638 30.7623 20.3346C30.6903 20.2508 30.6196 20.1651 30.5465 20.0785C30.4981 20.1163 30.4833 20.1345 30.4641 20.1422C30.4159 20.1613 30.3658 20.1756 30.3167 20.1919C30.3148 20.1422 30.2933 20.0809 30.3139 20.0445C30.3691 19.9479 30.3167 19.8967 30.2551 19.8412C30.0358 19.6445 29.8298 19.4306 29.5953 19.254C28.3126 18.2889 26.8785 17.7041 25.2737 17.5639C25.1663 17.5544 25.0984 17.541 25.085 17.4089C24.975 16.3308 24.8561 15.2537 24.7459 14.176C24.6895 13.6291 24.6459 13.0803 24.5937 12.5328C24.5872 12.462 24.571 12.3902 24.5446 12.3247C24.5331 12.2959 24.4877 12.271 24.4545 12.2653C24.4357 12.262 24.3955 12.2969 24.3889 12.3213C24.3622 12.4208 24.3344 12.5218 24.3248 12.6237C24.2398 13.5363 24.1654 14.4502 24.0732 15.3618C24.0034 16.0513 23.9093 16.739 23.8318 17.428C23.8204 17.5309 23.7773 17.5577 23.6818 17.5654C22.907 17.628 22.1607 17.8185 21.4374 18.098C20.4008 18.4989 19.4773 19.0828 18.6661 19.844C18.6059 19.9005 18.5357 19.9474 18.6255 20.0354C18.6728 20.0819 18.6694 20.1317 18.6241 20.1824C18.572 20.2403 18.5199 20.2211 18.4812 20.1762C18.4091 20.0924 18.3579 20.1403 18.3054 20.1938C18.2552 20.2451 18.2065 20.2981 18.1592 20.3517C17.3695 21.2499 16.7991 22.273 16.4346 23.4109C16.2392 24.021 16.1432 24.6503 16.1074 25.2887C16.1016 25.3891 16.0882 25.4479 15.9655 25.4556C15.2665 25.4978 14.5681 25.5494 13.8696 25.5958C12.9089 25.6598 11.9482 25.7217 10.9874 25.7853C10.9402 25.7886 10.8852 25.7838 10.8475 25.8059C10.8054 25.8303 10.7553 25.8795 10.7519 25.9212C10.749 25.959 10.7969 26.0164 10.8365 26.038C10.8905 26.0666 10.9583 26.0762 11.0209 26.0804C11.7829 26.1313 12.5453 26.182 13.3078 26.227C13.959 26.2656 14.6111 26.2931 15.2622 26.3341C15.5321 26.3519 15.7992 26.3934 16.0734 26.4246ZM17.9972 19.1426C18.0808 19.0689 18.153 19.0081 18.2223 18.9435C19.0249 18.1965 19.946 17.6386 20.9568 17.2256C21.6438 16.9452 22.3561 16.7538 23.0918 16.6485C23.3278 16.6146 23.3379 16.6021 23.3508 16.3667C23.3713 15.9844 23.3885 15.602 23.4067 15.2201C23.4105 15.1407 23.4147 15.0608 23.4124 14.9809C23.4082 14.845 23.3952 14.8354 23.2547 14.8416C23.2232 14.8431 23.1912 14.8479 23.1597 14.8522C21.8053 15.0326 20.5264 15.4446 19.3177 16.0848C17.6218 16.9835 16.2344 18.2238 15.1949 19.8397C14.2031 21.3815 13.6365 23.0745 13.4841 24.9044C13.4707 25.0671 13.486 25.0814 13.6546 25.0646C14.0817 25.0212 14.5088 24.9771 14.9359 24.9335C15.1714 24.9096 15.1762 24.9049 15.1944 24.6573C15.1987 24.602 15.2006 24.546 15.2082 24.4904C15.3994 23.1611 15.8527 21.9275 16.5932 20.8078C16.8516 20.4173 17.1584 20.0584 17.4521 19.6924C17.6222 19.4808 17.6309 19.4871 17.434 19.2913C17.3323 19.1904 17.2228 19.0966 17.1278 18.9899C17.0193 18.8688 17.0227 18.7592 17.1197 18.6501C17.2085 18.5501 17.3408 18.531 17.4627 18.6186C17.5525 18.6832 17.6294 18.7655 17.7087 18.8435C17.8033 18.9373 17.8936 19.0354 17.9972 19.1426ZM30.966 19.1105C31.0404 19.0272 31.1043 18.9473 31.1776 18.8765C31.2745 18.7822 31.3723 18.6875 31.48 18.6071C31.6054 18.5138 31.7307 18.5392 31.8376 18.6607C31.9385 18.7755 31.9371 18.8296 31.8164 18.9688C31.7536 19.0406 31.6825 19.1047 31.615 19.1722C31.2553 19.5316 31.2534 19.4038 31.5855 19.7862C32.2185 20.5149 32.7192 21.3231 33.0894 22.2127C33.4213 23.0109 33.6594 23.8344 33.7392 24.7C33.7577 24.903 33.7741 24.9119 33.9679 24.9316C34.2923 24.9642 34.6167 24.9952 34.9407 25.0287C35.0591 25.0406 35.1771 25.0627 35.296 25.0695C35.4509 25.0786 35.4523 25.0742 35.4519 24.911C35.4514 24.8393 35.4514 24.7666 35.4399 24.6962C35.3707 24.2717 35.3171 23.8435 35.2234 23.4243C34.8049 21.5495 33.9559 19.8895 32.6738 18.4626C31.0762 16.6844 29.097 15.547 26.7671 15.0259C26.4031 14.9445 26.0309 14.8976 25.6615 14.8435C25.5138 14.8221 25.4949 14.8388 25.5014 14.9713C25.5265 15.4728 25.5597 15.9738 25.5871 16.4753C25.5923 16.5763 25.64 16.6078 25.7362 16.6145C25.8703 16.6241 26.0042 16.6471 26.1374 16.6701C27.7642 16.9538 29.2117 17.6252 30.4786 18.6851C30.6362 18.8176 30.7885 18.9555 30.966 19.1105ZM35.4619 26.8898C35.3683 26.8898 35.3213 26.8853 35.2752 26.8902C34.8007 26.9409 34.3267 26.995 33.8523 27.0428C33.7444 27.0539 33.7343 27.1169 33.7247 27.2051C33.603 28.3464 33.2381 29.411 32.6939 30.4159C32.3465 31.0566 31.9083 31.6336 31.4236 32.1754C31.3438 32.2645 31.3327 32.3257 31.4222 32.4136C31.5636 32.5533 31.7016 32.698 31.8274 32.8516C31.9261 32.9725 31.9013 33.0832 31.7798 33.1794C31.6757 33.2621 31.5622 33.2717 31.4292 33.1711C31.2969 33.0713 31.1841 32.9458 31.0624 32.8319C30.9257 32.7041 30.9191 32.7032 30.793 32.8232C30.4112 33.1866 29.9974 33.5076 29.5585 33.7995C28.4329 34.5478 27.1989 35.0106 25.8699 35.2294C25.6353 35.2681 25.6344 35.2648 25.6157 35.5145C25.5847 35.928 25.5532 36.3414 25.5239 36.7547C25.5187 36.8314 25.523 36.9085 25.523 36.9845C25.5688 36.9922 25.5918 36.9997 25.6142 36.9988C25.6941 36.9964 25.7739 36.9959 25.8528 36.9863C26.6687 36.8869 27.4678 36.7156 28.2365 36.4185C29.6334 35.8776 30.8843 35.1044 31.9638 34.0578C32.7578 33.2879 33.4482 32.4352 34.0046 31.4791C34.664 30.3465 35.1059 29.1306 35.3313 27.8381C35.3849 27.5343 35.4161 27.2267 35.4619 26.8898ZM17.9791 32.7184C17.8807 32.8138 17.8047 32.8952 17.7206 32.9669C17.6184 33.0539 17.5152 33.1435 17.4011 33.2129C17.3022 33.2731 17.1827 33.2335 17.1053 33.1397C17.0351 33.0544 17.0365 32.962 17.0967 32.8755C17.1416 32.8108 17.1975 32.7533 17.2525 32.6961C17.3461 32.5984 17.4417 32.5027 17.5386 32.408C17.6022 32.3456 17.6069 32.2873 17.5405 32.2247C17.5114 32.1975 17.4846 32.1677 17.4584 32.1381C16.2091 30.7207 15.4046 29.0985 15.1949 27.2032C15.1848 27.1104 15.1581 27.0539 15.0587 27.0438C14.5762 26.9945 14.0937 26.9418 13.6112 26.8935C13.5691 26.8893 13.5247 26.9088 13.4831 26.917C13.497 27.0745 13.5046 27.2175 13.5228 27.3591C13.6642 28.4737 13.9743 29.5416 14.4549 30.5547C15.3802 32.505 16.7183 34.1066 18.5328 35.2873C19.955 36.2126 21.5086 36.7882 23.2003 36.9711C23.4105 36.9941 23.4166 36.9927 23.4024 36.7767C23.3727 36.3236 23.3322 35.8715 23.3049 35.4179C23.2968 35.2852 23.2385 35.2369 23.1148 35.228C23.0121 35.2202 22.9108 35.1958 22.809 35.1766C21.0056 34.8355 19.42 34.0602 18.0794 32.7965C18.0517 32.7693 18.0183 32.7487 17.9791 32.7184ZM36.3046 17.0003C36.3477 16.9949 36.4034 16.9921 36.4579 16.9816C37.1148 16.8562 37.6867 16.5658 38.1688 16.0982C38.6187 15.6618 38.9275 15.1422 39.092 14.5373C39.1402 14.3603 39.102 14.2655 38.9804 14.2201C38.8622 14.176 38.7711 14.2315 38.6951 14.4028C38.6536 14.4971 38.625 14.5976 38.5854 14.6928C38.1644 15.6996 37.4439 16.3375 36.3486 16.5136C36.3018 16.5212 36.255 16.5317 36.21 16.5476C36.0881 16.5901 36.0219 16.6897 36.0385 16.7988C36.0577 16.9203 36.1564 16.9988 36.3046 17.0003ZM37.0449 11.292C36.9792 11.2954 36.9471 11.2954 36.9155 11.2987C36.813 11.3102 36.7102 11.3207 36.6084 11.336C35.6415 11.4815 34.903 11.9921 34.334 12.7697C34.2946 12.8233 34.2675 12.9022 34.2722 12.9663C34.2785 13.052 34.3206 13.1372 34.4203 13.1625C34.5116 13.1855 34.5929 13.1712 34.6563 13.0932C34.7864 12.9324 34.9049 12.7601 35.05 12.6146C35.5713 12.0926 36.2096 11.8222 36.942 11.7653C37.0435 11.7571 37.1508 11.7485 37.2445 11.7117C37.3824 11.6576 37.4043 11.5145 37.312 11.3973C37.233 11.2968 37.1256 11.2853 37.0449 11.292ZM14.5958 16.2226C14.5304 16.2863 14.4592 16.3351 14.4162 16.4021C14.3602 16.4897 14.4099 16.5715 14.4754 16.6356C14.8155 16.9682 15.1543 17.3026 15.5002 17.629C15.6267 17.7486 15.6483 17.7376 15.7887 17.5902C15.8914 17.4821 15.9005 17.4367 15.7959 17.3304C15.4677 16.9969 15.1347 16.6677 14.7993 16.3408C14.752 16.2939 14.6813 16.271 14.5958 16.2226ZM34.4515 16.4968C34.4381 16.4562 34.4318 16.4246 34.4175 16.3973C34.3387 16.2442 34.1949 16.2088 34.0669 16.3279C33.8637 16.5174 33.6727 16.7194 33.4763 16.916C33.3474 17.0452 33.218 17.1739 33.0894 17.3036C33.0092 17.3845 33.0091 17.4658 33.0826 17.5544C33.2156 17.7137 33.2685 17.7285 33.4267 17.5783C33.7378 17.2835 34.0381 16.9773 34.3391 16.672C34.3878 16.6237 34.4157 16.5547 34.4515 16.4968ZM33.2633 33.8651C33.2046 33.9383 33.1458 34.0095 33.0894 34.0831C33.0377 34.1502 33.0789 34.2048 33.1224 34.2526C33.2194 34.3584 33.3188 34.4618 33.419 34.5642C33.5695 34.7178 33.7209 34.8709 33.8738 35.0216C33.9361 35.0829 33.9995 35.1454 34.0706 35.1949C34.1729 35.2652 34.2853 35.2432 34.3702 35.1508C34.4552 35.0585 34.4672 34.9853 34.3654 34.8786C34.0964 34.5961 33.816 34.3244 33.5384 34.0503C33.4937 34.0058 33.4424 33.9664 33.3909 33.9291C33.3598 33.9066 33.3221 33.8937 33.2633 33.8651ZM15.8432 34.145C15.771 34.0592 15.7084 33.968 15.6263 33.9C15.6067 33.8836 15.5121 33.9336 15.4705 33.9727C15.1915 34.2334 14.9163 34.4995 14.6416 34.7652C14.602 34.8034 14.5686 34.8488 14.5337 34.8925C14.4692 34.9729 14.4807 35.0537 14.5337 35.1346C14.6197 35.2648 14.7697 35.2814 14.9006 35.1522C15.1839 34.8732 15.4581 34.5842 15.7342 34.2977C15.772 34.2578 15.7982 34.2086 15.8432 34.145Z" fill="#F2E6D8"/>
<path d="M24.4549 35.928C24.443 35.8422 24.4271 35.7576 24.4201 35.6715C24.3426 34.7344 24.2656 33.7971 24.1897 32.8598C24.1242 32.0495 24.0603 31.239 23.9948 30.4283C23.9796 30.2403 23.976 30.2445 23.7923 30.203C23.4899 30.1345 23.1774 30.0909 22.8898 29.9824C21.5516 29.4776 20.6688 28.5344 20.2598 27.1572C20.2034 26.9666 20.1519 26.7711 20.1332 26.5749C20.1189 26.4251 20.0482 26.3901 19.924 26.3805C19.7572 26.3676 19.5915 26.3465 19.4252 26.3322C18.7913 26.2785 18.1564 26.2316 17.5229 26.1719C16.9062 26.1135 16.2903 26.0427 15.6745 25.9752C15.6043 25.9677 15.5355 25.9456 15.4634 25.8978C15.7285 25.8661 15.9932 25.8326 16.2588 25.804C16.6854 25.7576 17.112 25.7102 17.5391 25.6704C17.982 25.6293 18.4258 25.5972 18.8691 25.5595C19.2418 25.5278 19.6135 25.4905 19.9861 25.4617C20.0907 25.4537 20.1122 25.3996 20.1222 25.3077C20.1629 24.9431 20.2178 24.5804 20.3506 24.2353C20.9516 22.6797 22.0752 21.7514 23.7092 21.4427C24.0135 21.3853 24.0114 21.3935 24.0374 21.0815C24.109 20.2158 24.1853 19.3507 24.2576 18.485C24.315 17.7941 24.3688 17.1026 24.4247 16.4117C24.4285 16.3657 24.4357 16.3197 24.4762 16.2686C24.4821 16.2915 24.4907 16.3145 24.4926 16.3379C24.5495 16.9887 24.6078 17.6395 24.6616 18.2903C24.7065 18.8305 24.7459 19.3708 24.7878 19.911C24.8217 20.3402 24.8557 20.769 24.8915 21.1977C24.9057 21.371 24.9072 21.3772 25.0836 21.4049C25.7528 21.5107 26.3783 21.7332 26.941 22.1131C27.9718 22.8089 28.5834 23.7788 28.8023 25.0015C28.8271 25.1412 28.8098 25.3206 28.891 25.4092C28.9598 25.4847 29.1424 25.4589 29.2751 25.4727C29.7179 25.5182 30.1608 25.5618 30.6036 25.6054C31.2129 25.6652 31.8225 25.7227 32.4315 25.7834C32.7707 25.8174 33.1101 25.857 33.452 25.9397C33.3694 25.9529 33.2872 25.9691 33.2042 25.9782C32.4764 26.0556 31.7494 26.1346 31.0212 26.2063C30.5861 26.2494 30.1493 26.2797 29.7137 26.3165C29.4682 26.3374 29.2226 26.3653 28.9766 26.3805C28.8582 26.3878 28.8203 26.4351 28.8046 26.5538C28.7128 27.2346 28.4945 27.8702 28.0896 28.4329C27.425 29.3564 26.5173 29.9001 25.4202 30.1479C25.3041 30.1742 25.1857 30.1924 25.0673 30.2025C24.9694 30.2112 24.931 30.2513 24.9245 30.3507C24.9011 30.7087 24.8713 31.0662 24.8418 31.4235C24.7396 32.6467 24.6349 33.8698 24.5336 35.0929C24.5106 35.3709 24.4987 35.65 24.4816 35.9285C24.4734 35.929 24.4638 35.9285 24.4549 35.928ZM22.8267 25.8872C22.8243 26.8107 23.5643 27.561 24.484 27.5683C25.365 27.575 26.1269 26.8112 26.1259 25.9226C26.1245 25.0148 25.3746 24.2573 24.4753 24.2564C23.5685 24.2559 22.8291 24.9877 22.8267 25.8872ZM21.0362 24.1052C21.083 24.169 21.1183 24.2536 21.1818 24.2955C21.2674 24.3521 21.3681 24.3326 21.437 24.2454C21.4809 24.1893 21.5168 24.1272 21.554 24.066C21.6204 23.958 21.6759 23.8405 21.7528 23.7406C22.2825 23.0515 22.9681 22.6089 23.8267 22.4457C23.8882 22.4342 23.9522 22.417 24.0053 22.3854C24.0921 22.3338 24.1434 22.2519 24.1296 22.1462C24.1172 22.0533 24.0177 21.9691 23.907 21.9619C23.8365 21.9576 23.763 21.9634 23.6942 21.9797C22.5687 22.2462 21.6997 22.8601 21.137 23.8846C21.1035 23.9464 21.0782 24.0128 21.0362 24.1052Z" fill="#F2E6D8"/>
<path d="M19.9243 29.8201C20.2176 29.8168 20.4389 30.0307 20.4455 30.3244C20.4522 30.6112 20.2339 30.8308 19.9344 30.8383C19.6434 30.8461 19.4399 30.6332 19.437 30.3197C19.4346 30.0224 19.6291 29.8234 19.9243 29.8201Z" fill="#F2E6D8"/>
<path d="M29.0029 29.8206C29.2742 29.8201 29.5035 30.0464 29.5092 30.3207C29.515 30.5938 29.2512 30.8538 28.9694 30.8513C28.7009 30.8489 28.4926 30.6222 28.4907 30.3298C28.4884 30.0335 28.7028 29.8211 29.0029 29.8206Z" fill="#F2E6D8"/>
<path d="M28.9927 21.9261C28.709 21.927 28.5079 21.7203 28.5054 21.426C28.5031 21.1284 28.7177 20.9121 29.0119 20.9159C29.2818 20.9193 29.5173 21.1667 29.5173 21.4461C29.5168 21.693 29.2631 21.9251 28.9927 21.9261Z" fill="#F2E6D8"/>
<path d="M19.8886 21.9308C19.6225 21.9294 19.4357 21.7198 19.439 21.426C19.4419 21.1327 19.6435 20.9207 19.9225 20.9178C20.2034 20.9154 20.4365 21.1446 20.4408 21.4279C20.4447 21.7035 20.1929 21.9328 19.8886 21.9308Z" fill="#F2E6D8"/>
<path d="M52.1489 20.9252C52.5862 20.9252 52.9234 20.9735 53.1606 21.07C53.3978 21.1591 53.6016 21.2556 53.7721 21.3595C53.8611 21.4115 53.9315 21.4523 53.9834 21.482C54.0427 21.5043 54.0982 21.5155 54.1501 21.5155C54.2243 21.5155 54.2761 21.4746 54.3058 21.393C54.3428 21.3113 54.3725 21.1888 54.3947 21.0255H54.6505C54.643 21.1665 54.6319 21.3373 54.6171 21.5377C54.6097 21.7308 54.6023 21.9869 54.5949 22.3061C54.5949 22.6254 54.5949 23.0448 54.5949 23.5645H54.3391C54.3095 23.1785 54.2205 22.8036 54.0723 22.4398C53.9241 22.076 53.7128 21.779 53.4386 21.5489C53.1717 21.3113 52.8419 21.1925 52.449 21.1925C52.0933 21.1925 51.8005 21.2927 51.5707 21.4932C51.3409 21.6936 51.226 21.972 51.226 22.3284C51.226 22.6254 51.3002 22.8815 51.4484 23.0968C51.5967 23.3047 51.8116 23.5089 52.0933 23.7093C52.3823 23.9098 52.7307 24.1511 53.1384 24.4332C53.4942 24.6633 53.8129 24.8935 54.0945 25.1236C54.3762 25.3538 54.6023 25.6136 54.7728 25.9032C54.9432 26.1927 55.0285 26.538 55.0285 26.9389C55.0285 27.4289 54.8988 27.8335 54.6393 28.1527C54.3873 28.472 54.0538 28.7133 53.6387 28.8766C53.2236 29.0325 52.7678 29.1105 52.2712 29.1105C51.8116 29.1105 51.4447 29.0659 51.1705 28.9768C50.8962 28.8877 50.6664 28.7949 50.4811 28.6984C50.3181 28.5945 50.1921 28.5425 50.1031 28.5425C50.029 28.5425 49.9734 28.5833 49.9363 28.665C49.9067 28.7467 49.8807 28.8692 49.8585 29.0325H49.6028C49.6176 28.8543 49.625 28.6464 49.625 28.4089C49.6324 28.1713 49.6361 27.8632 49.6361 27.4845C49.6436 27.0985 49.6473 26.6122 49.6473 26.0257H49.903C49.9326 26.5157 50.0142 26.976 50.1476 27.4066C50.2884 27.8298 50.4997 28.1713 50.7813 28.4311C51.0704 28.691 51.4521 28.8209 51.9265 28.8209C52.1859 28.8209 52.4157 28.7764 52.6158 28.6873C52.8234 28.5908 52.9901 28.4497 53.1161 28.2641C53.2421 28.0785 53.3051 27.8483 53.3051 27.5736C53.3051 27.2618 53.231 26.9908 53.0828 26.7607C52.942 26.5305 52.7455 26.3152 52.4935 26.1148C52.2489 25.9143 51.9636 25.7101 51.6374 25.5023C51.289 25.2721 50.9629 25.042 50.659 24.8118C50.3551 24.5817 50.1105 24.3181 49.9252 24.0211C49.7473 23.7242 49.6584 23.3715 49.6584 22.9632C49.6584 22.4955 49.7733 22.1131 50.003 21.8161C50.2402 21.5117 50.5478 21.289 50.9259 21.148C51.3113 20.9995 51.719 20.9252 52.1489 20.9252ZM57.2855 29.0325C56.9519 29.0325 56.674 28.9694 56.4516 28.8432C56.2292 28.717 56.0662 28.5499 55.9624 28.342C55.8586 28.1267 55.8067 27.8929 55.8067 27.6405C55.8067 27.3212 55.8772 27.0614 56.018 26.8609C56.1662 26.6605 56.3552 26.4971 56.585 26.3709C56.8148 26.2447 57.0557 26.1408 57.3077 26.0591C57.5671 25.9774 57.8117 25.8995 58.0415 25.8252C58.2787 25.7436 58.4677 25.6508 58.6085 25.5468C58.7568 25.4355 58.8309 25.2944 58.8309 25.1236V24.255C58.8309 24.062 58.7975 23.8912 58.7308 23.7427C58.6715 23.5868 58.5752 23.468 58.4418 23.3864C58.3158 23.3047 58.149 23.2639 57.9414 23.2639C57.7932 23.2639 57.645 23.2861 57.4967 23.3307C57.3485 23.3678 57.2262 23.4346 57.1298 23.5311C57.3374 23.6054 57.4967 23.7205 57.6079 23.8764C57.7265 24.0248 57.7858 24.1956 57.7858 24.3886C57.7858 24.6411 57.6968 24.8415 57.5189 24.99C57.3485 25.1385 57.1446 25.2127 56.9075 25.2127C56.6406 25.2127 56.4368 25.1311 56.2959 24.9677C56.1625 24.797 56.0958 24.5928 56.0958 24.3552C56.0958 24.1399 56.1477 23.9617 56.2515 23.8207C56.3627 23.6796 56.5146 23.546 56.7073 23.4198C56.9149 23.301 57.1632 23.2082 57.4522 23.1414C57.7487 23.0745 58.0675 23.0411 58.4084 23.0411C58.7494 23.0411 59.057 23.0783 59.3312 23.1525C59.6055 23.2193 59.8352 23.3455 60.0205 23.5311C60.191 23.7019 60.3022 23.9135 60.3541 24.1659C60.406 24.4109 60.4319 24.7227 60.4319 25.1014V28.1305C60.4319 28.3161 60.4505 28.446 60.4875 28.5202C60.5246 28.587 60.5876 28.6205 60.6765 28.6205C60.7432 28.6205 60.8062 28.6019 60.8655 28.5648C60.9322 28.5276 61.0027 28.4831 61.0768 28.4311L61.188 28.6205C61.0323 28.7541 60.8507 28.858 60.6432 28.9323C60.443 28.9991 60.217 29.0325 59.965 29.0325C59.6907 29.0325 59.472 28.9954 59.309 28.9211C59.1459 28.8395 59.0273 28.7318 58.9532 28.5982C58.8865 28.4645 58.8531 28.3086 58.8531 28.1305C58.6752 28.4126 58.4603 28.6353 58.2083 28.7986C57.9563 28.9545 57.6487 29.0325 57.2855 29.0325ZM58.0749 28.3198C58.2231 28.3198 58.3565 28.2864 58.4751 28.2195C58.6011 28.1453 58.7197 28.0265 58.8309 27.8632V25.5802C58.7642 25.6916 58.6715 25.7918 58.5529 25.8809C58.4344 25.97 58.3083 26.0628 58.1749 26.1593C58.0415 26.2484 57.9118 26.3486 57.7858 26.46C57.6672 26.5714 57.5708 26.7087 57.4967 26.872C57.4226 27.0354 57.3855 27.2321 57.3855 27.4623C57.3855 27.7518 57.4485 27.9671 57.5745 28.1082C57.7006 28.2492 57.8673 28.3198 58.0749 28.3198ZM65.3191 23.0411C65.8973 23.0411 66.3753 23.2787 66.7534 23.7539C67.1388 24.2216 67.3315 24.9455 67.3315 25.9255C67.3315 26.6976 67.2129 27.3175 66.9757 27.7852C66.746 28.253 66.4384 28.5908 66.0529 28.7986C65.6675 29.0065 65.245 29.1105 64.7854 29.1105C64.4815 29.1105 64.1999 29.0585 63.9405 28.9545C63.681 28.8506 63.4587 28.6798 63.2734 28.4423L63.429 28.3866C63.5624 28.5499 63.7181 28.6724 63.896 28.7541C64.0813 28.8358 64.2629 28.8766 64.4408 28.8766C64.8484 28.8766 65.1523 28.6464 65.3525 28.1861C65.5526 27.7258 65.6527 27.0242 65.6527 26.0814C65.6527 25.4429 65.6119 24.938 65.5304 24.5668C65.4562 24.1882 65.3451 23.9209 65.1968 23.765C65.0486 23.6017 64.8707 23.52 64.6631 23.52C64.4037 23.52 64.1665 23.6277 63.9516 23.843C63.7366 24.0508 63.6143 24.3441 63.5847 24.7227L63.5291 24.333C63.6625 23.9098 63.8886 23.5905 64.2073 23.3752C64.526 23.1525 64.8966 23.0411 65.3191 23.0411ZM63.618 20.2459V28.7318C63.4327 28.7021 63.2437 28.7021 63.051 28.7318C62.8583 28.7615 62.6804 28.8135 62.5173 28.8877C62.3543 28.9545 62.2171 29.0362 62.106 29.1327L61.9392 29.0325C61.9688 28.9286 61.9874 28.8246 61.9948 28.7207C62.0096 28.6167 62.017 28.5128 62.017 28.4089V21.5823C62.017 21.2482 61.9651 21.0032 61.8614 20.8473C61.765 20.6839 61.5797 20.6023 61.3054 20.6023V20.3684C61.5426 20.3907 61.7724 20.4018 61.9948 20.4018C62.2987 20.4018 62.5877 20.3907 62.862 20.3684C63.1362 20.3387 63.3883 20.2979 63.618 20.2459ZM70.8886 23.0411C71.4297 23.0411 71.9041 23.1414 72.3117 23.3418C72.7194 23.5423 73.0381 23.8652 73.2679 24.3107C73.4977 24.7561 73.6126 25.3464 73.6126 26.0814C73.6126 26.8164 73.4977 27.4066 73.2679 27.852C73.0381 28.2901 72.7194 28.6093 72.3117 28.8098C71.9041 29.0102 71.4297 29.1105 70.8886 29.1105C70.3623 29.1105 69.8917 29.0102 69.4766 28.8098C69.0689 28.6093 68.7465 28.2901 68.5093 27.852C68.2795 27.4066 68.1646 26.8164 68.1646 26.0814C68.1646 25.3464 68.2795 24.7561 68.5093 24.3107C68.7465 23.8652 69.0689 23.5423 69.4766 23.3418C69.8917 23.1414 70.3623 23.0411 70.8886 23.0411ZM70.8886 23.2639C70.5921 23.2639 70.3438 23.4866 70.1437 23.932C69.9436 24.3701 69.8435 25.0865 69.8435 26.0814C69.8435 27.0762 69.9436 27.7927 70.1437 28.2307C70.3438 28.6687 70.5921 28.8877 70.8886 28.8877C71.1925 28.8877 71.4408 28.6687 71.6335 28.2307C71.8337 27.7927 71.9337 27.0762 71.9337 26.0814C71.9337 25.0865 71.8337 24.3701 71.6335 23.932C71.4408 23.4866 71.1925 23.2639 70.8886 23.2639ZM78.1314 23.0411C78.3686 23.0411 78.5613 23.0931 78.7095 23.197C78.8578 23.2936 78.9652 23.4198 79.0319 23.5757C79.1061 23.7316 79.1431 23.8949 79.1431 24.0657C79.1431 24.3404 79.0616 24.5668 78.8985 24.745C78.7429 24.9158 78.5353 25.0011 78.2759 25.0011C78.0165 25.0011 77.8127 24.938 77.6644 24.8118C77.5236 24.6782 77.4532 24.5037 77.4532 24.2884C77.4532 24.0805 77.4976 23.9098 77.5866 23.7761C77.6829 23.6351 77.8015 23.5163 77.9424 23.4198C77.8386 23.3901 77.7348 23.3938 77.6311 23.4309C77.4902 23.4532 77.3568 23.5126 77.2308 23.6091C77.1048 23.6982 76.9973 23.8133 76.9084 23.9543C76.8194 24.088 76.749 24.2364 76.6971 24.3998C76.6452 24.5557 76.6193 24.7079 76.6193 24.8564V27.8075C76.6193 28.1639 76.7045 28.4052 76.875 28.5314C77.0529 28.6576 77.316 28.7207 77.6644 28.7207V28.9545C77.4939 28.9471 77.2456 28.9397 76.9195 28.9323C76.5934 28.9174 76.2524 28.91 75.8966 28.91C75.6001 28.91 75.2999 28.9174 74.996 28.9323C74.6921 28.9397 74.4624 28.9471 74.3067 28.9545V28.7207C74.5661 28.7207 74.7477 28.665 74.8515 28.5536C74.9627 28.4423 75.0183 28.2307 75.0183 27.9189V24.4109C75.0183 24.0768 74.9664 23.8318 74.8626 23.6759C74.7663 23.5126 74.581 23.4309 74.3067 23.4309V23.197C74.5439 23.2193 74.7737 23.2305 74.996 23.2305C75.3073 23.2305 75.5964 23.2193 75.8633 23.197C76.1375 23.1673 76.3895 23.1265 76.6193 23.0745V24.1102C76.7082 23.9098 76.8268 23.7279 76.9751 23.5645C77.1233 23.4012 77.2938 23.275 77.4865 23.1859C77.6792 23.0894 77.8942 23.0411 78.1314 23.0411ZM82.8989 21.0477C83.1879 21.0477 83.4214 21.07 83.5993 21.1145C83.7772 21.1517 83.9291 21.2073 84.0552 21.2816C84.1738 21.3336 84.2812 21.4004 84.3776 21.482C84.4814 21.5637 84.5666 21.6639 84.6333 21.7827C84.7 21.9015 84.7334 22.0352 84.7334 22.1836C84.7334 22.4064 84.6481 22.5845 84.4776 22.7182C84.3072 22.8518 84.107 22.9186 83.8773 22.9186C83.6549 22.9186 83.4622 22.863 83.2991 22.7516C83.1435 22.6402 83.0656 22.4658 83.0656 22.2282C83.0656 22.0426 83.1323 21.8755 83.2658 21.727C83.3992 21.5711 83.5697 21.4746 83.7772 21.4375C83.7253 21.3781 83.629 21.3298 83.4881 21.2927C83.3547 21.2556 83.2065 21.237 83.0434 21.237C82.658 21.237 82.3281 21.3595 82.0539 21.6045C81.787 21.8421 81.6536 22.2059 81.6536 22.6959C81.6536 22.8667 81.6833 23.0486 81.7426 23.2416C81.8019 23.4346 81.9168 23.6314 82.0872 23.8318C82.2132 23.8021 82.3281 23.7798 82.4319 23.765C82.5431 23.7501 82.6357 23.7427 82.7099 23.7427C82.8433 23.7427 82.9433 23.7724 83.01 23.8318C83.0842 23.8838 83.1212 23.9543 83.1212 24.0434C83.1212 24.1102 83.0916 24.1659 83.0323 24.2105C82.973 24.255 82.8989 24.2773 82.8099 24.2773C82.6839 24.2773 82.5542 24.2439 82.4208 24.177C82.2874 24.1028 82.1799 24.0397 82.0984 23.9877C81.75 24.1659 81.4646 24.3961 81.2423 24.6782C81.0273 24.9529 80.9198 25.3241 80.9198 25.7918C80.9198 26.2818 81.0532 26.6864 81.3201 27.0057C81.5869 27.3175 81.9612 27.5551 82.443 27.7184C82.9322 27.8743 83.5067 27.9523 84.1663 27.9523C84.5369 27.9523 84.9039 27.9114 85.267 27.8298C85.6302 27.7481 85.9564 27.6256 86.2454 27.4623C86.5419 27.2989 86.7791 27.0985 86.957 26.8609C87.1349 26.6159 87.2239 26.3338 87.2239 26.0145C87.2239 25.8958 87.2053 25.7473 87.1683 25.5691C87.1386 25.3835 87.0608 25.2016 86.9348 25.0234C86.8088 24.8378 86.6012 24.6856 86.3122 24.5668L86.39 24.4666C86.7902 24.5928 87.0941 24.8304 87.3017 25.1793C87.5092 25.5283 87.613 25.9292 87.613 26.382C87.613 26.9017 87.4536 27.3695 87.1349 27.7852C86.8162 28.1936 86.3677 28.5165 85.7896 28.7541C85.2189 28.9917 84.5481 29.1105 83.7772 29.1105C83.162 29.1105 82.6024 29.0473 82.0984 28.9211C81.6017 28.7949 81.1718 28.613 80.8086 28.3755C80.4529 28.1305 80.1749 27.8372 79.9748 27.4957C79.7821 27.1542 79.6857 26.7681 79.6857 26.3375C79.6857 25.9217 79.7709 25.5691 79.9414 25.2795C80.1193 24.9826 80.3343 24.7413 80.5863 24.5557C80.8383 24.3627 81.0903 24.2142 81.3423 24.1102C81.5943 24.0063 81.7945 23.9358 81.9427 23.8986C81.7129 23.8021 81.5017 23.6908 81.309 23.5645C81.1237 23.4309 80.9717 23.275 80.8531 23.0968C80.7419 22.9186 80.6863 22.7182 80.6863 22.4955C80.6863 22.2579 80.7493 22.05 80.8753 21.8718C81.0014 21.6862 81.1681 21.534 81.3757 21.4152C81.5906 21.2964 81.8278 21.2073 82.0872 21.148C82.3541 21.0811 82.6246 21.0477 82.8989 21.0477ZM87.2683 20.9141C87.7946 20.9141 88.2208 21.0514 88.5469 21.3261C88.873 21.6008 89.0361 21.9869 89.0361 22.4843C89.0361 22.863 88.9435 23.1822 88.7582 23.442C88.5803 23.7019 88.3208 23.9135 87.9799 24.0768C87.6463 24.2402 87.2461 24.3701 86.7791 24.4666C86.6754 24.5037 86.5456 24.5483 86.39 24.6002C86.2343 24.6448 86.075 24.6893 85.9119 24.7339C85.7488 24.7784 85.5895 24.823 85.4338 24.8675C85.2856 24.912 85.1559 24.9492 85.0447 24.9789C84.4665 25.1051 84.0218 25.2498 83.7105 25.4132C83.3992 25.5691 83.2435 25.7844 83.2435 26.0591C83.2435 26.2447 83.3028 26.4043 83.4214 26.538C83.5474 26.6716 83.7031 26.7755 83.8884 26.8498C84.0737 26.924 84.259 26.9611 84.4443 26.9611C84.4962 26.9611 84.5518 26.9574 84.6111 26.95C84.6704 26.9352 84.726 26.9203 84.7778 26.9055C84.8297 26.8832 84.8668 26.8646 84.889 26.8498C84.7037 26.7904 84.5629 26.6976 84.4665 26.5714C84.3776 26.4377 84.3331 26.2855 84.3331 26.1148C84.3331 25.8772 84.4184 25.6953 84.5888 25.5691C84.7593 25.4429 84.9706 25.3798 85.2226 25.3798C85.4894 25.3798 85.6969 25.4503 85.8452 25.5914C86.0008 25.7324 86.0787 25.9143 86.0787 26.137C86.0787 26.3672 86.0083 26.5602 85.8674 26.7161C85.7266 26.8646 85.5376 26.976 85.3004 27.0502C85.0632 27.117 84.7964 27.1505 84.4999 27.1505C84.2108 27.1505 83.9366 27.0985 83.6771 26.9945C83.4251 26.8906 83.2213 26.7347 83.0656 26.5268C82.9174 26.3115 82.8433 26.0442 82.8433 25.725C82.8433 25.3315 82.9433 25.0048 83.1435 24.745C83.3436 24.4777 83.629 24.2587 83.9996 24.088C84.3776 23.9098 84.8223 23.7724 85.3338 23.6759C85.4894 23.6388 85.6599 23.598 85.8452 23.5534C86.0379 23.5014 86.2343 23.4495 86.4345 23.3975C86.6346 23.3455 86.8199 23.2898 86.9904 23.2305C87.524 23.0968 87.9354 22.9483 88.2245 22.785C88.521 22.6217 88.6692 22.4027 88.6692 22.128C88.6692 21.9275 88.6062 21.753 88.4802 21.6045C88.3616 21.4486 88.206 21.3298 88.0132 21.2482C87.8205 21.1591 87.6204 21.1145 87.4129 21.1145C87.3461 21.1145 87.2831 21.1183 87.2239 21.1257C87.172 21.1331 87.1275 21.148 87.0904 21.1702C87.2757 21.237 87.4129 21.3373 87.5018 21.4709C87.5908 21.6045 87.6352 21.7382 87.6352 21.8718C87.6352 22.102 87.55 22.2802 87.3795 22.4064C87.209 22.5252 86.9978 22.5845 86.7458 22.5845C86.4938 22.5845 86.2862 22.5214 86.1231 22.3952C85.9601 22.2616 85.8785 22.0797 85.8785 21.8495C85.8785 21.6491 85.9341 21.482 86.0453 21.3484C86.1639 21.2073 86.327 21.0997 86.5345 21.0255C86.7421 20.9512 86.9867 20.9141 87.2683 20.9141ZM92.8437 21.0477L95.5455 28.0191C95.6492 28.2864 95.7641 28.472 95.8901 28.5759C96.0235 28.6724 96.1421 28.7244 96.2459 28.7318V28.9545C96.0235 28.9397 95.7604 28.9323 95.4565 28.9323C95.16 28.9248 94.8598 28.9211 94.5559 28.9211C94.215 28.9211 93.8926 28.9248 93.5887 28.9323C93.2848 28.9323 93.0439 28.9397 92.866 28.9545V28.7318C93.244 28.717 93.4812 28.6539 93.5775 28.5425C93.6813 28.4237 93.6591 28.175 93.5108 27.7964L91.6207 22.618L91.8209 22.3284L90.1309 26.7384C89.9678 27.1467 89.8678 27.4808 89.8307 27.7407C89.801 28.0005 89.8196 28.201 89.8863 28.342C89.9604 28.4831 90.0753 28.5833 90.231 28.6427C90.394 28.6947 90.5867 28.7244 90.8091 28.7318V28.9545C90.5645 28.9397 90.331 28.9323 90.1087 28.9323C89.8863 28.9248 89.6602 28.9211 89.4304 28.9211C89.2674 28.9211 89.1117 28.9248 88.9635 28.9323C88.8226 28.9323 88.6966 28.9397 88.5855 28.9545V28.7318C88.7411 28.7021 88.9005 28.6019 89.0635 28.4311C89.2266 28.2604 89.386 27.9708 89.5416 27.5625L92.0766 21.0477C92.1952 21.0552 92.3212 21.0589 92.4546 21.0589C92.5954 21.0589 92.7251 21.0552 92.8437 21.0477ZM93.622 25.7473V25.97H90.3088L90.42 25.7473H93.622ZM100.571 23.0411C100.882 23.0411 101.134 23.082 101.327 23.1636C101.527 23.2379 101.682 23.3418 101.794 23.4755C101.912 23.6165 101.997 23.7984 102.049 24.0211C102.109 24.2439 102.138 24.5445 102.138 24.9232V27.9189C102.138 28.2307 102.19 28.4423 102.294 28.5536C102.405 28.665 102.59 28.7207 102.85 28.7207V28.9545C102.709 28.9471 102.498 28.9397 102.216 28.9323C101.934 28.9174 101.656 28.91 101.382 28.91C101.1 28.91 100.823 28.9174 100.548 28.9323C100.281 28.9397 100.078 28.9471 99.9368 28.9545V28.7207C100.159 28.7207 100.315 28.665 100.404 28.5536C100.493 28.4423 100.537 28.2307 100.537 27.9189V24.4555C100.537 24.2698 100.519 24.1102 100.482 23.9766C100.445 23.8355 100.378 23.7279 100.281 23.6536C100.185 23.572 100.041 23.5311 99.8478 23.5311C99.6477 23.5311 99.4624 23.5868 99.2919 23.6982C99.1289 23.8095 98.9954 23.9655 98.8917 24.1659C98.7953 24.3589 98.7471 24.578 98.7471 24.823V27.9189C98.7471 28.2307 98.7916 28.4423 98.8806 28.5536C98.9769 28.665 99.1326 28.7207 99.3475 28.7207V28.9545C99.2141 28.9471 99.0177 28.9397 98.7582 28.9323C98.5062 28.9174 98.2431 28.91 97.9689 28.91C97.6872 28.91 97.3981 28.9174 97.1016 28.9323C96.8051 28.9397 96.5828 28.9471 96.4345 28.9545V28.7207C96.694 28.7207 96.8756 28.665 96.9793 28.5536C97.0905 28.4423 97.1461 28.2307 97.1461 27.9189V24.4109C97.1461 24.0768 97.0942 23.8318 96.9905 23.6759C96.8941 23.5126 96.7088 23.4309 96.4345 23.4309V23.197C96.6717 23.2193 96.9015 23.2305 97.1239 23.2305C97.4352 23.2305 97.7243 23.2193 97.9911 23.197C98.2653 23.1673 98.5174 23.1265 98.7471 23.0745V24.0768C98.9324 23.6982 99.1844 23.4309 99.5032 23.275C99.8219 23.1191 100.178 23.0411 100.571 23.0411ZM108.734 20.2348V27.7295C108.734 28.0636 108.786 28.3123 108.89 28.4757C108.994 28.6316 109.179 28.7095 109.446 28.7095V28.9434C109.216 28.9211 108.986 28.91 108.756 28.91C108.445 28.91 108.152 28.9211 107.878 28.9434C107.611 28.9657 107.363 29.0065 107.133 29.0659V21.5711C107.133 21.237 107.081 20.992 106.978 20.8361C106.881 20.6728 106.696 20.5911 106.422 20.5911V20.3573C106.659 20.3795 106.889 20.3907 107.111 20.3907C107.415 20.3907 107.704 20.3795 107.978 20.3573C108.252 20.3276 108.504 20.2867 108.734 20.2348ZM105.899 23.0411C106.225 23.0411 106.511 23.0968 106.755 23.2082C107.007 23.3121 107.204 23.4903 107.344 23.7427L107.211 23.8652C107.115 23.687 106.985 23.5608 106.822 23.4866C106.666 23.4049 106.499 23.3641 106.322 23.3641C105.944 23.3641 105.643 23.5868 105.421 24.0323C105.199 24.4703 105.091 25.1496 105.099 26.0702C105.099 26.7013 105.139 27.2061 105.221 27.5848C105.31 27.956 105.432 28.2233 105.588 28.3866C105.751 28.5499 105.936 28.6316 106.144 28.6316C106.396 28.6316 106.622 28.5314 106.822 28.3309C107.022 28.1305 107.13 27.8595 107.144 27.518L107.2 27.9077C107.089 28.3012 106.907 28.6019 106.655 28.8098C106.411 29.0102 106.088 29.1105 105.688 29.1105C105.251 29.1105 104.858 29.0028 104.509 28.7875C104.168 28.5722 103.902 28.2418 103.709 27.7964C103.516 27.3435 103.42 26.7607 103.42 26.048C103.42 25.3723 103.527 24.8155 103.742 24.3775C103.957 23.932 104.25 23.598 104.621 23.3752C104.999 23.1525 105.425 23.0411 105.899 23.0411ZM112.778 23.0411C113.319 23.0411 113.793 23.1414 114.201 23.3418C114.608 23.5423 114.927 23.8652 115.157 24.3107C115.387 24.7561 115.502 25.3464 115.502 26.0814C115.502 26.8164 115.387 27.4066 115.157 27.852C114.927 28.2901 114.608 28.6093 114.201 28.8098C113.793 29.0102 113.319 29.1105 112.778 29.1105C112.251 29.1105 111.781 29.0102 111.366 28.8098C110.958 28.6093 110.635 28.2901 110.398 27.852C110.169 27.4066 110.054 26.8164 110.054 26.0814C110.054 25.3464 110.169 24.7561 110.398 24.3107C110.635 23.8652 110.958 23.5423 111.366 23.3418C111.781 23.1414 112.251 23.0411 112.778 23.0411ZM112.778 23.2639C112.481 23.2639 112.233 23.4866 112.033 23.932C111.833 24.3701 111.732 25.0865 111.732 26.0814C111.732 27.0762 111.833 27.7927 112.033 28.2307C112.233 28.6687 112.481 28.8877 112.778 28.8877C113.081 28.8877 113.33 28.6687 113.522 28.2307C113.723 27.7927 113.823 27.0762 113.823 26.0814C113.823 25.0865 113.723 24.3701 113.522 23.932C113.33 23.4866 113.081 23.2639 112.778 23.2639Z" fill="#F2E6D8"/>
</svg>
