<svg width="212" height="89" viewBox="0 0 212 89" fill="none" xmlns="http://www.w3.org/2000/svg">
<path d="M59.4707 63.1815C59.0203 63.5809 58.6105 63.9715 58.1733 64.3279C55.4911 66.512 52.4701 67.998 49.0633 68.6783C48.5226 68.7862 48.5234 68.7849 48.5234 69.3236C48.5234 70.0477 48.5191 70.7725 48.5209 71.4967C48.5234 72.5593 48.2197 73.5538 47.827 74.5247C47.4138 75.5475 46.9222 76.5326 46.2904 77.4415C46.142 77.6552 45.9769 77.8608 45.795 78.0463C45.1414 78.7158 44.199 78.7192 43.5565 78.0341C43.2913 77.7509 43.0693 77.4206 42.8571 77.0936C42.1745 76.0431 41.6558 74.9117 41.2612 73.725C41.0351 73.0468 40.9146 72.3496 40.9119 71.6335C40.9084 70.8224 40.898 70.0113 40.8953 69.2002C40.8936 68.7586 40.8937 68.7768 40.4772 68.6662C39.4521 68.3938 38.414 68.1558 37.4152 67.8079C34.7181 66.8684 32.3075 65.4402 30.2409 63.4604C30.1885 63.4097 30.1318 63.3638 30.0829 63.311C29.9397 63.1589 29.8183 63.1858 29.6795 63.3292C29.3669 63.6525 29.05 63.9723 28.719 64.2763C28.5575 64.4249 28.5322 64.5727 28.5706 64.7788C28.6431 65.1612 28.7129 65.5479 28.7304 65.9358C28.775 66.9012 28.4318 67.7398 27.7246 68.3891C26.9449 69.1051 26.1198 69.7733 25.3043 70.4502C24.3212 71.2654 23.3285 72.0698 22.3367 72.8755C22.1909 72.9942 22.0389 73.1101 21.8748 73.1998C21.66 73.3165 21.4749 73.2767 21.3195 73.1162C21.1755 72.9679 21.1414 72.7481 21.2566 72.5559C21.3221 72.4453 21.4155 72.3489 21.5063 72.2572C22.7453 70.9923 23.9868 69.7295 25.2266 68.4639C25.3689 68.319 25.513 68.1727 25.6317 68.0095C25.8238 67.7452 25.802 67.5072 25.5925 67.3062C25.3725 67.0949 25.1402 67.0613 24.8905 67.2717C24.4915 67.6076 24.1187 67.9744 23.7397 68.3338C22.6763 69.3431 21.6172 70.3565 20.5521 71.3652C20.4482 71.463 20.3276 71.5506 20.2019 71.6187C20.0474 71.7037 19.8885 71.6834 19.7645 71.5493C19.6449 71.4198 19.6074 71.2674 19.7069 71.1124C19.7837 70.9917 19.8675 70.8703 19.968 70.7698C21.2296 69.507 22.4956 68.2488 23.759 66.9872C23.903 66.8437 24.0523 66.7031 24.1755 66.5431C24.3457 66.3216 24.3256 66.0955 24.1484 65.915C23.9668 65.7289 23.7433 65.6956 23.518 65.8417C23.3853 65.9286 23.2622 66.0346 23.1478 66.1441C21.8548 67.376 20.5651 68.6109 19.273 69.8434C19.1473 69.9634 19.0154 70.0808 18.8696 70.1731C18.6705 70.2979 18.4688 70.2776 18.3483 70.1522C18.2217 70.0194 18.2104 69.8266 18.33 69.6324C18.3824 69.5468 18.4522 69.4706 18.5229 69.3998C19.8082 68.1201 21.096 66.8412 22.3821 65.5619C22.5052 65.4393 22.6344 65.3192 22.7383 65.1812C22.9251 64.936 22.9199 64.7396 22.7471 64.5553C22.5663 64.3623 22.3061 64.3163 22.073 64.4607C21.9385 64.5442 21.8198 64.6545 21.7028 64.7631C20.5739 65.8089 19.4476 66.8577 18.3187 67.903C18.0847 68.1207 17.848 68.3365 17.5992 68.5361C17.298 68.7781 17.098 68.7788 16.9104 68.5691C16.7112 68.348 16.7183 68.081 16.9452 67.8315C17.7844 66.9072 18.6269 65.9869 19.4685 65.0645C20.1731 64.2929 20.8664 63.5115 21.5841 62.7518C22.004 62.3068 22.4842 61.9317 23.0709 61.7141C24.0034 61.3683 24.9272 61.4032 25.8274 61.8073C26.1015 61.93 26.2814 61.8942 26.4751 61.6838C26.7598 61.3734 27.0566 61.0744 27.3596 60.7824C27.5054 60.6427 27.495 60.5417 27.3815 60.3791C26.8515 59.6177 26.3005 58.8669 25.8274 58.0714C24.695 56.1675 23.7999 54.1546 23.3879 51.9683C23.277 51.382 23.0395 51.149 22.4782 50.9821C20.277 50.3259 18.1178 49.541 15.9901 48.6745C15.7351 48.571 15.4793 48.4573 15.2479 48.3121C14.3128 47.7253 14.3399 46.3975 15.3213 45.8861C15.8844 45.5927 16.4921 45.3734 17.0945 45.1647C18.8242 44.566 20.5608 43.9899 22.2956 43.4056C22.5017 43.3362 22.7103 43.2711 22.9225 43.2208C23.1146 43.1744 23.2019 43.0833 23.2386 42.8737C23.5764 40.967 24.1728 39.1426 25.0171 37.3974C25.6641 36.0615 26.4621 34.8196 27.3649 33.6419C27.4356 33.5497 27.5028 33.455 27.5709 33.3611C27.6434 33.2621 27.626 33.1838 27.5343 33.0978C27.089 32.6815 26.6411 32.2669 26.2124 31.834C26.0439 31.6636 25.8884 31.6402 25.6684 31.7054C24.984 31.9079 24.2942 31.9131 23.6027 31.7245C22.8518 31.5203 22.2162 31.1326 21.7045 30.5495C20.6044 29.2944 19.5104 28.0341 18.4077 26.7817C17.7939 26.0847 17.1671 25.3997 16.5489 24.7062C16.4528 24.5984 16.3568 24.4855 16.2869 24.3603C16.1726 24.1551 16.2136 23.9483 16.3725 23.8084C16.5306 23.6694 16.7288 23.6719 16.9261 23.8292C17.0168 23.9014 17.0937 23.9891 17.1758 24.0717C18.1083 25.0069 19.0398 25.9421 19.9732 26.8765C20.0553 26.9582 20.1452 27.0329 20.2403 27.0998C20.4936 27.2763 20.6909 27.2589 20.8978 27.0494C21.0934 26.8512 21.1126 26.6774 20.9458 26.4271C20.8664 26.3072 20.7721 26.1942 20.6707 26.0907C19.8186 25.219 18.963 24.3499 18.1099 23.479C17.9886 23.3547 17.8664 23.2287 17.7607 23.0905C17.5591 22.8271 17.5722 22.5707 17.7817 22.3943C17.9633 22.2413 18.1554 22.2578 18.3972 22.4865C18.8922 22.9557 19.3777 23.4355 19.864 23.9136C20.3923 24.4325 20.9161 24.9547 21.4453 25.4736C21.5378 25.5649 21.6399 25.6474 21.7439 25.7274C22.0355 25.9525 22.3533 25.883 22.5357 25.5623C22.6187 25.4163 22.6004 25.2772 22.5078 25.1555C22.3672 24.9713 22.2197 24.7914 22.0582 24.6262C21.247 23.7954 20.4281 22.9714 19.6161 22.1423C19.4441 21.9667 19.273 21.7859 19.1271 21.5877C18.9752 21.3817 19.0154 21.1757 19.2005 21.0063C19.3769 20.8455 19.5288 20.8342 19.7436 21.0132C19.9889 21.2175 20.2159 21.4426 20.4447 21.6659C21.2557 22.456 22.0634 23.2496 22.8728 24.0405C22.9147 24.0813 22.9583 24.1187 23.0029 24.1569C23.3434 24.4498 23.5267 24.4567 23.7886 24.1891C24.0157 23.9579 24.0113 23.7563 23.7144 23.4338C23.3216 23.007 22.9068 22.5994 22.4973 22.1883C22.0058 21.6938 21.509 21.2061 21.0174 20.7117C20.8847 20.5778 20.7528 20.4405 20.6437 20.2884C20.4761 20.0554 20.4857 19.9007 20.6437 19.7434C20.7826 19.6052 21.0157 19.5713 21.206 19.6965C21.3867 19.8155 21.5508 19.9616 21.715 20.105C22.5584 20.8394 23.3966 21.5782 24.2409 22.3117C25.1288 23.0835 26.022 23.8475 26.9083 24.6202C27.1483 24.8296 27.3867 25.046 27.5989 25.2833C28.5103 26.3011 28.7959 27.4831 28.4432 28.7956C28.3628 29.0963 28.4161 29.2883 28.6195 29.4856C29.077 29.9271 29.5293 30.3739 29.9763 30.8119C30.5849 30.3243 31.1673 29.8194 31.7871 29.3657C34.2807 27.5405 37.0502 26.308 40.0589 25.6005C40.2423 25.5571 40.4291 25.511 40.6159 25.5015C40.8761 25.4884 40.9172 25.3502 40.9111 25.1286C40.8936 24.5349 40.8683 23.9405 40.8901 23.3477C41.0271 19.6348 42.5638 16.5667 45.2659 14.0514C45.5611 13.7767 45.9033 13.5447 46.2494 13.3344C46.6446 13.0936 47.084 13.0015 47.5469 13.1362C48.1384 13.3091 48.5063 13.7854 48.5273 14.4269C48.5385 14.7745 48.5234 15.1222 48.5234 15.4698C48.5247 18.6283 48.5265 21.7867 48.5282 24.9452C48.5282 25.0034 48.5333 25.0617 48.5273 25.119C48.5038 25.3337 48.5996 25.4311 48.8126 25.4676C49.8744 25.6527 50.9036 25.956 51.9217 26.3072C53.7056 26.9225 55.367 27.7716 56.9345 28.8173C57.7464 29.3596 58.5014 29.9697 59.2269 30.619C59.2795 30.6659 59.336 30.7094 59.4172 30.7763C59.8373 30.3374 60.2442 29.9054 60.66 29.483C60.8152 29.324 60.8264 29.1718 60.7314 28.9763C59.4254 26.3028 60.396 22.5455 63.2729 20.5222C64.9762 19.3245 66.87 18.8734 68.9312 19.1107C69.3471 19.1585 69.767 19.2393 70.1633 19.3688C71.8132 19.9094 72.7533 21.088 73.0656 22.7533C73.3575 24.3081 73.1726 25.843 72.6619 27.3328C72.1105 28.9406 71.184 30.2922 69.7162 31.2013C67.7649 32.4111 65.7099 32.6867 63.562 31.7349C63.3592 31.6454 63.2391 31.6559 63.0799 31.8219C62.6992 32.22 62.2889 32.5902 61.8962 32.9778C61.6841 33.1864 61.6952 33.189 61.868 33.4376C62.4652 34.2929 63.109 35.1211 63.6433 36.0128C64.883 38.0814 65.7107 40.3151 66.1655 42.6825C66.2224 42.9772 66.3263 43.1407 66.645 43.2468C68.9204 44.0001 71.1874 44.7789 73.4503 45.568C73.7591 45.6757 74.0666 45.8465 74.3118 46.0595C75.0528 46.7075 74.9803 47.7287 74.1676 48.287C73.9312 48.4492 73.6596 48.5693 73.392 48.6796C71.1474 49.6062 68.856 50.4017 66.5303 51.1022C66.2763 51.1784 66.147 51.2802 66.0923 51.5506C65.4348 54.7516 64.1297 57.6614 62.1084 60.2445C62.0639 60.302 62.0164 60.3565 61.9685 60.4115C61.877 60.5174 61.8795 60.6193 61.9801 60.7172C62.3527 61.0834 62.7274 61.4475 63.0965 61.8167C63.2284 61.9478 63.3516 61.8908 63.4948 61.8392C63.7943 61.7324 64.0955 61.6161 64.4056 61.5544C65.7257 61.2899 66.8491 61.6941 67.7933 62.6155C68.26 63.0716 68.6975 63.5575 69.1344 64.0425C70.1721 65.1978 71.2023 66.3591 72.2325 67.52C72.3578 67.6602 72.4831 67.8052 72.5752 67.9663C72.7113 68.2057 72.6585 68.4113 72.4546 68.5866C72.2521 68.7606 72.0523 68.7734 71.8234 68.6082C71.694 68.5152 71.5761 68.4059 71.4603 68.296C70.233 67.1431 69.0084 65.9869 67.7818 64.8337C67.6447 64.7047 67.4997 64.5842 67.3547 64.4632C67.0518 64.2103 66.7122 64.192 66.3759 64.3657C66.0085 64.5553 65.7621 64.8525 65.7377 65.2856C65.7218 65.5713 65.8921 65.7782 66.0757 65.9669C66.5513 66.4562 67.0351 66.937 67.5156 67.4211C68.344 68.2556 69.1723 69.089 69.9987 69.9257C70.1206 70.0491 70.2344 70.1832 70.3353 70.3248C70.4884 70.5379 70.4789 70.693 70.3272 70.877C70.1856 71.047 69.9391 71.1009 69.7359 70.9822C69.6126 70.9094 69.5042 70.8069 69.4006 70.7065C68.0961 69.4443 66.7943 68.1807 65.4917 66.9169C65.398 66.8258 65.3056 66.7325 65.2042 66.6508C64.7538 66.2884 64.285 66.3267 63.8448 66.7577C63.4388 67.155 63.3841 67.7054 63.7549 68.1214C64.1694 68.5866 64.6203 69.0202 65.0566 69.4659C65.9597 70.3902 66.8649 71.3113 67.7656 72.237C67.8563 72.33 67.9369 72.4359 68.0026 72.5471C68.1354 72.7703 68.1178 72.9355 67.962 73.1C67.7913 73.2787 67.5754 73.3374 67.3714 73.2248C67.1951 73.1263 67.0292 73.0036 66.8739 72.8748C65.3416 71.6059 63.8118 70.3343 62.2838 69.0593C62.0382 68.855 61.8025 68.6386 61.5758 68.4147C60.672 67.5227 60.3768 66.4243 60.6634 65.2238C60.802 64.6425 60.7045 64.2627 60.2527 63.9156C60.0469 63.7577 59.8758 63.555 59.6872 63.3744C59.6269 63.3118 59.5589 63.2577 59.4707 63.1815ZM29.3756 47.9957C29.3974 48.0758 29.4097 48.1026 29.4114 48.1303C29.5756 50.7441 30.3666 53.1556 31.8221 55.3346C32.3032 56.0551 32.8838 56.7105 33.4242 57.3918C33.5097 57.5008 33.6032 57.6494 33.7796 57.5328C33.8834 57.4642 33.9856 57.4552 34.0389 57.5613C34.0756 57.6337 34.079 57.7632 34.0362 57.8257C33.9568 57.9412 33.9891 58.002 34.0773 58.0778C34.4073 58.3619 34.7216 58.6651 35.0647 58.9329C37.4422 60.7947 40.1331 61.9091 43.1428 62.2382C43.3722 62.2634 43.4666 62.3285 43.4876 62.5704C43.568 63.4923 43.6797 64.413 43.7653 65.335C43.8769 66.5456 43.9825 67.7573 44.0771 68.9696C44.1746 70.2257 44.255 71.4832 44.3466 72.7393C44.3539 72.8384 44.3676 72.9503 44.4194 73.0292C44.4839 73.1283 44.599 73.2753 44.6769 73.2672C44.7953 73.2531 44.916 73.1371 45.0058 73.0387C45.0559 72.9834 45.052 72.8748 45.0585 72.7899C45.1414 71.6335 45.2296 70.4786 45.301 69.3222C45.4426 67.0532 45.6475 64.7899 45.9191 62.5321C45.9435 62.3303 46.0115 62.266 46.2092 62.2506C47.1537 62.1782 48.0786 61.9913 48.9846 61.7213C51.3369 61.0191 53.4138 59.837 55.2118 58.1707C55.3426 58.0489 55.5206 57.9535 55.3461 57.7129C55.2571 57.5894 55.4089 57.4118 55.5288 57.485C55.8256 57.6656 55.9433 57.4467 56.0926 57.2858C58.2691 54.9296 59.5511 52.1659 59.9071 48.9803C59.9438 48.6536 59.9751 48.327 60.0118 47.974C60.8238 47.9165 61.6054 47.8565 62.3886 47.8062C64.6524 47.661 66.9166 47.5214 69.1798 47.3752C69.3227 47.3655 69.4704 47.3412 69.6045 47.2943C69.6702 47.2718 69.7582 47.176 69.7521 47.1223C69.7433 47.0389 69.677 46.9473 69.6092 46.8894C69.5618 46.8485 69.4724 46.8485 69.4006 46.8434C68.153 46.7535 66.906 46.6607 65.6581 46.5781C64.0762 46.4738 62.4943 46.3809 60.9119 46.2792C60.624 46.2609 60.3357 46.2259 60.0486 46.1983C60.005 45.9019 59.9516 45.6064 59.9195 45.3091C59.5747 42.1282 58.3153 39.3486 56.2209 36.9342C56.0892 36.7821 55.9599 36.6265 55.8265 36.4692C55.7379 36.5378 55.711 36.5708 55.6759 36.5847C55.5878 36.6195 55.4962 36.6456 55.4064 36.6752C55.403 36.5847 55.3636 36.4735 55.4013 36.4074C55.5022 36.2319 55.4064 36.1389 55.2939 36.0381C54.8931 35.6808 54.5166 35.2923 54.088 34.9716C51.7438 33.2186 49.1228 32.1564 46.1899 31.9019C45.9936 31.8845 45.8695 31.8601 45.8451 31.6202C45.6441 29.6621 45.4267 27.7056 45.2253 25.7483C45.1222 24.7549 45.0426 23.758 44.9472 22.7636C44.9353 22.6351 44.9057 22.5047 44.8574 22.3856C44.8364 22.3334 44.7534 22.2882 44.6927 22.2779C44.6584 22.2717 44.5849 22.3352 44.5729 22.3795C44.5241 22.5603 44.4733 22.7437 44.4557 22.9288C44.3004 24.5863 44.1644 26.2463 43.9958 27.902C43.8684 29.1545 43.6964 30.4034 43.5548 31.6549C43.5338 31.8418 43.4551 31.8905 43.2806 31.9044C41.8645 32.0183 40.5007 32.3642 39.1788 32.8718C37.2842 33.6001 35.5965 34.6605 34.114 36.0433C34.0039 36.1459 33.8756 36.231 34.0397 36.3909C34.1262 36.4752 34.1201 36.5657 34.0372 36.6578C33.9419 36.7629 33.8468 36.7281 33.7761 36.6465C33.6443 36.4944 33.5508 36.5813 33.4548 36.6786C33.3631 36.7716 33.274 36.8681 33.1875 36.9654C31.7443 38.5968 30.7019 40.455 30.0357 42.5218C29.6786 43.63 29.5032 44.773 29.4377 45.9325C29.4272 46.1148 29.4027 46.2217 29.1783 46.2357C27.901 46.3124 26.6245 46.4061 25.348 46.4904C23.5922 46.6066 21.8364 46.7191 20.0805 46.8344C19.9942 46.8404 19.8937 46.8319 19.8248 46.8719C19.7479 46.9162 19.6563 47.0056 19.6502 47.0814C19.6449 47.15 19.7323 47.2544 19.8047 47.2935C19.9033 47.3454 20.0273 47.3629 20.1417 47.3706C21.5343 47.463 22.9278 47.555 24.3212 47.6367C25.5113 47.707 26.7031 47.7568 27.8931 47.8314C28.3864 47.8637 28.8745 47.939 29.3756 47.9957ZM32.8916 34.7691C33.0444 34.6353 33.1762 34.5249 33.3029 34.4075C34.7697 33.0508 36.453 32.0374 38.3005 31.2873C39.556 30.778 40.8578 30.4303 42.2024 30.2392C42.6337 30.1775 42.652 30.1548 42.6756 29.7272C42.7131 29.0328 42.7446 28.3383 42.7778 27.6448C42.7848 27.5005 42.7925 27.3554 42.7882 27.2102C42.7805 26.9634 42.7568 26.946 42.5001 26.9572C42.4425 26.9599 42.384 26.9686 42.3264 26.9764C39.8511 27.3041 37.5138 28.0524 35.3048 29.2153C32.2054 30.8475 29.6698 33.1003 27.77 36.0354C25.9574 38.8358 24.9219 41.9108 24.6434 45.2346C24.619 45.5301 24.6469 45.5561 24.9551 45.5255C25.7356 45.4466 26.5162 45.3666 27.2968 45.2874C27.7272 45.244 27.7359 45.2354 27.7691 44.7857C27.777 44.6852 27.7805 44.5835 27.7944 44.4825C28.1437 42.0681 28.9723 39.8275 30.3255 37.7937C30.7979 37.0846 31.3585 36.4326 31.8954 35.7678C32.2062 35.3836 32.222 35.3949 31.8622 35.0394C31.6763 34.856 31.4763 34.6857 31.3026 34.4919C31.1044 34.272 31.1105 34.0729 31.2877 33.8748C31.4501 33.6931 31.692 33.6584 31.9146 33.8174C32.0788 33.9348 32.2193 34.0842 32.3643 34.2259C32.5371 34.3963 32.7021 34.5744 32.8916 34.7691ZM56.593 34.7109C56.7291 34.5597 56.8459 34.4146 56.9798 34.2859C57.1569 34.1147 57.3357 33.9426 57.5325 33.7965C57.7617 33.627 57.9906 33.6732 58.1861 33.8939C58.3705 34.1024 58.3679 34.2007 58.1472 34.4536C58.0325 34.584 57.9025 34.7004 57.7793 34.823C57.1218 35.4757 57.1184 35.2437 57.7254 35.9381C58.8821 37.2618 59.7971 38.7298 60.4738 40.3455C61.0805 41.7953 61.5155 43.2911 61.6614 44.8632C61.6952 45.232 61.7251 45.2482 62.0793 45.284C62.6722 45.3431 63.2651 45.3994 63.8572 45.4603C64.0736 45.482 64.2892 45.522 64.5065 45.5344C64.7897 45.551 64.7923 45.5429 64.7915 45.2465C64.7906 45.1162 64.7906 44.9842 64.7696 44.8564C64.643 44.0853 64.5451 43.3077 64.3739 42.5462C63.6091 39.1409 62.0575 36.1258 59.7142 33.5341C56.7945 30.3044 53.1773 28.2384 48.9192 27.2919C48.254 27.1441 47.5737 27.059 46.8987 26.9607C46.6288 26.9217 46.5941 26.952 46.6061 27.1928C46.6519 28.1036 46.7127 29.0137 46.7627 29.9246C46.7721 30.1079 46.8594 30.1653 47.0352 30.1774C47.2803 30.1948 47.525 30.2365 47.7684 30.2783C50.7415 30.7937 53.3869 32.013 55.7024 33.9382C55.9904 34.179 56.2688 34.4293 56.593 34.7109ZM64.8098 48.8406C64.6387 48.8406 64.5527 48.8325 64.4685 48.8415C63.6014 48.9334 62.7351 49.0318 61.868 49.1186C61.6708 49.1387 61.6524 49.2532 61.6348 49.4133C61.4124 51.4863 60.7455 53.42 59.7509 55.2451C59.1161 56.409 58.3153 57.457 57.4294 58.441C57.2835 58.6029 57.2634 58.714 57.4268 58.8737C57.6852 59.1275 57.9376 59.3902 58.1673 59.6692C58.3478 59.8889 58.3024 60.0899 58.0805 60.2645C57.8901 60.4148 57.6826 60.4323 57.4396 60.2496C57.1979 60.0682 56.9918 59.8404 56.7693 59.6334C56.5195 59.4014 56.5075 59.3996 56.2769 59.6177C55.5792 60.2777 54.8229 60.8607 54.0209 61.3909C51.9636 62.7501 49.7084 63.5907 47.2795 63.988C46.8508 64.0583 46.8491 64.0524 46.8149 64.5059C46.7584 65.257 46.7007 66.0078 46.6472 66.7585C46.6378 66.8978 46.6455 67.0379 46.6455 67.1759C46.7293 67.1899 46.7713 67.2035 46.8123 67.2018C46.9582 67.1976 47.1041 67.1967 47.2482 67.1792C48.7395 66.9987 50.1999 66.6874 51.6047 66.1479C54.1577 65.1655 56.4437 63.7611 58.4167 61.8601C59.8677 60.4617 61.1296 58.9129 62.1465 57.1764C63.3516 55.1191 64.1592 52.9107 64.5711 50.5631C64.6691 50.0112 64.726 49.4525 64.8098 48.8406ZM32.8584 59.4273C32.6785 59.6006 32.5398 59.7484 32.3861 59.8787C32.1992 60.0367 32.0106 60.1993 31.802 60.3254C31.6213 60.4348 31.403 60.3629 31.2615 60.1925C31.1332 60.0375 31.1358 59.8698 31.2458 59.7126C31.3279 59.5951 31.43 59.4908 31.5304 59.3869C31.7016 59.2093 31.8762 59.0355 32.0535 58.8635C32.1695 58.7503 32.1783 58.6442 32.0569 58.5305C32.0037 58.4811 31.9548 58.427 31.9067 58.3734C29.6236 55.7988 28.1533 52.8524 27.77 49.4099C27.7517 49.2413 27.7028 49.1387 27.5212 49.1203C26.6393 49.0309 25.7575 48.9351 24.8757 48.8474C24.7989 48.8397 24.7176 48.8751 24.6416 48.89C24.667 49.1761 24.6809 49.4359 24.7141 49.6931C24.9726 51.7175 25.5392 53.6572 26.4176 55.4972C28.1088 59.0398 30.5543 61.9487 33.8704 64.0932C36.4696 65.774 39.3089 66.8194 42.4005 67.1516C42.7848 67.1933 42.7959 67.1908 42.7699 66.7985C42.7158 65.9754 42.6416 65.1544 42.5917 64.3304C42.5769 64.0894 42.4704 64.0017 42.2443 63.9855C42.0566 63.9715 41.8715 63.9272 41.6855 63.8922C38.3895 63.2726 35.4917 61.8644 33.0418 59.5691C32.9911 59.5197 32.93 59.4823 32.8584 59.4273ZM66.3498 30.878C66.4285 30.8684 66.5303 30.8632 66.63 30.8441C67.8306 30.6163 68.8757 30.0888 69.7569 29.2397C70.5791 28.447 71.1433 27.5031 71.4441 26.4046C71.5321 26.0829 71.4624 25.9109 71.2402 25.8283C71.0241 25.7483 70.8575 25.8491 70.7187 26.1603C70.6428 26.3315 70.5906 26.514 70.5182 26.687C69.7487 28.5157 68.432 29.6742 66.4302 29.9941C66.3447 30.008 66.2591 30.0271 66.177 30.0558C65.9541 30.1331 65.8331 30.3139 65.8635 30.512C65.8985 30.7329 66.079 30.8753 66.3498 30.878ZM67.7029 20.51C67.5827 20.5161 67.5241 20.5161 67.4663 20.5222C67.279 20.543 67.0912 20.5621 66.9051 20.59C65.1379 20.8542 63.7883 21.7815 62.7483 23.1939C62.6765 23.2912 62.6269 23.4346 62.6354 23.5511C62.647 23.7067 62.724 23.8614 62.9062 23.9074C63.073 23.9492 63.2215 23.9231 63.3374 23.7815C63.5753 23.4894 63.7917 23.1765 64.0569 22.9123C65.0096 21.9641 66.1762 21.473 67.5147 21.3696C67.7003 21.3548 67.8963 21.3392 68.0676 21.2722C68.3196 21.174 68.3596 20.9141 68.1909 20.7012C68.0466 20.5187 67.8502 20.4979 67.7029 20.51ZM26.6751 29.4656C26.5555 29.5812 26.4254 29.6698 26.3469 29.7915C26.2447 29.9506 26.3355 30.0992 26.4551 30.2157C27.0767 30.8198 27.6958 31.4273 28.3279 32.02C28.5592 32.2373 28.5986 32.2173 28.8552 31.9496C29.043 31.7532 29.0596 31.6707 28.8684 31.4777C28.2685 30.8719 27.66 30.274 27.0471 29.6803C26.9606 29.5951 26.8314 29.5534 26.6751 29.4656ZM62.9631 29.9636C62.9387 29.8898 62.9271 29.8324 62.9011 29.7828C62.7569 29.5047 62.4943 29.4404 62.2603 29.6568C61.889 30.001 61.5399 30.3678 61.181 30.725C60.9453 30.9597 60.7087 31.1934 60.4738 31.429C60.3271 31.5759 60.3271 31.7237 60.4614 31.8845C60.7045 32.1738 60.8011 32.2008 61.0903 31.9279C61.6588 31.3925 62.2076 30.8363 62.7578 30.2817C62.8468 30.194 62.8977 30.0688 62.9631 29.9636ZM60.7917 61.5101C60.6844 61.643 60.5769 61.7724 60.4738 61.9061C60.3794 62.0279 60.4546 62.1271 60.5342 62.214C60.7113 62.4061 60.8931 62.5938 61.0762 62.7799C61.3512 63.0589 61.628 63.3369 61.9074 63.6107C62.0212 63.7219 62.1371 63.8356 62.2671 63.9255C62.454 64.0532 62.6594 64.0132 62.8147 63.8454C62.97 63.6776 62.9918 63.5447 62.8057 63.351C62.3142 62.8378 61.8017 62.3443 61.2943 61.8465C61.2127 61.7656 61.119 61.6941 61.0248 61.6264C60.9679 61.5854 60.8991 61.562 60.7917 61.5101ZM28.9548 62.0185C28.8229 61.8627 28.7086 61.697 28.5584 61.5735C28.5226 61.5437 28.3497 61.6345 28.2738 61.7055C27.7639 62.179 27.261 62.6624 26.7589 63.1449C26.6865 63.2143 26.6254 63.2969 26.5616 63.3761C26.4437 63.5221 26.4647 63.6691 26.5616 63.816C26.7188 64.0524 26.9929 64.0826 27.2322 63.8479C27.7499 63.3412 28.2511 62.8161 28.7557 62.2958C28.8247 62.2233 28.8727 62.1339 28.9548 62.0185Z" fill="#F2E6D8"/>
<path d="M44.6936 65.2571C44.6718 65.1012 44.6427 64.9475 44.6298 64.7912C44.4882 63.0891 44.3475 61.3866 44.2089 59.6841C44.0891 58.2125 43.9724 56.7403 43.8526 55.2678C43.8248 54.9263 43.8184 54.9339 43.4825 54.8585C42.9299 54.7342 42.3587 54.655 41.8331 54.4578C39.3876 53.541 37.7741 51.8279 37.0267 49.3265C36.9236 48.9803 36.8293 48.6251 36.7953 48.2687C36.7691 47.9966 36.6399 47.9332 36.4129 47.9157C36.1081 47.8922 35.8052 47.8539 35.5013 47.828C34.3428 47.7304 33.1824 47.6453 32.0247 47.5367C30.8975 47.4307 29.772 47.3021 28.6466 47.1794C28.5183 47.1658 28.3925 47.1258 28.2607 47.0389C28.7453 46.9814 29.229 46.9205 29.7145 46.8685C30.4941 46.7843 31.2738 46.6982 32.0543 46.6258C32.8637 46.5513 33.6748 46.493 34.4851 46.4244C35.1661 46.3669 35.8454 46.2992 36.5264 46.2468C36.7176 46.2323 36.7569 46.134 36.7752 45.9671C36.8495 45.3049 36.9498 44.6461 37.1926 44.0193C38.2909 41.1938 40.3445 39.5077 43.3307 38.9471C43.8868 38.8428 43.883 38.8576 43.9305 38.2909C44.0613 36.7186 44.2008 35.1472 44.333 33.5749C44.4378 32.3199 44.5362 31.064 44.6384 29.809C44.6452 29.7255 44.6585 29.6421 44.7325 29.5491C44.7432 29.5908 44.759 29.6325 44.7625 29.6751C44.8664 30.8572 44.9729 32.0392 45.0713 33.2212C45.1534 34.2024 45.2253 35.1837 45.3019 36.165C45.3639 36.9446 45.426 37.7234 45.4914 38.5021C45.5175 38.8167 45.52 38.828 45.8426 38.8784C47.0656 39.0705 48.2087 39.4747 49.237 40.1647C51.121 41.4285 52.2388 43.1901 52.6387 45.4109C52.6841 45.6647 52.6524 45.9905 52.8009 46.1514C52.9266 46.2886 53.2603 46.2417 53.5028 46.2668C54.3122 46.3494 55.1215 46.4287 55.9309 46.5079C57.0444 46.6164 58.1584 46.7208 59.2714 46.8311C59.8913 46.8928 60.5116 46.9648 61.1365 47.1151C60.9855 47.139 60.8354 47.1684 60.6835 47.185C59.3536 47.3255 58.0249 47.469 56.6941 47.5993C55.8988 47.6776 55.1005 47.7326 54.3045 47.7995C53.8558 47.8374 53.407 47.888 52.9574 47.9157C52.741 47.9289 52.6716 48.0149 52.643 48.2304C52.4753 49.467 52.0762 50.6214 51.3362 51.6435C50.1217 53.3208 48.4627 54.3083 46.4577 54.7585C46.2456 54.8062 46.0291 54.8394 45.8126 54.8577C45.6338 54.8734 45.5637 54.9462 45.5517 55.1268C45.5089 55.7771 45.4546 56.4265 45.4007 57.0754C45.2138 59.2971 45.0226 61.5186 44.8373 63.7402C44.7954 64.2453 44.7736 64.752 44.7424 65.2579C44.7274 65.2588 44.7098 65.2579 44.6936 65.2571ZM41.7179 47.0197C41.7135 48.6971 43.0659 50.0598 44.7466 50.073C46.3568 50.0854 47.7492 48.698 47.7475 47.084C47.7449 45.4352 46.3743 44.0593 44.7308 44.0576C43.0736 44.0567 41.7222 45.3858 41.7179 47.0197ZM38.4455 43.7829C38.531 43.8988 38.5956 44.0525 38.7117 44.1287C38.8681 44.2314 39.0522 44.196 39.178 44.0376C39.2583 43.9358 39.3238 43.823 39.3919 43.7118C39.5133 43.5155 39.6146 43.3022 39.7551 43.1208C40.7234 41.8692 41.9763 41.0652 43.5454 40.7688C43.6579 40.748 43.7747 40.7167 43.8718 40.6593C44.0305 40.5655 44.1242 40.4168 44.099 40.2248C44.0763 40.0561 43.8945 39.9032 43.6922 39.8901C43.5634 39.8823 43.429 39.8928 43.3033 39.9223C41.2464 40.4064 39.6582 41.5215 38.6297 43.3822C38.5685 43.4946 38.5223 43.6152 38.4455 43.7829Z" fill="#F2E6D8"/>
<path d="M36.4136 54.1632C36.9496 54.1572 37.3539 54.5455 37.3661 55.0791C37.3784 55.5999 36.9794 55.9989 36.4319 56.0125C35.9002 56.0266 35.5282 55.6399 35.523 55.0706C35.5186 54.5306 35.874 54.1691 36.4136 54.1632Z" fill="#F2E6D8"/>
<path d="M53.0054 54.1639C53.5011 54.1631 53.9203 54.574 53.9306 55.0722C53.9413 55.5683 53.4592 56.0406 52.9442 56.0359C52.4535 56.0317 52.0728 55.6198 52.0694 55.0889C52.0651 54.5506 52.4569 54.1648 53.0054 54.1639Z" fill="#F2E6D8"/>
<path d="M52.9868 39.8248C52.4684 39.8266 52.1009 39.4511 52.0962 38.9166C52.092 38.376 52.4842 37.9831 53.0219 37.9901C53.5151 37.9962 53.9455 38.4455 53.9455 38.9531C53.9446 39.4016 53.4809 39.8231 52.9868 39.8248Z" fill="#F2E6D8"/>
<path d="M36.348 39.8336C35.8618 39.8311 35.5204 39.4503 35.5264 38.9167C35.5317 38.3839 35.9002 37.9989 36.4101 37.9937C36.9234 37.9893 37.3495 38.4056 37.3574 38.9202C37.3644 39.4208 36.9042 39.8371 36.348 39.8336Z" fill="#F2E6D8"/>
<path d="M95.3065 38.007C96.1057 38.007 96.7221 38.0947 97.1556 38.27C97.589 38.4318 97.9616 38.6071 98.2731 38.7959C98.4357 38.8903 98.5644 38.9644 98.6592 39.0184C98.7676 39.0588 98.8692 39.0791 98.964 39.0791C99.0995 39.0791 99.1943 39.0049 99.2485 38.8566C99.3162 38.7082 99.3704 38.4857 99.411 38.1891H99.8784C99.8648 38.4453 99.8445 38.7554 99.8174 39.1195C99.8039 39.4701 99.7903 39.9354 99.7768 40.5152C99.7768 41.0951 99.7768 41.8569 99.7768 42.8009H99.3094C99.2552 42.0997 99.0927 41.4187 98.8218 40.7579C98.5508 40.0972 98.1648 39.5578 97.6635 39.1397C97.1759 38.7082 96.5731 38.4925 95.8551 38.4925C95.2049 38.4925 94.6698 38.6745 94.2499 39.0386C93.8299 39.4027 93.62 39.9084 93.62 40.5557C93.62 41.0951 93.7554 41.5603 94.0264 41.9513C94.2973 42.3289 94.6901 42.6997 95.2049 43.0638C95.7332 43.4279 96.3699 43.8662 97.1149 44.3786C97.7651 44.7966 98.3476 45.2147 98.8624 45.6327C99.3772 46.0507 99.7903 46.5227 100.102 47.0486C100.413 47.5745 100.569 48.2016 100.569 48.9297C100.569 49.8197 100.332 50.5547 99.8581 51.1345C99.3975 51.7144 98.7879 52.1526 98.0293 52.4493C97.2707 52.7325 96.4376 52.8741 95.53 52.8741C94.6901 52.8741 94.0196 52.7932 93.5184 52.6313C93.0172 52.4695 92.5972 52.301 92.2586 52.1257C91.9605 51.9369 91.7303 51.8425 91.5677 51.8425C91.4322 51.8425 91.3306 51.9166 91.2629 52.065C91.2087 52.2133 91.1613 52.4358 91.1207 52.7325H90.6533C90.6804 52.4088 90.694 52.0313 90.694 51.5997C90.7075 51.1682 90.7143 50.6086 90.7143 49.9209C90.7278 49.2197 90.7346 48.3364 90.7346 47.2711H91.2019C91.2561 48.1611 91.4051 48.9972 91.649 49.7793C91.9064 50.5479 92.2924 51.1682 92.8072 51.6402C93.3355 52.1122 94.0331 52.3482 94.9001 52.3482C95.3742 52.3482 95.7942 52.2672 96.1599 52.1054C96.5392 51.9301 96.844 51.6739 97.0743 51.3368C97.3046 50.9997 97.4197 50.5816 97.4197 50.0827C97.4197 49.5163 97.2842 49.0241 97.0133 48.6061C96.7559 48.1881 96.397 47.797 95.9364 47.4329C95.4894 47.0688 94.9678 46.698 94.3718 46.3204C93.7351 45.9024 93.1391 45.4844 92.5837 45.0663C92.0283 44.6483 91.5813 44.1696 91.2426 43.6302C90.9175 43.0908 90.7549 42.4503 90.7549 41.7086C90.7549 40.8591 90.9649 40.1646 91.3848 39.6252C91.8183 39.0723 92.3805 38.6678 93.0713 38.4116C93.7758 38.1419 94.5208 38.007 95.3065 38.007ZM104.694 52.7325C104.085 52.7325 103.577 52.6179 103.17 52.3886C102.764 52.1594 102.466 51.856 102.276 51.4784C102.086 51.0873 101.992 50.6626 101.992 50.2041C101.992 49.6242 102.12 49.1522 102.378 48.7882C102.649 48.4241 102.994 48.1274 103.414 47.8982C103.834 47.6689 104.274 47.4801 104.735 47.3318C105.209 47.1835 105.656 47.0419 106.076 46.907C106.509 46.7587 106.855 46.5901 107.112 46.4013C107.383 46.1991 107.519 45.9429 107.519 45.6327V44.055C107.519 43.7044 107.458 43.3942 107.336 43.1245C107.227 42.8413 107.051 42.6256 106.807 42.4772C106.577 42.3289 106.272 42.2547 105.893 42.2547C105.622 42.2547 105.351 42.2952 105.08 42.3761C104.809 42.4435 104.586 42.5649 104.41 42.7402C104.789 42.8751 105.08 43.0841 105.283 43.3672C105.5 43.6369 105.608 43.9471 105.608 44.2977C105.608 44.7562 105.446 45.1203 105.121 45.39C104.809 45.6597 104.437 45.7945 104.003 45.7945C103.516 45.7945 103.143 45.6462 102.886 45.3495C102.642 45.0394 102.52 44.6685 102.52 44.237C102.52 43.846 102.615 43.5223 102.804 43.2661C103.008 43.0099 103.285 42.7672 103.637 42.5379C104.017 42.3222 104.471 42.1536 104.999 42.0322C105.541 41.9109 106.123 41.8502 106.746 41.8502C107.369 41.8502 107.932 41.9176 108.433 42.0525C108.934 42.1738 109.354 42.4031 109.693 42.7402C110.004 43.0504 110.207 43.4347 110.302 43.8932C110.397 44.3382 110.445 44.9045 110.445 45.5923V51.0941C110.445 51.4312 110.478 51.6672 110.546 51.802C110.614 51.9234 110.729 51.9841 110.892 51.9841C111.013 51.9841 111.129 51.9504 111.237 51.8829C111.359 51.8155 111.488 51.7346 111.623 51.6402L111.826 51.9841C111.542 52.2268 111.21 52.4156 110.831 52.5504C110.465 52.6718 110.052 52.7325 109.591 52.7325C109.09 52.7325 108.69 52.6651 108.392 52.5302C108.094 52.3819 107.877 52.1863 107.742 51.9436C107.62 51.7009 107.559 51.4177 107.559 51.0941C107.234 51.6065 106.841 52.011 106.381 52.3077C105.92 52.5909 105.358 52.7325 104.694 52.7325ZM106.137 51.4379C106.408 51.4379 106.652 51.3772 106.868 51.2559C107.099 51.121 107.315 50.9053 107.519 50.6086V46.462C107.397 46.6643 107.227 46.8463 107.011 47.0082C106.794 47.17 106.563 47.3385 106.32 47.5138C106.076 47.6757 105.839 47.8577 105.608 48.06C105.392 48.2622 105.216 48.5117 105.08 48.8084C104.945 49.1051 104.877 49.4624 104.877 49.8804C104.877 50.4063 104.992 50.7974 105.222 51.0536C105.453 51.3098 105.757 51.4379 106.137 51.4379ZM119.376 41.8502C120.433 41.8502 121.307 42.2817 121.997 43.1448C122.702 43.9943 123.054 45.3091 123.054 47.0891C123.054 48.4915 122.837 49.6175 122.404 50.467C121.984 51.3166 121.422 51.9301 120.717 52.3077C120.013 52.6853 119.241 52.8741 118.401 52.8741C117.846 52.8741 117.331 52.7797 116.857 52.5909C116.383 52.4021 115.976 52.0919 115.637 51.6604L115.922 51.5593C116.166 51.856 116.45 52.0785 116.775 52.2268C117.114 52.3751 117.446 52.4493 117.771 52.4493C118.516 52.4493 119.071 52.0313 119.437 51.1952C119.803 50.3591 119.986 49.0848 119.986 47.3723C119.986 46.2126 119.911 45.2956 119.762 44.6213C119.627 43.9336 119.424 43.4482 119.153 43.165C118.882 42.8683 118.557 42.72 118.177 42.72C117.703 42.72 117.27 42.9155 116.877 43.3066C116.484 43.6841 116.261 44.2168 116.206 44.9045L116.105 44.1966C116.349 43.4279 116.762 42.8481 117.344 42.457C117.927 42.0525 118.604 41.8502 119.376 41.8502ZM116.267 36.7732V52.1863C115.929 52.1324 115.583 52.1324 115.231 52.1863C114.879 52.2403 114.554 52.3347 114.256 52.4695C113.958 52.5909 113.707 52.7392 113.504 52.9145L113.199 52.7325C113.253 52.5437 113.287 52.3549 113.301 52.1661C113.328 51.9773 113.341 51.7885 113.341 51.5997V39.2004C113.341 38.5936 113.247 38.1486 113.057 37.8654C112.881 37.5688 112.542 37.4204 112.041 37.4204V36.9957C112.474 37.0361 112.894 37.0563 113.301 37.0563C113.856 37.0563 114.384 37.0361 114.886 36.9957C115.387 36.9417 115.847 36.8676 116.267 36.7732ZM129.555 41.8502C130.544 41.8502 131.411 42.0322 132.156 42.3963C132.901 42.7604 133.483 43.347 133.903 44.1561C134.323 44.9652 134.533 46.0373 134.533 47.3723C134.533 48.7073 134.323 49.7793 133.903 50.5884C133.483 51.384 132.901 51.9638 132.156 52.3279C131.411 52.692 130.544 52.8741 129.555 52.8741C128.593 52.8741 127.733 52.692 126.974 52.3279C126.229 51.9638 125.64 51.384 125.207 50.5884C124.787 49.7793 124.577 48.7073 124.577 47.3723C124.577 46.0373 124.787 44.9652 125.207 44.1561C125.64 43.347 126.229 42.7604 126.974 42.3963C127.733 42.0322 128.593 41.8502 129.555 41.8502ZM129.555 42.2547C129.013 42.2547 128.559 42.6593 128.194 43.4684C127.828 44.264 127.645 45.5653 127.645 47.3723C127.645 49.1792 127.828 50.4805 128.194 51.2761C128.559 52.0717 129.013 52.4695 129.555 52.4695C130.11 52.4695 130.564 52.0717 130.916 51.2761C131.282 50.4805 131.465 49.1792 131.465 47.3723C131.465 45.5653 131.282 44.264 130.916 43.4684C130.564 42.6593 130.11 42.2547 129.555 42.2547ZM142.792 41.8502C143.225 41.8502 143.577 41.9446 143.848 42.1334C144.119 42.3087 144.316 42.5379 144.438 42.8211C144.573 43.1043 144.641 43.401 144.641 43.7111C144.641 44.2101 144.492 44.6213 144.194 44.945C143.909 45.2551 143.53 45.4102 143.056 45.4102C142.582 45.4102 142.209 45.2956 141.938 45.0663C141.681 44.8236 141.552 44.5067 141.552 44.1157C141.552 43.7381 141.634 43.4279 141.796 43.1852C141.972 42.929 142.189 42.7132 142.446 42.5379C142.257 42.484 142.067 42.4907 141.877 42.5582C141.62 42.5986 141.376 42.7065 141.146 42.8818C140.916 43.0436 140.719 43.2526 140.557 43.5088C140.394 43.7516 140.265 44.0213 140.171 44.3179C140.076 44.6011 140.028 44.8776 140.028 45.1472V50.5075C140.028 51.1548 140.184 51.593 140.496 51.8222C140.821 52.0515 141.302 52.1661 141.938 52.1661V52.5909C141.627 52.5774 141.173 52.5639 140.577 52.5504C139.981 52.5235 139.358 52.51 138.708 52.51C138.166 52.51 137.617 52.5235 137.062 52.5504C136.506 52.5639 136.086 52.5774 135.802 52.5909V52.1661C136.276 52.1661 136.608 52.065 136.798 51.8627C137.001 51.6604 137.102 51.2761 137.102 50.7097V44.3382C137.102 43.7313 137.007 43.2863 136.818 43.0032C136.642 42.7065 136.303 42.5582 135.802 42.5582V42.1334C136.235 42.1738 136.655 42.1941 137.062 42.1941C137.631 42.1941 138.159 42.1738 138.647 42.1334C139.148 42.0794 139.608 42.0053 140.028 41.9109V43.792C140.191 43.4279 140.408 43.0976 140.679 42.8009C140.949 42.5042 141.261 42.275 141.613 42.1132C141.965 41.9379 142.358 41.8502 142.792 41.8502ZM151.505 38.2295C152.033 38.2295 152.46 38.27 152.785 38.3509C153.11 38.4183 153.388 38.5194 153.618 38.6543C153.835 38.7487 154.031 38.8701 154.207 39.0184C154.397 39.1667 154.553 39.3488 154.675 39.5645C154.797 39.7803 154.857 40.023 154.857 40.2927C154.857 40.6972 154.702 41.0209 154.39 41.2636C154.079 41.5063 153.713 41.6277 153.293 41.6277C152.887 41.6277 152.534 41.5266 152.236 41.3243C151.952 41.122 151.81 40.8051 151.81 40.3736C151.81 40.0365 151.931 39.7331 152.175 39.4634C152.419 39.1802 152.731 39.0049 153.11 38.9375C153.015 38.8296 152.839 38.7419 152.582 38.6745C152.338 38.6071 152.067 38.5734 151.769 38.5734C151.065 38.5734 150.462 38.7959 149.96 39.2409C149.473 39.6724 149.229 40.3332 149.229 41.2232C149.229 41.5333 149.283 41.8637 149.392 42.2143C149.5 42.5649 149.71 42.9222 150.021 43.2863C150.252 43.2324 150.462 43.1919 150.651 43.165C150.855 43.138 151.024 43.1245 151.159 43.1245C151.403 43.1245 151.586 43.1785 151.708 43.2863C151.843 43.3807 151.911 43.5088 151.911 43.6707C151.911 43.792 151.857 43.8932 151.749 43.9741C151.64 44.055 151.505 44.0954 151.342 44.0954C151.112 44.0954 150.875 44.0347 150.631 43.9134C150.387 43.7785 150.191 43.6639 150.042 43.5695C149.405 43.8932 148.884 44.3112 148.477 44.8236C148.084 45.3226 147.888 45.9968 147.888 46.8463C147.888 47.7363 148.132 48.4713 148.619 49.0511C149.107 49.6175 149.791 50.049 150.672 50.3457C151.566 50.6288 152.616 50.7704 153.821 50.7704C154.499 50.7704 155.169 50.6963 155.833 50.5479C156.497 50.3996 157.093 50.1771 157.621 49.8804C158.163 49.5838 158.596 49.2197 158.921 48.7882C159.247 48.3432 159.409 47.8307 159.409 47.2509C159.409 47.0351 159.375 46.7654 159.307 46.4418C159.253 46.1047 159.111 45.7743 158.881 45.4507C158.65 45.1135 158.271 44.8371 157.743 44.6213L157.885 44.4393C158.617 44.6685 159.172 45.1001 159.551 45.7338C159.931 46.3676 160.12 47.0958 160.12 47.9184C160.12 48.8623 159.829 49.7119 159.246 50.467C158.664 51.2087 157.844 51.7953 156.788 52.2268C155.745 52.6583 154.519 52.8741 153.11 52.8741C151.986 52.8741 150.963 52.7594 150.042 52.5302C149.134 52.301 148.348 51.9706 147.685 51.5391C147.034 51.0941 146.527 50.5614 146.161 49.9411C145.809 49.3208 145.632 48.6196 145.632 47.8375C145.632 47.0823 145.788 46.4418 146.1 45.9159C146.425 45.3765 146.818 44.9382 147.278 44.6011C147.739 44.2505 148.199 43.9808 148.66 43.792C149.121 43.6032 149.486 43.4751 149.757 43.4077C149.337 43.2324 148.951 43.0301 148.599 42.8009C148.26 42.5582 147.983 42.275 147.766 41.9513C147.563 41.6277 147.461 41.2636 147.461 40.8591C147.461 40.4276 147.576 40.05 147.807 39.7263C148.037 39.3892 148.342 39.1128 148.721 38.897C149.114 38.6813 149.547 38.5194 150.021 38.4116C150.509 38.2902 151.004 38.2295 151.505 38.2295ZM159.49 37.9868C160.452 37.9868 161.231 38.2363 161.827 38.7352C162.423 39.2341 162.721 39.9354 162.721 40.8388C162.721 41.5266 162.552 42.1064 162.213 42.5784C161.888 43.0504 161.414 43.4347 160.791 43.7313C160.181 44.028 159.45 44.264 158.596 44.4393C158.407 44.5067 158.17 44.5876 157.885 44.682C157.601 44.7629 157.309 44.8438 157.011 44.9247C156.713 45.0057 156.422 45.0866 156.138 45.1675C155.867 45.2484 155.63 45.3158 155.426 45.3697C154.37 45.599 153.557 45.8619 152.988 46.1586C152.419 46.4418 152.135 46.8329 152.135 47.3318C152.135 47.6689 152.243 47.9588 152.46 48.2016C152.69 48.4443 152.975 48.6331 153.313 48.7679C153.652 48.9028 153.991 48.9702 154.329 48.9702C154.424 48.9702 154.526 48.9635 154.634 48.95C154.742 48.923 154.844 48.896 154.939 48.8691C155.034 48.8286 155.101 48.7949 155.142 48.7679C154.803 48.6601 154.546 48.4915 154.37 48.2623C154.207 48.0195 154.126 47.7431 154.126 47.4329C154.126 47.0014 154.282 46.671 154.593 46.4418C154.905 46.2126 155.291 46.0979 155.752 46.0979C156.239 46.0979 156.619 46.226 156.889 46.4823C157.174 46.7385 157.316 47.0688 157.316 47.4734C157.316 47.8914 157.187 48.242 156.93 48.5252C156.673 48.7949 156.327 48.9972 155.894 49.132C155.46 49.2534 154.973 49.3141 154.431 49.3141C153.902 49.3141 153.401 49.2197 152.927 49.0309C152.467 48.8421 152.094 48.5589 151.81 48.1813C151.539 47.7903 151.403 47.3048 151.403 46.725C151.403 46.0103 151.586 45.4169 151.952 44.945C152.318 44.4595 152.839 44.0617 153.516 43.7516C154.207 43.4279 155.02 43.1785 155.955 43.0032C156.239 42.9357 156.551 42.8616 156.889 42.7807C157.242 42.6863 157.601 42.5919 157.966 42.4975C158.332 42.4031 158.671 42.3019 158.982 42.1941C159.958 41.9513 160.71 41.6816 161.238 41.385C161.78 41.0883 162.051 40.6905 162.051 40.1916C162.051 39.8275 161.935 39.5106 161.705 39.2409C161.488 38.9577 161.204 38.7419 160.852 38.5936C160.5 38.4318 160.134 38.3509 159.754 38.3509C159.633 38.3509 159.517 38.3576 159.409 38.3711C159.314 38.3846 159.233 38.4116 159.165 38.452C159.504 38.5734 159.754 38.7554 159.917 38.9982C160.08 39.2409 160.161 39.4836 160.161 39.7263C160.161 40.1444 160.005 40.468 159.694 40.6972C159.382 40.913 158.996 41.0209 158.535 41.0209C158.075 41.0209 157.695 40.9063 157.397 40.677C157.099 40.4343 156.95 40.1039 156.95 39.6859C156.95 39.3218 157.052 39.0184 157.255 38.7757C157.472 38.5194 157.77 38.3239 158.149 38.1891C158.529 38.0542 158.976 37.9868 159.49 37.9868ZM169.68 38.2295L174.618 50.8918C174.807 51.3773 175.017 51.7144 175.247 51.9032C175.491 52.0785 175.708 52.1729 175.898 52.1863V52.5909C175.491 52.5639 175.01 52.5504 174.455 52.5504C173.913 52.5369 173.364 52.5302 172.809 52.5302C172.186 52.5302 171.597 52.5369 171.041 52.5504C170.486 52.5504 170.046 52.5639 169.721 52.5909V52.1863C170.411 52.1594 170.845 52.0447 171.021 51.8425C171.211 51.6267 171.17 51.175 170.899 50.4872L167.445 41.0816L167.81 40.5557L164.722 48.5657C164.424 49.3073 164.241 49.9141 164.173 50.3861C164.119 50.8581 164.153 51.2222 164.275 51.4784C164.41 51.7346 164.62 51.9166 164.905 52.0245C165.203 52.1189 165.555 52.1729 165.961 52.1863V52.5909C165.514 52.5639 165.088 52.5504 164.681 52.5504C164.275 52.5369 163.862 52.5302 163.442 52.5302C163.144 52.5302 162.859 52.5369 162.588 52.5504C162.331 52.5504 162.101 52.5639 161.898 52.5909V52.1863C162.182 52.1324 162.473 51.9504 162.771 51.6402C163.069 51.33 163.361 50.8041 163.645 50.0625L168.278 38.2295C168.495 38.243 168.725 38.2497 168.969 38.2497C169.226 38.2497 169.463 38.243 169.68 38.2295ZM171.102 46.7654V47.17H165.047L165.25 46.7654H171.102ZM183.801 41.8502C184.37 41.8502 184.831 41.9244 185.183 42.0727C185.549 42.2076 185.833 42.3963 186.036 42.6391C186.253 42.8953 186.409 43.2257 186.504 43.6302C186.612 44.0347 186.666 44.5809 186.666 45.2686V50.7097C186.666 51.2761 186.761 51.6604 186.951 51.8627C187.154 52.065 187.493 52.1661 187.967 52.1661V52.5909C187.709 52.5774 187.323 52.5639 186.809 52.5504C186.294 52.5235 185.786 52.51 185.285 52.51C184.77 52.51 184.262 52.5235 183.761 52.5504C183.273 52.5639 182.9 52.5774 182.643 52.5909V52.1661C183.049 52.1661 183.334 52.065 183.496 51.8627C183.659 51.6604 183.74 51.2761 183.74 50.7097V44.4191C183.74 44.0819 183.706 43.792 183.639 43.5493C183.571 43.2931 183.449 43.0976 183.273 42.9627C183.097 42.8144 182.833 42.7402 182.48 42.7402C182.115 42.7402 181.776 42.8413 181.465 43.0436C181.166 43.2459 180.923 43.5291 180.733 43.8932C180.557 44.2438 180.469 44.6416 180.469 45.0866V50.7097C180.469 51.2761 180.55 51.6604 180.713 51.8627C180.889 52.065 181.173 52.1661 181.566 52.1661V52.5909C181.322 52.5774 180.963 52.5639 180.489 52.5504C180.029 52.5235 179.548 52.51 179.046 52.51C178.532 52.51 178.003 52.5235 177.462 52.5504C176.92 52.5639 176.513 52.5774 176.242 52.5909V52.1661C176.717 52.1661 177.048 52.065 177.238 51.8627C177.441 51.6604 177.543 51.2761 177.543 50.7097V44.3382C177.543 43.7313 177.448 43.2863 177.258 43.0032C177.082 42.7065 176.744 42.5582 176.242 42.5582V42.1334C176.676 42.1738 177.096 42.1941 177.502 42.1941C178.071 42.1941 178.599 42.1738 179.087 42.1334C179.588 42.0794 180.049 42.0053 180.469 41.9109V43.7313C180.808 43.0436 181.268 42.5582 181.851 42.275C182.433 41.9918 183.083 41.8502 183.801 41.8502ZM198.721 36.7529V50.3659C198.721 50.9727 198.816 51.4244 199.006 51.7211C199.195 52.0043 199.534 52.1459 200.022 52.1459V52.5707C199.602 52.5302 199.182 52.51 198.762 52.51C198.193 52.51 197.658 52.5302 197.157 52.5707C196.669 52.6111 196.215 52.6853 195.795 52.7932V39.1802C195.795 38.5734 195.7 38.1284 195.511 37.8452C195.335 37.5485 194.996 37.4002 194.495 37.4002V36.9754C194.928 37.0159 195.348 37.0361 195.755 37.0361C196.31 37.0361 196.838 37.0159 197.339 36.9754C197.841 36.9215 198.301 36.8473 198.721 36.7529ZM193.54 41.8502C194.136 41.8502 194.657 41.9513 195.104 42.1536C195.565 42.3424 195.924 42.666 196.181 43.1245L195.937 43.347C195.761 43.0234 195.524 42.7941 195.226 42.6593C194.942 42.511 194.637 42.4368 194.312 42.4368C193.621 42.4368 193.072 42.8413 192.666 43.6504C192.26 44.446 192.063 45.6799 192.077 47.352C192.077 48.4982 192.151 49.4152 192.3 50.1029C192.463 50.7772 192.686 51.2626 192.971 51.5593C193.269 51.856 193.607 52.0043 193.987 52.0043C194.447 52.0043 194.86 51.8222 195.226 51.4582C195.592 51.0941 195.788 50.6019 195.815 49.9816L195.917 50.6895C195.714 51.4042 195.382 51.9504 194.921 52.3279C194.474 52.692 193.885 52.8741 193.154 52.8741C192.354 52.8741 191.636 52.6785 191 52.2875C190.377 51.8964 189.889 51.2963 189.537 50.4872C189.185 49.6647 189.008 48.6061 189.008 47.3116C189.008 46.0844 189.205 45.0731 189.598 44.2775C189.991 43.4684 190.526 42.8616 191.203 42.457C191.894 42.0525 192.673 41.8502 193.54 41.8502ZM206.111 41.8502C207.1 41.8502 207.967 42.0322 208.712 42.3963C209.457 42.7604 210.039 43.347 210.459 44.1561C210.879 44.9652 211.089 46.0373 211.089 47.3723C211.089 48.7073 210.879 49.7793 210.459 50.5884C210.039 51.384 209.457 51.9638 208.712 52.3279C207.967 52.692 207.1 52.8741 206.111 52.8741C205.149 52.8741 204.289 52.692 203.53 52.3279C202.785 51.9638 202.196 51.384 201.762 50.5884C201.342 49.7793 201.132 48.7073 201.132 47.3723C201.132 46.0373 201.342 44.9652 201.762 44.1561C202.196 43.347 202.785 42.7604 203.53 42.3963C204.289 42.0322 205.149 41.8502 206.111 41.8502ZM206.111 42.2547C205.569 42.2547 205.115 42.6593 204.749 43.4684C204.384 44.264 204.201 45.5653 204.201 47.3723C204.201 49.1792 204.384 50.4805 204.749 51.2761C205.115 52.0717 205.569 52.4695 206.111 52.4695C206.666 52.4695 207.12 52.0717 207.472 51.2761C207.838 50.4805 208.021 49.1792 208.021 47.3723C208.021 45.5653 207.838 44.264 207.472 43.4684C207.12 42.6593 206.666 42.2547 206.111 42.2547Z" fill="#F2E6D8"/>
</svg>
