<?xml version="1.0" encoding="UTF-8"?>
<!DOCTYPE svg PUBLIC "-//W3C//DTD SVG 1.1//EN" "http://www.w3.org/Graphics/SVG/1.1/DTD/svg11.dtd">
<svg xmlns="http://www.w3.org/2000/svg" version="1.1" width="300px" height="180px" style="shape-rendering:geometricPrecision; text-rendering:geometricPrecision; image-rendering:optimizeQuality; fill-rule:evenodd; clip-rule:evenodd" xmlns:xlink="http://www.w3.org/1999/xlink">
<g><path style="opacity:1" fill="#fdbb58" d="M -0.5,-0.5 C 99.5,-0.5 199.5,-0.5 299.5,-0.5C 299.5,59.5 299.5,119.5 299.5,179.5C 199.5,179.5 99.5,179.5 -0.5,179.5C -0.5,119.5 -0.5,59.5 -0.5,-0.5 Z"/></g>
<g><path style="opacity:1" fill="#e7a237" d="M 132.5,36.5 C 134.216,36.3713 135.883,36.038 137.5,35.5C 139.912,35.6941 140.912,37.0274 140.5,39.5C 142.604,39.7989 144.604,39.4656 146.5,38.5C 147.077,36.4501 148.41,35.4501 150.5,35.5C 151.708,36.2341 153.041,36.5674 154.5,36.5C 154.5,38.1667 154.5,39.8333 154.5,41.5C 161.097,42.8876 166.597,46.2209 171,51.5C 172.5,48.3333 174,45.1667 175.5,42C 169.027,37.1902 163.527,31.3569 159,24.5C 156.698,19.2455 157.031,14.2455 160,9.5C 160.597,15.3628 163.264,20.0295 168,23.5C 168.167,23 168.333,22.5 168.5,22C 166.085,17.3363 164.085,12.503 162.5,7.5C 173.34,7.67272 180.173,13.0061 183,23.5C 183.667,25.5 184.333,27.5 185,29.5C 185.18,33.9236 185.347,38.2569 185.5,42.5C 183.545,46.4455 181.211,50.1121 178.5,53.5C 171.536,53.9599 168.37,57.6265 169,64.5C 169.996,66.6605 171.496,68.3272 173.5,69.5C 174.919,70.4511 176.585,70.7845 178.5,70.5C 179.882,72.898 181.549,73.0647 183.5,71C 186.482,70.502 189.482,70.3354 192.5,70.5C 190.995,74.4837 187.995,76.9837 183.5,78C 177.934,78.7565 173.101,77.2565 169,73.5C 167.566,73.9304 166.399,74.7638 165.5,76C 171.126,81.6261 177.793,85.2928 185.5,87C 187.439,87.9078 188.439,89.4078 188.5,91.5C 186.5,91.5 184.5,91.5 182.5,91.5C 182.5,90.5 182.5,89.5 182.5,88.5C 181.791,87.596 180.791,87.2627 179.5,87.5C 179.5,88.8333 179.5,90.1667 179.5,91.5C 178.5,91.5 177.5,91.5 176.5,91.5C 176.5,90.1667 176.5,88.8333 176.5,87.5C 175.209,87.2627 174.209,87.596 173.5,88.5C 170.63,87.751 167.63,87.751 164.5,88.5C 160.05,90.7141 158.384,94.3808 159.5,99.5C 158.523,96.7131 158.19,93.7131 158.5,90.5C 158.5,89.5 158.5,88.5 158.5,87.5C 157.167,87.5 155.833,87.5 154.5,87.5C 154.5,86.5 154.5,85.5 154.5,84.5C 154.5,83.5 154.5,82.5 154.5,81.5C 153.5,81.5 152.5,81.5 151.5,81.5C 151.5,82.8333 151.5,84.1667 151.5,85.5C 145.484,87.1257 139.65,86.7924 134,84.5C 132.124,85.619 131.291,87.2856 131.5,89.5C 131.167,89.5 130.833,89.5 130.5,89.5C 128.898,87.9261 126.898,87.2594 124.5,87.5C 125.203,85.2843 126.536,83.451 128.5,82C 127,80.5 125.5,79 124,77.5C 122.661,81.9069 120.161,85.2402 116.5,87.5C 113.833,88.8333 111.167,88.8333 108.5,87.5C 108.5,88.8333 108.5,90.1667 108.5,91.5C 105.5,91.5 102.5,91.5 99.5,91.5C 99.2965,89.6096 99.9632,88.1096 101.5,87C 104.569,85.1539 107.902,84.1539 111.5,84C 114.99,81.0887 118.656,78.422 122.5,76C 121.333,74.8333 120.167,73.6667 119,72.5C 111.603,79.5777 103.77,80.0777 95.5,74C 94.6634,72.9887 94.33,71.8221 94.5,70.5C 98.8211,70.2275 102.988,70.8942 107,72.5C 108.459,72.1918 109.626,71.5251 110.5,70.5C 114.387,71.0546 117.387,69.7213 119.5,66.5C 119,66.1667 118.5,65.8333 118,65.5C 115.79,67.1109 113.29,67.7776 110.5,67.5C 109.391,67.4431 108.391,67.1098 107.5,66.5C 107.461,65.4168 107.127,64.4168 106.5,63.5C 111.12,62.5067 115.786,62.1734 120.5,62.5C 120.237,55.5835 116.571,52.5835 109.5,53.5C 106.777,50.9376 104.611,47.9376 103,44.5C 100.035,30.9543 103.535,19.4543 113.5,10C 116.923,8.09614 120.59,7.2628 124.5,7.5C 123.307,12.7312 121.307,17.7312 118.5,22.5C 118.667,22.8333 118.833,23.1667 119,23.5C 123.636,20.3608 126.469,16.0274 127.5,10.5C 128.086,10.7093 128.586,11.0426 129,11.5C 130.949,21.6539 127.782,29.8205 119.5,36C 116.971,38.0285 114.304,39.8619 111.5,41.5C 113.274,44.7148 114.774,48.0482 116,51.5C 120.403,46.2209 125.903,42.8876 132.5,41.5C 132.5,39.8333 132.5,38.1667 132.5,36.5 Z"/></g>
<g><path style="opacity:1" fill="#815112" d="M 138.5,42.5 C 139.494,51.6517 139.827,60.985 139.5,70.5C 138.209,70.7373 137.209,70.404 136.5,69.5C 138.471,60.8955 139.138,51.8955 138.5,42.5 Z"/></g>
<g><path style="opacity:1" fill="#c79a54" d="M 137.5,35.5 C 135.883,36.038 134.216,36.3713 132.5,36.5C 129.027,34.4372 128.694,31.9372 131.5,29C 136.921,27.7201 138.921,29.8868 137.5,35.5 Z"/></g>
<g><path style="opacity:1" fill="#c69952" d="M 154.5,36.5 C 153.041,36.5674 151.708,36.2341 150.5,35.5C 148.074,30.028 149.741,27.8613 155.5,29C 158.306,31.9372 157.973,34.4372 154.5,36.5 Z"/></g>
<g><path style="opacity:1" fill="#140d05" d="M 96.5,45.5 C 101.65,46.3274 103.65,49.3274 102.5,54.5C 101.833,53.5 101.167,52.5 100.5,51.5C 100.489,49.9826 99.8228,48.8159 98.5,48C 95.5184,47.502 92.5184,47.3354 89.5,47.5C 89.5,50.8333 89.5,54.1667 89.5,57.5C 92.1667,58.1667 94.8333,58.8333 97.5,59.5C 95.0521,60.4731 92.3854,60.8064 89.5,60.5C 89.5,63.5 89.5,66.5 89.5,69.5C 87.5332,61.9032 86.8665,53.9032 87.5,45.5C 90.5,45.5 93.5,45.5 96.5,45.5 Z"/></g>
<g><path style="opacity:1" fill="#785325" d="M 96.5,45.5 C 93.5,45.5 90.5,45.5 87.5,45.5C 86.8665,53.9032 87.5332,61.9032 89.5,69.5C 88.791,70.404 87.791,70.7373 86.5,70.5C 86.5,61.8333 86.5,53.1667 86.5,44.5C 90.0419,44.1872 93.3752,44.5206 96.5,45.5 Z"/></g>
<g><path style="opacity:1" fill="#50330c" d="M 152.5,47.5 C 153.5,47.5 154.5,47.5 155.5,47.5C 155.5,48.5 155.5,49.5 155.5,50.5C 154.5,50.5 153.5,50.5 152.5,50.5C 152.5,49.5 152.5,48.5 152.5,47.5 Z"/></g>
<g><path style="opacity:1" fill="#251b0c" d="M 188.5,42.5 C 189.675,42.281 190.675,42.6143 191.5,43.5C 186.599,54.2158 185.599,53.8825 188.5,42.5 Z"/></g>
<g><path style="opacity:1" fill="#f0b04d" d="M 100.5,51.5 C 100.822,53.7224 100.155,55.5557 98.5,57C 95.5184,57.498 92.5184,57.6646 89.5,57.5C 89.5,54.1667 89.5,50.8333 89.5,47.5C 92.5184,47.3354 95.5184,47.502 98.5,48C 99.8228,48.8159 100.489,49.9826 100.5,51.5 Z"/></g>
<g><path style="opacity:1" fill="#855618" d="M 163.5,47.5 C 164.461,49.2646 164.795,51.2646 164.5,53.5C 165.833,53.5 167.167,53.5 168.5,53.5C 168.5,54.5 168.5,55.5 168.5,56.5C 167.167,56.5 165.833,56.5 164.5,56.5C 164.819,61.3633 164.486,66.03 163.5,70.5C 163.5,65.5 163.5,60.5 163.5,55.5C 168.833,55.1667 168.833,54.8333 163.5,54.5C 163.5,52.1667 163.5,49.8333 163.5,47.5 Z"/></g>
<g><path style="opacity:1" fill="#482b06" d="M 163.5,47.5 C 163.5,49.8333 163.5,52.1667 163.5,54.5C 168.833,54.8333 168.833,55.1667 163.5,55.5C 163.5,60.5 163.5,65.5 163.5,70.5C 161.564,66.2853 160.897,61.6186 161.5,56.5C 160.167,56.5 158.833,56.5 157.5,56.5C 157.5,55.5 157.5,54.5 157.5,53.5C 158.833,53.5 160.167,53.5 161.5,53.5C 161.025,50.9179 161.692,48.9179 163.5,47.5 Z"/></g>
<g><path style="opacity:1" fill="#1b1104" d="M 180.5,54.5 C 181.71,54.9321 182.71,55.5987 183.5,56.5C 183.672,57.4916 183.338,58.1583 182.5,58.5C 181.5,57.8333 180.5,57.1667 179.5,56.5C 178.391,55.71 177.058,55.21 175.5,55C 177.134,54.5065 178.801,54.3398 180.5,54.5 Z"/></g>
<g><path style="opacity:1" fill="#51300b" d="M 142.5,53.5 C 144.124,53.3601 145.29,54.0267 146,55.5C 147.444,53.8446 149.278,53.178 151.5,53.5C 151.5,54.5 151.5,55.5 151.5,56.5C 148.762,55.9648 146.928,56.9648 146,59.5C 145.501,63.1516 145.335,66.8183 145.5,70.5C 144.5,70.5 143.5,70.5 142.5,70.5C 142.5,64.8333 142.5,59.1667 142.5,53.5 Z"/></g>
<g><path style="opacity:1" fill="#442908" d="M 100.5,51.5 C 101.167,52.5 101.833,53.5 102.5,54.5C 101.833,57.1667 100.167,58.8333 97.5,59.5C 94.8333,58.8333 92.1667,58.1667 89.5,57.5C 92.5184,57.6646 95.5184,57.498 98.5,57C 100.155,55.5557 100.822,53.7224 100.5,51.5 Z"/></g>
<g><path style="opacity:1" fill="#181004" d="M 108.5,54.5 C 110.993,54.1307 111.66,54.7973 110.5,56.5C 108.57,56.7706 107.236,57.7706 106.5,59.5C 105.662,59.1583 105.328,58.4916 105.5,57.5C 106.167,56.1667 107.167,55.1667 108.5,54.5 Z"/></g>
<g><path style="opacity:1" fill="#4f2d07" d="M 152.5,53.5 C 153.5,53.5 154.5,53.5 155.5,53.5C 155.5,59.1667 155.5,64.8333 155.5,70.5C 154.5,70.5 153.5,70.5 152.5,70.5C 152.5,64.8333 152.5,59.1667 152.5,53.5 Z"/></g>
<g><path style="opacity:1" fill="#e8aa46" d="M 110.5,56.5 C 113.596,55.9066 115.929,56.9066 117.5,59.5C 113.685,60.8077 110.019,60.8077 106.5,59.5C 107.236,57.7706 108.57,56.7706 110.5,56.5 Z"/></g>
<g><path style="opacity:1" fill="#4d2f0b" d="M 178.5,53.5 C 179.492,53.3284 180.158,53.6618 180.5,54.5C 178.801,54.3398 177.134,54.5065 175.5,55C 177.058,55.21 178.391,55.71 179.5,56.5C 171.371,56.2937 169.371,59.7937 173.5,67C 175.473,67.4955 177.473,67.6621 179.5,67.5C 177.5,68.1667 175.5,68.8333 173.5,69.5C 171.496,68.3272 169.996,66.6605 169,64.5C 168.37,57.6265 171.536,53.9599 178.5,53.5 Z"/></g>
<g><path style="opacity:1" fill="#1a1407" d="M 195.5,53.5 C 198.602,53.154 201.435,53.8207 204,55.5C 204.591,56.4835 204.257,57.1501 203,57.5C 201.604,56.6057 200.104,55.9391 198.5,55.5C 195.604,56.0237 194.937,57.5237 196.5,60C 199.609,60.644 202.443,61.8107 205,63.5C 206.178,68.6613 204.012,70.9947 198.5,70.5C 196.088,70.5938 194.255,69.5938 193,67.5C 192.409,66.5165 192.743,65.8499 194,65.5C 195.829,68.2036 198.329,69.037 201.5,68C 202.833,66.6667 202.833,65.3333 201.5,64C 193.928,63.318 191.928,59.818 195.5,53.5 Z"/></g>
<g><path style="opacity:1" fill="#492a07" d="M 108.5,54.5 C 108.5,53.8333 108.833,53.5 109.5,53.5C 116.571,52.5835 120.237,55.5835 120.5,62.5C 115.786,62.1734 111.12,62.5067 106.5,63.5C 107.127,64.4168 107.461,65.4168 107.5,66.5C 106.604,65.4937 105.938,65.4937 105.5,66.5C 102.833,63.5 102.833,60.5 105.5,57.5C 105.328,58.4916 105.662,59.1583 106.5,59.5C 110.019,60.8077 113.685,60.8077 117.5,59.5C 115.929,56.9066 113.596,55.9066 110.5,56.5C 111.66,54.7973 110.993,54.1307 108.5,54.5 Z"/></g>
<g><path style="opacity:1" fill="#4a2c05" d="M 138.5,42.5 C 139.138,51.8955 138.471,60.8955 136.5,69.5C 135.503,68.2875 134.503,68.4542 133.5,70C 126.765,71.6023 123.098,68.9356 122.5,62C 123.92,53.9566 128.253,51.7899 135.5,55.5C 135.877,50.7569 136.877,46.4236 138.5,42.5 Z"/></g>
<g><path style="opacity:1" fill="#e6a034" d="M 127.5,56.5 C 133.83,55.6662 136.663,58.3329 136,64.5C 132.333,68.5 128.667,68.5 125,64.5C 124.018,61.2253 124.851,58.5586 127.5,56.5 Z"/></g>
<g><path style="opacity:1" fill="#e4a139" d="M 179.5,56.5 C 180.5,57.1667 181.5,57.8333 182.5,58.5C 184.374,62.4703 183.374,65.4703 179.5,67.5C 177.473,67.6621 175.473,67.4955 173.5,67C 169.371,59.7937 171.371,56.2937 179.5,56.5 Z"/></g>
<g><path style="opacity:1" fill="#2f1e0c" d="M 183.5,56.5 C 186.341,60.8168 186.008,64.9834 182.5,69C 181.255,69.7914 179.922,70.2914 178.5,70.5C 176.585,70.7845 174.919,70.4511 173.5,69.5C 175.5,68.8333 177.5,68.1667 179.5,67.5C 183.374,65.4703 184.374,62.4703 182.5,58.5C 183.338,58.1583 183.672,57.4916 183.5,56.5 Z"/></g>
<g><path style="opacity:1" fill="#160b02" d="M 107.5,66.5 C 108.391,67.1098 109.391,67.4431 110.5,67.5C 111.609,68.29 112.942,68.79 114.5,69C 112.527,69.4955 110.527,69.6621 108.5,69.5C 107.167,68.8333 106.167,67.8333 105.5,66.5C 105.938,65.4937 106.604,65.4937 107.5,66.5 Z"/></g>
<g><path style="opacity:1" fill="#51310c" d="M 110.5,70.5 C 109.508,70.6716 108.842,70.3382 108.5,69.5C 110.527,69.6621 112.527,69.4955 114.5,69C 112.942,68.79 111.609,68.29 110.5,67.5C 113.29,67.7776 115.79,67.1109 118,65.5C 118.5,65.8333 119,66.1667 119.5,66.5C 117.387,69.7213 114.387,71.0546 110.5,70.5 Z"/></g>
<g><path style="opacity:1" fill="#815727" d="M 35.5,79.5 C 32.5,79.5 29.5,79.5 26.5,79.5C 26.5,87.5 26.5,95.5 26.5,103.5C 30.1667,103.5 33.8333,103.5 37.5,103.5C 33.7016,104.483 29.7016,104.817 25.5,104.5C 25.5,95.8333 25.5,87.1667 25.5,78.5C 29.0419,78.1872 32.3752,78.5206 35.5,79.5 Z"/></g>
<g><path style="opacity:1" fill="#f0b452" d="M 37.5,83.5 C 37.6747,85.6208 37.3414,87.6208 36.5,89.5C 33.8333,89.5 31.1667,89.5 28.5,89.5C 28.5,86.8333 28.5,84.1667 28.5,81.5C 31.8774,81.0679 34.8774,81.7345 37.5,83.5 Z"/></g>
<g><path style="opacity:1" fill="#66471c" d="M 154.5,84.5 C 152.824,85.1834 152.157,86.5168 152.5,88.5C 151.127,88.3433 149.793,88.51 148.5,89C 149.737,89.2321 150.737,89.7321 151.5,90.5C 150.167,90.5 148.833,90.5 147.5,90.5C 147.5,89.5 147.5,88.5 147.5,87.5C 149.483,87.8432 150.817,87.1765 151.5,85.5C 151.5,84.1667 151.5,82.8333 151.5,81.5C 152.5,81.5 153.5,81.5 154.5,81.5C 154.5,82.5 154.5,83.5 154.5,84.5 Z"/></g>
<g><path style="opacity:1" fill="#1b1206" d="M 247.5,81.5 C 247.5,83.8333 247.5,86.1667 247.5,88.5C 248.873,88.3433 250.207,88.51 251.5,89C 250.263,89.2321 249.263,89.7321 248.5,90.5C 248.135,95.0937 247.135,99.427 245.5,103.5C 245.5,99.1667 245.5,94.8333 245.5,90.5C 244.167,90.5 242.833,90.5 241.5,90.5C 241.5,89.5 241.5,88.5 241.5,87.5C 242.833,87.5 244.167,87.5 245.5,87.5C 245.025,84.9179 245.692,82.9179 247.5,81.5 Z"/></g>
<g><path style="opacity:1" fill="#684724" d="M 247.5,81.5 C 248.461,83.2646 248.795,85.2646 248.5,87.5C 249.833,87.5 251.167,87.5 252.5,87.5C 252.5,88.5 252.5,89.5 252.5,90.5C 251.167,90.5 249.833,90.5 248.5,90.5C 249.263,89.7321 250.263,89.2321 251.5,89C 250.207,88.51 248.873,88.3433 247.5,88.5C 247.5,86.1667 247.5,83.8333 247.5,81.5 Z"/></g>
<g><path style="opacity:1" fill="#5d471d" d="M 67.5,89.5 C 66.4341,90.6921 65.6008,90.3588 65,88.5C 64.3333,93.5 64.3333,98.5 65,103.5C 65.1805,100.305 65.6805,97.3054 66.5,94.5C 66.5,97.8333 66.5,101.167 66.5,104.5C 65.5,104.5 64.5,104.5 63.5,104.5C 63.5,98.8333 63.5,93.1667 63.5,87.5C 65.1993,87.5271 66.5326,88.1938 67.5,89.5 Z"/></g>
<g><path style="opacity:1" fill="#40290c" d="M 116.5,87.5 C 116.5,88.5 116.5,89.5 116.5,90.5C 114.486,90.3915 112.82,91.0582 111.5,92.5C 110.791,91.596 109.791,91.2627 108.5,91.5C 108.5,90.1667 108.5,88.8333 108.5,87.5C 111.167,88.8333 113.833,88.8333 116.5,87.5 Z"/></g>
<g><path style="opacity:1" fill="#110b01" d="M 154.5,84.5 C 154.5,85.5 154.5,86.5 154.5,87.5C 154.918,88.2216 155.584,88.7216 156.5,89C 155.584,89.2784 154.918,89.7784 154.5,90.5C 154.5,94.8333 154.5,99.1667 154.5,103.5C 152.865,99.427 151.865,95.0937 151.5,90.5C 150.737,89.7321 149.737,89.2321 148.5,89C 149.793,88.51 151.127,88.3433 152.5,88.5C 152.157,86.5168 152.824,85.1834 154.5,84.5 Z"/></g>
<g><path style="opacity:1" fill="#c18b3d" d="M 193.5,104.5 C 193.828,99.1254 193.495,93.7921 192.5,88.5C 191.833,91.6417 191.166,94.6417 190.5,97.5C 190.5,94.1667 190.5,90.8333 190.5,87.5C 191.833,87.5 193.167,87.5 194.5,87.5C 194.822,93.358 194.489,99.0247 193.5,104.5 Z"/></g>
<g><path style="opacity:1" fill="#1e160a" d="M 218.5,89.5 C 219.566,90.6921 220.399,90.3588 221,88.5C 221.667,93.5 221.667,98.5 221,103.5C 220.302,102.309 219.469,101.309 218.5,100.5C 221.376,92.38 218.709,89.38 210.5,91.5C 207.579,95.2775 207.912,98.6109 211.5,101.5C 213.5,102.167 215.5,102.833 217.5,103.5C 210.541,105.85 206.541,103.35 205.5,96C 207.224,88.0462 211.558,85.8796 218.5,89.5 Z"/></g>
<g><path style="opacity:1" fill="#0f0803" d="M 35.5,79.5 C 40.2579,80.9196 41.5912,83.9196 39.5,88.5C 38.8333,86.8333 38.1667,85.1667 37.5,83.5C 34.8774,81.7345 31.8774,81.0679 28.5,81.5C 28.5,84.1667 28.5,86.8333 28.5,89.5C 31.1667,89.5 33.8333,89.5 36.5,89.5C 37.0431,89.56 37.3764,89.8933 37.5,90.5C 34.3583,91.1674 31.3583,91.834 28.5,92.5C 28.5,95.5 28.5,98.5 28.5,101.5C 31.8333,102.167 35.1667,102.833 38.5,103.5C 38.1667,103.5 37.8333,103.5 37.5,103.5C 33.8333,103.5 30.1667,103.5 26.5,103.5C 26.5,95.5 26.5,87.5 26.5,79.5C 29.5,79.5 32.5,79.5 35.5,79.5 Z"/></g>
<g><path style="opacity:1" fill="#a37631" d="M 57.5,88.5 C 58.209,87.596 59.209,87.2627 60.5,87.5C 60.8222,93.358 60.4889,99.0247 59.5,104.5C 60.1128,98.7291 59.4461,93.3958 57.5,88.5 Z"/></g>
<g><path style="opacity:1" fill="#090703" d="M 66.5,94.5 C 65.6805,97.3054 65.1805,100.305 65,103.5C 64.3333,98.5 64.3333,93.5 65,88.5C 65.6008,90.3588 66.4341,90.6921 67.5,89.5C 68.287,87.8958 69.6203,87.2291 71.5,87.5C 71.5,88.5 71.5,89.5 71.5,90.5C 68.6333,90.3692 66.9666,91.7026 66.5,94.5 Z"/></g>
<g><path style="opacity:1" fill="#4c2f0a" d="M 122.5,88.5 C 122.842,87.6618 123.508,87.3284 124.5,87.5C 126.898,87.2594 128.898,87.9261 130.5,89.5C 129.662,89.8417 129.328,90.5084 129.5,91.5C 127.621,90.6586 125.621,90.3253 123.5,90.5C 123.672,89.5084 123.338,88.8417 122.5,88.5 Z"/></g>
<g><path style="opacity:1" fill="#5f3815" d="M 154.5,87.5 C 155.833,87.5 157.167,87.5 158.5,87.5C 158.5,88.5 158.5,89.5 158.5,90.5C 157.167,90.5 155.833,90.5 154.5,90.5C 154.918,89.7784 155.584,89.2784 156.5,89C 155.584,88.7216 154.918,88.2216 154.5,87.5 Z"/></g>
<g><path style="opacity:1" fill="#100b04" d="M 202.5,87.5 C 203.5,87.5 204.5,87.5 205.5,87.5C 205.5,88.5 205.5,89.5 205.5,90.5C 203.856,90.2865 202.356,90.6198 201,91.5C 200.294,96.1824 199.127,100.516 197.5,104.5C 197.172,99.1254 197.505,93.7921 198.5,88.5C 200.03,90.7615 201.363,90.4282 202.5,87.5 Z"/></g>
<g><path style="opacity:1" fill="#1a1207" d="M 57.5,88.5 C 59.4461,93.3958 60.1128,98.7291 59.5,104.5C 58.2652,104.279 57.2652,103.612 56.5,102.5C 48.9379,106.691 44.6046,104.524 43.5,96C 43.5296,90.9712 46.0296,88.1379 51,87.5C 53.4059,87.7029 55.4059,88.7029 57,90.5C 57.4643,89.9056 57.631,89.2389 57.5,88.5 Z"/></g>
<g><path style="opacity:1" fill="#ebaf54" d="M 48.5,90.5 C 56.7443,90.2276 59.0776,93.7276 55.5,101C 49.8303,103.663 46.497,101.829 45.5,95.5C 46.0924,93.5775 47.0924,91.9108 48.5,90.5 Z"/></g>
<g><path style="opacity:1" fill="#1b1408" d="M 138.5,87.5 C 141.798,87.0162 144.464,88.0162 146.5,90.5C 146.167,90.8333 145.833,91.1667 145.5,91.5C 142.763,88.6971 140.429,88.8638 138.5,92C 138.645,92.772 138.978,93.4387 139.5,94C 145.329,94.151 147.829,96.9844 147,102.5C 143.264,105.089 139.598,105.089 136,102.5C 135.251,101.365 135.417,100.365 136.5,99.5C 138.594,102.031 141.261,102.864 144.5,102C 145.022,101.439 145.355,100.772 145.5,100C 142.629,97.6571 139.463,95.8238 136,94.5C 135.333,93.1667 135.333,91.8333 136,90.5C 137.045,89.6266 137.878,88.6266 138.5,87.5 Z"/></g>
<g><path style="opacity:1" fill="#0b0501" d="M 108.5,91.5 C 109.791,91.2627 110.791,91.596 111.5,92.5C 111.5,93.1667 111.5,93.8333 111.5,94.5C 111.11,97.7967 110.11,100.797 108.5,103.5C 108.5,99.5 108.5,95.5 108.5,91.5 Z"/></g>
<g><path style="opacity:1" fill="#e6a038" d="M 123.5,90.5 C 125.621,90.3253 127.621,90.6586 129.5,91.5C 130.401,92.2905 131.068,93.2905 131.5,94.5C 127.629,94.815 123.962,94.4816 120.5,93.5C 121.167,92.1667 122.167,91.1667 123.5,90.5 Z"/></g>
<g><path style="opacity:1" fill="#170e04" d="M 130.5,89.5 C 130.833,89.5 131.167,89.5 131.5,89.5C 132.167,90.5 132.833,91.5 133.5,92.5C 133.5,93.8333 133.5,95.1667 133.5,96.5C 131.801,96.6602 130.134,96.4935 128.5,96C 129.737,95.7679 130.737,95.2679 131.5,94.5C 131.068,93.2905 130.401,92.2905 129.5,91.5C 129.328,90.5084 129.662,89.8417 130.5,89.5 Z"/></g>
<g><path style="opacity:1" fill="#492b08" d="M 164.5,88.5 C 166.167,89.1667 167.833,89.8333 169.5,90.5C 164.845,89.8193 162.178,91.8193 161.5,96.5C 162.601,100.591 165.267,102.258 169.5,101.5C 167.781,102.022 166.448,103.022 165.5,104.5C 162.885,103.55 160.885,101.883 159.5,99.5C 158.384,94.3808 160.05,90.7141 164.5,88.5 Z"/></g>
<g><path style="opacity:1" fill="#eeaf4a" d="M 169.5,90.5 C 173.169,92.438 174.336,95.438 173,99.5C 172.184,100.823 171.017,101.489 169.5,101.5C 165.267,102.258 162.601,100.591 161.5,96.5C 162.178,91.8193 164.845,89.8193 169.5,90.5 Z"/></g>
<g><path style="opacity:1" fill="#1a1206" d="M 173.5,88.5 C 175.446,93.3958 176.113,98.7291 175.5,104.5C 174.25,104.423 173.417,103.756 173,102.5C 170.699,103.867 168.199,104.534 165.5,104.5C 166.448,103.022 167.781,102.022 169.5,101.5C 171.017,101.489 172.184,100.823 173,99.5C 174.336,95.438 173.169,92.438 169.5,90.5C 167.833,89.8333 166.167,89.1667 164.5,88.5C 167.63,87.751 170.63,87.751 173.5,88.5 Z"/></g>
<g><path style="opacity:1" fill="#845720" d="M 182.5,88.5 C 180.586,91.6843 179.92,95.351 180.5,99.5C 179.527,97.0521 179.194,94.3854 179.5,91.5C 179.5,90.1667 179.5,88.8333 179.5,87.5C 180.791,87.2627 181.791,87.596 182.5,88.5 Z"/></g>
<g><path style="opacity:1" fill="#704c25" d="M 248.5,90.5 C 248.5,95.1667 248.5,99.8333 248.5,104.5C 247.209,104.737 246.209,104.404 245.5,103.5C 247.135,99.427 248.135,95.0937 248.5,90.5 Z"/></g>
<g><path style="opacity:1" fill="#fbba56" d="M 28.5,92.5 C 31.5184,92.3354 34.5184,92.502 37.5,93C 40.1667,95.6667 40.1667,98.3333 37.5,101C 34.5184,101.498 31.5184,101.665 28.5,101.5C 28.5,98.5 28.5,95.5 28.5,92.5 Z"/></g>
<g><path style="opacity:1" fill="#1b1207" d="M 122.5,88.5 C 123.338,88.8417 123.672,89.5084 123.5,90.5C 122.167,91.1667 121.167,92.1667 120.5,93.5C 120.5,95.1667 120.5,96.8333 120.5,98.5C 120.833,99.1667 121.167,99.8333 121.5,100.5C 121.672,101.492 121.338,102.158 120.5,102.5C 117.167,98.99 116.667,94.99 119,90.5C 120.113,89.695 121.279,89.0283 122.5,88.5 Z"/></g>
<g><path style="opacity:1" fill="#855d25" d="M 173.5,88.5 C 174.209,87.596 175.209,87.2627 176.5,87.5C 176.5,88.8333 176.5,90.1667 176.5,91.5C 176.818,96.0323 176.485,100.366 175.5,104.5C 176.113,98.7291 175.446,93.3958 173.5,88.5 Z"/></g>
<g><path style="opacity:1" fill="#f5b654" d="M 218.5,100.5 C 216.283,101.369 213.95,101.702 211.5,101.5C 207.912,98.6109 207.579,95.2775 210.5,91.5C 218.709,89.38 221.376,92.38 218.5,100.5 Z"/></g>
<g><path style="opacity:1" fill="#140e03" d="M 239.5,91.5 C 240.089,95.9707 239.423,99.9707 237.5,103.5C 237.666,99.4862 237.499,95.4862 237,91.5C 233.794,89.8756 231.128,90.5422 229,93.5C 228.825,97.211 228.325,100.878 227.5,104.5C 226.167,99.1667 226.167,93.8333 227.5,88.5C 228.192,89.0253 228.692,89.6919 229,90.5C 233.033,86.224 236.533,86.5573 239.5,91.5 Z"/></g>
<g><path style="opacity:1" fill="#5b431e" d="M 239.5,91.5 C 240.485,95.6344 240.818,99.9677 240.5,104.5C 239.209,104.737 238.209,104.404 237.5,103.5C 239.423,99.9707 240.089,95.9707 239.5,91.5 Z"/></g>
<g><path style="opacity:1" fill="#1b1307" d="M 86.5,87.5 C 93.1764,86.9871 96.843,89.9871 97.5,96.5C 92.8333,96.5 88.1667,96.5 83.5,96.5C 83.2965,98.3904 83.9632,99.8904 85.5,101C 88.9342,101.891 92.1009,101.391 95,99.5C 96.726,100.648 96.5593,101.815 94.5,103C 85.099,105.94 80.599,102.44 81,92.5C 82.7297,90.5981 84.563,88.9314 86.5,87.5 Z"/></g>
<g><path style="opacity:1" fill="#6d4d24" d="M 84.5,92.5 C 85.6936,93.7773 87.3603,94.4439 89.5,94.5C 91.3693,94.4932 93.036,94.1599 94.5,93.5C 95.0431,93.56 95.3764,93.8933 95.5,94.5C 91.5546,95.4909 87.5546,95.8242 83.5,95.5C 83.2627,94.209 83.596,93.209 84.5,92.5 Z"/></g>
<g><path style="opacity:1" fill="#f4b44e" d="M 94.5,93.5 C 93.036,94.1599 91.3693,94.4932 89.5,94.5C 87.3603,94.4439 85.6936,93.7773 84.5,92.5C 88.1979,89.5624 91.5312,89.8957 94.5,93.5 Z"/></g>
<g><path style="opacity:1" fill="#a67b39" d="M 202.5,87.5 C 201.363,90.4282 200.03,90.7615 198.5,88.5C 197.505,93.7921 197.172,99.1254 197.5,104.5C 196.511,99.0247 196.178,93.358 196.5,87.5C 198.5,87.5 200.5,87.5 202.5,87.5 Z"/></g>
<g><path style="opacity:1" fill="#1c1408" d="M 269.5,94.5 C 265.087,96.1384 260.421,97.1384 255.5,97.5C 257.234,101.332 260.234,102.498 264.5,101C 265.711,99.4222 267.045,99.2555 268.5,100.5C 263.675,105.784 258.842,105.784 254,100.5C 251.631,91.5294 255.131,87.3627 264.5,88C 267.493,89.1585 269.16,91.3252 269.5,94.5 Z"/></g>
<g><path style="opacity:1" fill="#6f4f24" d="M 256.5,93.5 C 259.833,94.8333 263.167,94.8333 266.5,93.5C 267.043,93.56 267.376,93.8933 267.5,94.5C 263.5,95.8333 259.5,95.8333 255.5,94.5C 255.624,93.8933 255.957,93.56 256.5,93.5 Z"/></g>
<g><path style="opacity:1" fill="#f5b551" d="M 266.5,93.5 C 263.167,94.8333 259.833,94.8333 256.5,93.5C 257.286,91.2649 258.952,90.2649 261.5,90.5C 263.942,90.2858 265.608,91.2858 266.5,93.5 Z"/></g>
<g><path style="opacity:1" fill="#6a4519" d="M 133.5,92.5 C 134.451,93.9187 134.784,95.5853 134.5,97.5C 129.637,97.1805 124.97,97.5139 120.5,98.5C 120.5,96.8333 120.5,95.1667 120.5,93.5C 123.962,94.4816 127.629,94.815 131.5,94.5C 130.737,95.2679 129.737,95.7679 128.5,96C 130.134,96.4935 131.801,96.6602 133.5,96.5C 133.5,95.1667 133.5,93.8333 133.5,92.5 Z"/></g>
<g><path style="opacity:1" fill="#7e5b26" d="M 269.5,94.5 C 270.404,95.209 270.737,96.209 270.5,97.5C 265.5,97.5 260.5,97.5 255.5,97.5C 260.421,97.1384 265.087,96.1384 269.5,94.5 Z"/></g>
<g><path style="opacity:1" fill="#332513" d="M 37.5,83.5 C 38.1667,85.1667 38.8333,86.8333 39.5,88.5C 39.1961,89.1499 38.8627,89.8165 38.5,90.5C 43.7335,94.7905 43.7335,99.1238 38.5,103.5C 35.1667,102.833 31.8333,102.167 28.5,101.5C 31.5184,101.665 34.5184,101.498 37.5,101C 40.1667,98.3333 40.1667,95.6667 37.5,93C 34.5184,92.502 31.5184,92.3354 28.5,92.5C 31.3583,91.834 34.3583,91.1674 37.5,90.5C 37.3764,89.8933 37.0431,89.56 36.5,89.5C 37.3414,87.6208 37.6747,85.6208 37.5,83.5 Z"/></g>
<g><path style="opacity:1" fill="#1a1106" d="M 182.5,88.5 C 182.5,89.5 182.5,90.5 182.5,91.5C 182.335,94.5184 182.502,97.5184 183,100.5C 184.938,102.978 187.105,103.145 189.5,101C 190.337,99.9887 190.67,98.8221 190.5,97.5C 191.166,94.6417 191.833,91.6417 192.5,88.5C 193.495,93.7921 193.828,99.1254 193.5,104.5C 192.265,104.279 191.265,103.612 190.5,102.5C 188.119,104.392 185.453,104.892 182.5,104C 180.963,102.89 180.297,101.39 180.5,99.5C 179.92,95.351 180.586,91.6843 182.5,88.5 Z"/></g>
<g><path style="opacity:1" fill="#6e4a21" d="M 111.5,94.5 C 111.5,97.8333 111.5,101.167 111.5,104.5C 110.209,104.737 109.209,104.404 108.5,103.5C 110.11,100.797 111.11,97.7967 111.5,94.5 Z"/></g>
<g><path style="opacity:1" fill="#8e612a" d="M 151.5,90.5 C 151.865,95.0937 152.865,99.427 154.5,103.5C 153.791,104.404 152.791,104.737 151.5,104.5C 151.5,99.8333 151.5,95.1667 151.5,90.5 Z"/></g>
<g><path style="opacity:1" fill="#443116" d="M 217.5,103.5 C 215.5,102.833 213.5,102.167 211.5,101.5C 213.95,101.702 216.283,101.369 218.5,100.5C 219.469,101.309 220.302,102.309 221,103.5C 221.667,98.5 221.667,93.5 221,88.5C 220.399,90.3588 219.566,90.6921 218.5,89.5C 219.467,88.1938 220.801,87.5271 222.5,87.5C 222.5,93.1667 222.5,98.8333 222.5,104.5C 220.876,104.64 219.71,103.973 219,102.5C 218.617,103.056 218.117,103.389 217.5,103.5 Z"/></g>
<g><path style="opacity:1" fill="#3b260b" d="M 120.5,102.5 C 121.338,102.158 121.672,101.492 121.5,100.5C 122.908,101.061 124.408,101.395 126,101.5C 128.567,100.861 131.067,100.361 133.5,100C 129.676,104.706 125.343,105.54 120.5,102.5 Z"/></g>
<g><path style="opacity:1" fill="#ca851c" d="M 211.5,131.5 C 212.5,131.5 213.5,131.5 214.5,131.5C 214.5,134.167 214.5,136.833 214.5,139.5C 215.5,139.5 216.5,139.5 217.5,139.5C 217.5,140.5 217.5,141.5 217.5,142.5C 215.5,142.5 213.5,142.5 211.5,142.5C 211.5,138.833 211.5,135.167 211.5,131.5 Z"/></g>
<g><path style="opacity:1" fill="#c67d13" d="M 105.5,131.5 C 106.496,131.414 107.329,131.748 108,132.5C 109.333,139.167 110.667,139.167 112,132.5C 113.011,131.663 114.178,131.33 115.5,131.5C 116.792,143.389 117.459,143.389 117.5,131.5C 118.5,131.5 119.5,131.5 120.5,131.5C 120.5,135.167 120.5,138.833 120.5,142.5C 118.5,142.5 116.5,142.5 114.5,142.5C 113.5,133.167 112.5,133.167 111.5,142.5C 110.5,142.5 109.5,142.5 108.5,142.5C 107.785,134.15 106.785,133.817 105.5,141.5C 105.167,141.833 104.833,142.167 104.5,142.5C 103.643,138.766 103.976,135.099 105.5,131.5 Z"/></g>
<g><path style="opacity:1" fill="#c2780f" d="M 182.5,131.5 C 187.757,131.688 189.924,134.355 189,139.5C 185.667,143.5 182.333,143.5 179,139.5C 178.279,135.946 179.446,133.28 182.5,131.5 Z"/></g>
<g><path style="opacity:1" fill="#f5b34d" d="M 182.5,134.5 C 187.587,134.284 188.587,136.118 185.5,140C 181.537,140.118 180.537,138.284 182.5,134.5 Z"/></g>
<g><path style="opacity:1" fill="#c17a12" d="M 83.5,131.5 C 86.4206,131.146 88.7539,132.146 90.5,134.5C 88.6351,135.666 86.9684,135.333 85.5,133.5C 81.4312,136.129 81.5978,138.462 86,140.5C 87.2853,140.05 88.452,139.383 89.5,138.5C 90.7112,139.274 90.7112,140.107 89.5,141C 83.2401,143.412 80.4068,141.245 81,134.5C 82.045,133.627 82.8783,132.627 83.5,131.5 Z"/></g>
<g><path style="opacity:1" fill="#cb821c" d="M 122.5,132.5 C 130.877,132.274 132.544,135.441 127.5,142C 125.866,142.494 124.199,142.66 122.5,142.5C 122.5,139.167 122.5,135.833 122.5,132.5 Z"/></g>
<g><path style="opacity:1" fill="#c78015" d="M 146.5,131.5 C 153.004,131.138 154.671,133.638 151.5,139C 152.333,139.833 153.167,140.667 154,141.5C 154.498,138.518 154.665,135.518 154.5,132.5C 156.527,132.338 158.527,132.505 160.5,133C 159.552,133.483 158.552,133.649 157.5,133.5C 157.5,134.5 157.5,135.5 157.5,136.5C 161.5,136.833 161.5,137.167 157.5,137.5C 157.5,138.5 157.5,139.5 157.5,140.5C 158.675,140.281 159.675,140.614 160.5,141.5C 156.134,143.262 152.301,142.595 149,139.5C 148.751,140.624 148.251,141.624 147.5,142.5C 146.511,138.893 146.177,135.226 146.5,131.5 Z"/></g>
<g><path style="opacity:1" fill="#c57b0f" d="M 166.5,131.5 C 169.061,131.447 171.061,132.447 172.5,134.5C 170.641,134.112 168.641,134.112 166.5,134.5C 164.413,139.278 165.746,140.944 170.5,139.5C 169.833,138.833 169.167,138.167 168.5,137.5C 170.045,136.548 171.712,136.215 173.5,136.5C 172.877,141.288 170.21,143.121 165.5,142C 161.514,138.105 161.847,134.605 166.5,131.5 Z"/></g>
<g><path style="opacity:1" fill="#c88017" d="M 190.5,131.5 C 193.168,132.099 195.002,133.766 196,136.5C 196.494,134.866 196.66,133.199 196.5,131.5C 197.5,131.5 198.5,131.5 199.5,131.5C 199.5,135.167 199.5,138.833 199.5,142.5C 198.325,142.719 197.325,142.386 196.5,141.5C 194.101,136.025 193.101,136.359 193.5,142.5C 192.5,142.5 191.5,142.5 190.5,142.5C 190.5,138.833 190.5,135.167 190.5,131.5 Z"/></g>
<g><path style="opacity:1" fill="#c17a0f" d="M 95.5,131.5 C 102.978,132.75 104.311,136.25 99.5,142C 94.2005,143.033 91.7005,140.866 92,135.5C 92.6897,133.65 93.8564,132.316 95.5,131.5 Z"/></g>
<g><path style="opacity:1" fill="#f6b44b" d="M 94.5,134.5 C 96.1992,134.34 97.8659,134.506 99.5,135C 100.813,138.692 99.4799,140.359 95.5,140C 94.5939,138.301 94.2606,136.467 94.5,134.5 Z"/></g>
<g><path style="opacity:1" fill="#c87d14" d="M 135.5,131.5 C 136.376,131.369 137.043,131.702 137.5,132.5C 138.833,135.5 140.167,138.5 141.5,141.5C 141,141.833 140.5,142.167 140,142.5C 137.485,139.923 134.985,139.923 132.5,142.5C 132.418,138.717 133.418,135.05 135.5,131.5 Z"/></g>
<g><path style="opacity:1" fill="#c87e17" d="M 204.5,131.5 C 205.496,131.414 206.329,131.748 207,132.5C 208.029,135.39 209.195,138.224 210.5,141C 210.167,141.5 209.833,142 209.5,142.5C 206.833,139.833 204.167,139.833 201.5,142.5C 201.167,142 200.833,141.5 200.5,141C 201.984,137.87 203.317,134.703 204.5,131.5 Z"/></g>
</svg>
